<svg xmlns="http://www.w3.org/2000/svg" viewBox="-120 -76 296 219" width="296" height="219">
  <polygon points="0.0,-6.0 168.0,78.0 56.0,134.0 -112.0,50.0" fill="#a8a498"/>
  <polygon points="168.0,79.4 168.0,78.0 56.0,134.0 56.0,135.4" fill="#908880"/>
  <polygon points="-112.0,51.4 -112.0,50.0 56.0,134.0 56.0,135.4" fill="#807870"/>
  <polygon points="0.0,-3.5 123.2,58.1 35.0,102.2 -88.2,40.6" fill="#b8b0a4"/>
  <polygon points="120.4,56.7 162.4,77.7 60.2,128.8 18.2,107.8" fill="#888480"/>
  <polygon points="0.0,0.0 0.0,-30.0 112.0,26.0 112.0,56.0" fill="#b84830"/>
  <polygon points="16.8,0.0 16.8,-13.2 36.4,-3.4 36.4,9.8" fill="#8ac0e0"/>
  <polygon points="16.8,0.6 16.8,0.0 36.4,9.8 36.4,10.4" fill="#806050"/>
  <polygon points="47.6,15.4 47.6,2.2 67.2,12.0 67.2,25.2" fill="#8ac0e0"/>
  <polygon points="47.6,16.0 47.6,15.4 67.2,25.2 67.2,25.8" fill="#806050"/>
  <polygon points="78.4,30.8 78.4,17.6 98.0,27.4 98.0,40.6" fill="#8ac0e0"/>
  <polygon points="78.4,31.4 78.4,30.8 98.0,40.6 98.0,41.2" fill="#806050"/>
  <polygon points="28.0,-28.0 -49.0,10.5 -49.0,22.5 28.0,-16.0" fill="#7ab0d0"/>
  <polygon points="56.0,-14.0 -21.0,24.5 -21.0,36.5 56.0,-2.0" fill="#7ab0d0"/>
  <polygon points="84.0,0.0 7.0,38.5 7.0,50.5 84.0,12.0" fill="#7ab0d0"/>
  <polygon points="0.0,-30.0 28.0,-28.0 -49.0,10.5 -77.0,8.5" fill="#687078"/>
  <polygon points="28.0,-16.0 56.0,-14.0 -21.0,24.5 -49.0,22.5" fill="#687078"/>
  <polygon points="56.0,-2.0 84.0,0.0 7.0,38.5 -21.0,36.5" fill="#687078"/>
  <polygon points="84.0,12.0 112.0,14.0 35.0,52.5 7.0,50.5" fill="#687078"/>
  <polygon points="-77.0,8.5 -49.0,10.5 -49.0,22.5" fill="#485058"/>
  <polygon points="-49.0,22.5 -21.0,24.5 -21.0,36.5" fill="#485058"/>
  <polygon points="-21.0,36.5 7.0,38.5 7.0,50.5" fill="#485058"/>
  <polygon points="7.0,50.5 35.0,52.5 35.0,64.5" fill="#485058"/>
  <polygon points="112.0,56.0 112.0,14.0 35.0,52.5 35.0,94.5" fill="#a04028"/>
  <polygon points="106.4,51.6 106.4,36.0 89.6,44.4 89.6,60.0" fill="#5890b0"/>
  <polygon points="107.1,51.8 107.1,51.2 88.9,60.3 88.9,60.9" fill="#806050"/>
  <polygon points="56.0,76.8 56.0,61.2 39.2,69.6 39.2,85.2" fill="#5890b0"/>
  <polygon points="56.7,77.0 56.7,76.4 38.5,85.5 38.5,86.2" fill="#806050"/>
  <polygon points="112.0,27.4 112.0,26.0 35.0,64.5 35.0,65.9" fill="#a84830"/>
  <polygon points="72.8,75.6 72.8,51.6 44.8,65.6 44.8,89.6" fill="#384050"/>
  <polygon points="73.9,51.0 73.9,49.8 43.7,65.0 43.7,66.2" fill="#806050"/>
  <polygon points="75.6,74.2 75.6,70.6 42.0,87.4 42.0,91.0" fill="#888480"/>
  <polygon points="75.6,70.6 82.6,74.1 49.0,90.9 42.0,87.4" fill="#a09c98"/>
  <polygon points="82.6,77.7 82.6,74.1 49.0,90.9 49.0,94.5" fill="#787470"/>
  <polygon points="82.6,77.5 82.6,76.3 79.1,78.0 79.1,79.2" fill="#d8c030"/>
  <polygon points="75.6,81.0 75.6,79.8 72.1,81.5 72.1,82.7" fill="#d8c030"/>
  <polygon points="68.6,84.5 68.6,83.3 65.1,85.0 65.1,86.2" fill="#d8c030"/>
  <polygon points="61.6,88.0 61.6,86.8 58.1,88.5 58.1,89.7" fill="#d8c030"/>
  <polygon points="54.6,91.5 54.6,90.3 51.1,92.0 51.1,93.2" fill="#d8c030"/>
  <polygon points="95.2,66.4 126.0,81.8 112.0,88.8 81.2,73.4" fill="#3070b0"/>
  <polygon points="126.0,93.8 126.0,81.8 112.0,88.8 112.0,100.8" fill="#285f95"/>
  <polygon points="81.2,85.4 81.2,73.4 112.0,88.8 112.0,100.8" fill="#22507e"/>
  <polygon points="119.3,96.0 119.3,86.4 118.7,86.6 118.7,96.2" fill="#22507e"/>
  <polygon points="95.2,55.8 126.0,71.2 112.0,78.2 81.2,62.8" fill="#d04030"/>
  <polygon points="126.0,83.2 126.0,71.2 112.0,78.2 112.0,90.2" fill="#b03628"/>
  <polygon points="81.2,74.8 81.2,62.8 112.0,78.2 112.0,90.2" fill="#952e22"/>
  <polygon points="77.0,82.5 107.8,97.9 93.8,104.9 63.0,89.5" fill="#408040"/>
  <polygon points="107.8,109.9 107.8,97.9 93.8,104.9 93.8,116.9" fill="#366c36"/>
  <polygon points="63.0,101.5 63.0,89.5 93.8,104.9 93.8,116.9" fill="#2e5c2e"/>
  <polygon points="-47.0,59.2 -44.0,60.7 -51.4,64.4 -54.3,62.9" fill="#555"/>
  <polygon points="-44.0,65.3 -44.0,60.7 -51.4,64.4 -51.4,69.0" fill="#444"/>
  <polygon points="-54.3,67.5 -54.3,62.9 -51.4,64.4 -51.4,69.0" fill="#333"/>
  <polygon points="-53.9,66.7 -52.8,67.3 -52.8,66.6 -53.9,66.1" fill="#2a2a2a"/>
  <polygon points="-44.4,61.4 -35.9,65.7 -43.3,69.4 -51.8,65.1" fill="#e8a020"/>
  <polygon points="-35.9,69.2 -35.9,65.7 -43.3,69.4 -43.3,72.9" fill="#c88818"/>
  <polygon points="-51.8,68.6 -51.8,65.1 -43.3,69.4 -43.3,72.9" fill="#b07810"/>
  <polygon points="-47.1,70.6 -47.0,70.7 -47.0,67.8 -47.1,67.8" fill="#8a5a08"/>
  <polygon points="-42.1,62.8 -42.0,62.8 -49.0,66.3 -49.1,66.3" fill="#8a5a08"/>
  <polygon points="-50.3,67.1 -51.4,67.1 -51.4,68.2 -50.3,69.3 -49.2,69.3 -49.2,68.2" fill="#111"/>
  <polygon points="-50.3,67.1 -51.4,67.1 -52.5,67.7 -51.4,67.7" fill="#1a1a1a"/>
  <polygon points="-50.3,69.3 -49.2,69.3 -50.3,69.9 -51.4,69.9" fill="#1a1a1a"/>
  <polygon points="-49.2,69.3 -49.2,68.2 -50.3,68.8 -50.3,69.9" fill="#1a1a1a"/>
  <polygon points="-49.2,68.2 -50.3,67.1 -51.4,67.7 -50.3,68.8" fill="#1a1a1a"/>
  <polygon points="-51.4,67.7 -52.5,67.7 -52.5,68.8 -51.4,69.9 -50.3,69.9 -50.3,68.8" fill="#222"/>
  <polygon points="-51.5,68.1 -52.3,68.1 -52.3,68.8 -51.5,69.6 -50.8,69.6 -50.8,68.8" fill="#bbb"/>
  <polygon points="-51.5,68.3 -52.0,68.3 -52.0,68.8 -51.5,69.3 -51.0,69.3 -51.0,68.8" fill="#777"/>
  <polygon points="-51.5,68.6 -51.7,68.6 -51.7,68.8 -51.5,69.0 -51.3,69.0 -51.3,68.8" fill="#222"/>
  <polygon points="-43.2,70.7 -44.3,70.7 -44.3,71.8 -43.2,72.9 -42.1,72.9 -42.1,71.8" fill="#111"/>
  <polygon points="-43.2,70.7 -44.3,70.7 -45.4,71.3 -44.3,71.3" fill="#1a1a1a"/>
  <polygon points="-43.2,72.9 -42.1,72.9 -43.2,73.5 -44.3,73.5" fill="#1a1a1a"/>
  <polygon points="-42.1,72.9 -42.1,71.8 -43.2,72.4 -43.2,73.5" fill="#1a1a1a"/>
  <polygon points="-42.1,71.8 -43.2,70.7 -44.3,71.3 -43.2,72.4" fill="#1a1a1a"/>
  <polygon points="-44.3,71.3 -45.4,71.3 -45.4,72.4 -44.3,73.5 -43.2,73.5 -43.2,72.4" fill="#222"/>
  <polygon points="-44.4,71.7 -45.1,71.7 -45.1,72.4 -44.4,73.1 -43.6,73.1 -43.6,72.4" fill="#bbb"/>
  <polygon points="-44.4,71.9 -44.9,71.9 -44.9,72.4 -44.4,72.9 -43.9,72.9 -43.9,72.4" fill="#777"/>
  <polygon points="-44.4,72.2 -44.6,72.2 -44.6,72.4 -44.4,72.6 -44.2,72.6 -44.2,72.4" fill="#222"/>
  <polygon points="-44.2,62.3 -42.1,63.4 -45.4,65.0 -47.6,63.9" fill="#222"/>
  <polygon points="-42.1,64.2 -42.1,63.4 -45.4,65.0 -45.4,65.9" fill="#1a1a1a"/>
  <polygon points="-47.6,64.8 -47.6,63.9 -45.4,65.0 -45.4,65.9" fill="#151515"/>
  <polygon points="-44.2,60.6 -43.7,60.9 -47.0,62.6 -47.6,62.3" fill="#222"/>
  <polygon points="-43.7,62.6 -43.7,60.9 -47.0,62.6 -47.0,64.2" fill="#1a1a1a"/>
  <polygon points="-47.6,63.9 -47.6,62.3 -47.0,62.6 -47.0,64.2" fill="#151515"/>
  <polygon points="-42.1,63.7 -41.5,64.0 -42.3,64.4 -42.8,64.1" fill="#333"/>
  <polygon points="-41.5,65.8 -41.5,64.0 -42.3,64.4 -42.3,66.2" fill="#2a2a2a"/>
  <polygon points="-42.8,65.9 -42.8,64.1 -42.3,64.4 -42.3,66.2" fill="#222"/>
  <polygon points="-42.3,63.3 -40.9,64.0 -42.1,64.6 -43.4,63.9" fill="#1a1a1a"/>
  <polygon points="-40.9,64.3 -40.9,64.0 -42.1,64.6 -42.1,64.8" fill="#111"/>
  <polygon points="-43.4,64.2 -43.4,63.9 -42.1,64.6 -42.1,64.8" fill="#000"/>
  <polygon points="-44.2,55.8 -43.8,56.0 -44.2,56.3 -44.7,56.0" fill="#e8a020"/>
  <polygon points="-43.8,62.0 -43.8,56.0 -44.2,56.3 -44.2,62.2" fill="#c88818"/>
  <polygon points="-44.7,62.0 -44.7,56.0 -44.2,56.3 -44.2,62.2" fill="#b07810"/>
  <polygon points="-50.7,59.0 -50.2,59.3 -50.7,59.5 -51.2,59.3" fill="#e8a020"/>
  <polygon points="-50.2,65.2 -50.2,59.3 -50.7,59.5 -50.7,65.5" fill="#c88818"/>
  <polygon points="-51.2,65.2 -51.2,59.3 -50.7,59.5 -50.7,65.5" fill="#b07810"/>
  <polygon points="-36.6,59.6 -36.1,59.8 -36.6,60.1 -37.1,59.8" fill="#e8a020"/>
  <polygon points="-36.1,65.8 -36.1,59.8 -36.6,60.1 -36.6,66.1" fill="#c88818"/>
  <polygon points="-37.1,65.8 -37.1,59.8 -36.6,60.1 -36.6,66.1" fill="#b07810"/>
  <polygon points="-43.1,62.8 -42.6,63.1 -43.1,63.3 -43.6,63.1" fill="#e8a020"/>
  <polygon points="-42.6,69.0 -42.6,63.1 -43.1,63.3 -43.1,69.3" fill="#c88818"/>
  <polygon points="-43.6,69.0 -43.6,63.1 -43.1,63.3 -43.1,69.3" fill="#b07810"/>
  <polygon points="-50.7,61.4 -42.6,65.5 -43.1,65.7 -51.2,61.6" fill="#e8a020"/>
  <polygon points="-42.6,65.8 -42.6,65.5 -43.1,65.7 -43.1,66.0" fill="#c88818"/>
  <polygon points="-51.2,61.9 -51.2,61.6 -43.1,65.7 -43.1,66.0" fill="#b07810"/>
  <polygon points="-44.2,55.8 -36.1,59.8 -36.6,60.1 -44.7,56.0" fill="#e8a020"/>
  <polygon points="-36.1,60.3 -36.1,59.8 -36.6,60.1 -36.6,60.5" fill="#c88818"/>
  <polygon points="-44.7,56.4 -44.7,56.0 -36.6,60.1 -36.6,60.5" fill="#b07810"/>
  <polygon points="-50.7,59.0 -42.6,63.1 -43.1,63.3 -51.2,59.3" fill="#e8a020"/>
  <polygon points="-42.6,63.5 -42.6,63.1 -43.1,63.3 -43.1,63.7" fill="#c88818"/>
  <polygon points="-51.2,59.7 -51.2,59.3 -43.1,63.3 -43.1,63.7" fill="#b07810"/>
  <polygon points="-43.8,55.4 -35.3,59.6 -43.5,63.7 -52.0,59.5" fill="#e8a020"/>
  <polygon points="-35.3,59.9 -35.3,59.6 -43.5,63.7 -43.5,64.0" fill="#c88818"/>
  <polygon points="-52.0,59.7 -52.0,59.5 -43.5,63.7 -43.5,64.0" fill="#b07810"/>
  <polygon points="-46.3,57.2 -45.7,57.5 -46.3,57.9 -47.0,57.5" fill="#f0a020"/>
  <polygon points="-45.7,58.0 -45.7,57.5 -46.3,57.9 -46.3,58.3" fill="#d08818"/>
  <polygon points="-47.0,58.0 -47.0,57.5 -46.3,57.9 -46.3,58.3" fill="#b07012"/>
  <polygon points="-36.1,59.8 -35.4,60.2 -36.2,60.5 -36.9,60.2" fill="#5a5a5a"/>
  <polygon points="-35.4,70.9 -35.4,60.2 -36.2,60.5 -36.2,71.3" fill="#444"/>
  <polygon points="-36.9,71.0 -36.9,60.2 -36.2,60.5 -36.2,71.3" fill="#333"/>
  <polygon points="-41.5,62.5 -40.8,62.9 -41.6,63.2 -42.3,62.9" fill="#5a5a5a"/>
  <polygon points="-40.8,73.6 -40.8,62.9 -41.6,63.2 -41.6,74.0" fill="#444"/>
  <polygon points="-42.3,73.7 -42.3,62.9 -41.6,63.2 -41.6,74.0" fill="#333"/>
  <polygon points="-36.5,60.3 -36.1,60.6 -41.5,63.2 -41.9,63.0" fill="#666"/>
  <polygon points="-36.1,61.1 -36.1,60.6 -41.5,63.2 -41.5,63.8" fill="#555"/>
  <polygon points="-41.9,63.5 -41.9,63.0 -41.5,63.2 -41.5,63.8" fill="#444"/>
  <polygon points="-36.9,69.2 -37.7,69.6 -37.7,68.9 -36.9,68.6" fill="#fff8c0"/>
  <polygon points="-41.3,71.4 -42.1,71.8 -42.1,71.1 -41.3,70.8" fill="#fff8c0"/>
  <polygon points="-35.4,67.7 -34.9,68.0 -41.1,71.0 -41.6,70.8" fill="#888"/>
  <polygon points="-34.9,69.8 -34.9,68.0 -41.1,71.0 -41.1,72.9" fill="#666"/>
  <polygon points="-41.6,72.7 -41.6,70.8 -41.1,71.0 -41.1,72.9" fill="#555"/>
  <polygon points="-35.4,71.3 -35.4,68.5 -36.1,68.8 -36.1,71.7" fill="#888"/>
  <polygon points="-35.3,71.0 -27.0,75.2 -27.7,75.5 -36.0,71.4" fill="#aaa"/>
  <polygon points="-27.0,75.5 -27.0,75.2 -27.7,75.5 -27.7,75.9" fill="#888"/>
  <polygon points="-36.0,71.7 -36.0,71.4 -27.7,75.5 -27.7,75.9" fill="#777"/>
  <polygon points="-40.1,73.7 -40.1,70.8 -40.8,71.2 -40.8,74.0" fill="#888"/>
  <polygon points="-40.0,73.4 -31.7,77.5 -32.4,77.9 -40.7,73.7" fill="#aaa"/>
  <polygon points="-31.7,77.9 -31.7,77.5 -32.4,77.9 -32.4,78.2" fill="#888"/>
  <polygon points="-40.7,74.0 -40.7,73.7 -32.4,77.9 -32.4,78.2" fill="#777"/>
  <polygon points="-33.8,70.7 -28.6,73.3 -34.3,76.2 -39.5,73.6" fill="#a07c40"/>
  <polygon points="-28.6,74.0 -28.6,73.3 -34.3,76.2 -34.3,76.9" fill="#886832"/>
  <polygon points="-39.5,74.3 -39.5,73.6 -34.3,76.2 -34.3,76.9" fill="#705428"/>
  <polygon points="-33.8,68.4 -29.3,70.6 -34.3,73.1 -38.8,70.9" fill="#c8a060"/>
  <polygon points="-29.3,73.3 -29.3,70.6 -34.3,73.1 -34.3,75.8" fill="#a88848"/>
  <polygon points="-38.8,73.6 -38.8,70.9 -34.3,73.1 -34.3,75.8" fill="#907038"/>
  <polygon points="-38.8,72.2 -34.3,74.4 -34.3,74.3 -38.8,72.1" fill="#705428"/>
  <polygon points="-56.0,55.5 -49.1,58.9 -56.0,62.4 -62.9,58.9" fill="#c0a870"/>
  <polygon points="-49.1,59.4 -49.1,58.9 -56.0,62.4 -56.0,62.9" fill="#a89060"/>
  <polygon points="-62.9,59.4 -62.9,58.9 -56.0,62.4 -56.0,62.9" fill="#988050"/>
  <polygon points="-56.0,53.7 -53.1,55.2 -56.0,56.6 -58.9,55.2" fill="#d0b888"/>
  <polygon points="-53.1,57.3 -53.1,55.2 -56.0,56.6 -56.0,58.7" fill="#b8a070"/>
  <polygon points="-58.9,57.3 -58.9,55.2 -56.0,56.6 -56.0,58.7" fill="#a89060"/>
  <polygon points="-52.9,55.7 -49.9,57.1 -52.9,58.6 -55.8,57.1" fill="#c8c0b0"/>
  <polygon points="-49.9,58.8 -49.9,57.1 -52.9,58.6 -52.9,60.3" fill="#b0a898"/>
  <polygon points="-55.8,58.8 -55.8,57.1 -52.9,58.6 -52.9,60.3" fill="#a09888"/>
  <polygon points="-58.6,55.8 -55.9,57.1 -58.6,58.5 -61.4,57.1" fill="#b8a870"/>
  <polygon points="-55.9,59.0 -55.9,57.1 -58.6,58.5 -58.6,60.3" fill="#a09060"/>
  <polygon points="-61.4,59.0 -61.4,57.1 -58.6,58.5 -58.6,60.3" fill="#908050"/>
  <polygon points="-55.8,52.8 -53.1,54.1 -55.8,55.5 -58.5,54.1" fill="#d8c898"/>
  <polygon points="-53.1,55.6 -53.1,54.1 -55.8,55.5 -55.8,57.0" fill="#c0b080"/>
  <polygon points="-58.5,55.6 -58.5,54.1 -55.8,55.5 -55.8,57.0" fill="#b0a070"/>
  <polygon points="-77.0,38.5 -77.0,8.5 35.0,64.5 35.0,94.5" fill="#983828"/>
  <polygon points="-77.0,9.9 -77.0,8.5 35.0,64.5 35.0,65.9" fill="#884028"/>
  <polygon points="-77.0,38.5 -77.0,36.1 35.0,92.1 35.0,94.5" fill="#a09890"/>
  <polygon points="0.0,77.0 0.0,56.6 9.8,61.5 9.8,81.9" fill="#483830"/>
  <polygon points="-2.8,54.0 -9.8,59.3 5.6,67.0 12.6,61.7" fill="#707070"/>
  <polygon points="-9.8,59.3 -9.8,60.1 5.6,67.8 5.6,67.0" fill="#606060"/>
  <polygon points="-60.2,37.3 -60.2,24.1 -46.2,31.1 -46.2,44.3" fill="#4a7890"/>
  <polygon points="-60.9,37.6 -60.9,37.0 -45.5,44.6 -45.5,45.2" fill="#806050"/>
  <polygon points="-32.2,51.3 -32.2,38.1 -18.2,45.1 -18.2,58.3" fill="#4a7890"/>
  <polygon points="-32.9,51.6 -32.9,51.0 -17.5,58.6 -17.5,59.2" fill="#806050"/>
  <polygon points="21.0,77.9 21.0,64.7 35.0,71.7 35.0,84.9" fill="#4a7890"/>
  <polygon points="20.3,78.1 20.3,77.5 35.7,85.2 35.7,85.9" fill="#806050"/>
  <polygon points="18.2,62.1 18.2,58.5 29.4,64.1 29.4,67.7" fill="#505860"/>
  <polygon points="-72.8,40.6 -72.8,10.6 -71.7,11.2 -71.7,41.2" fill="#787878"/>
  <polygon points="-18.2,60.7 -18.2,53.5 -11.2,57.0 -11.2,64.2" fill="#606868"/>
  <polygon points="-18.2,53.5 -19.9,54.3 -12.9,57.8 -11.2,57.0" fill="#505858"/>
  <polygon points="-67.2,43.0 -57.4,47.9 -63.3,50.8 -73.1,45.9" fill="#2070a0"/>
  <polygon points="-57.4,52.5 -57.4,47.9 -63.3,50.8 -63.3,55.4" fill="#1860a0"/>
  <polygon points="-73.1,50.5 -73.1,45.9 -63.3,50.8 -63.3,55.4" fill="#105090"/>
  <polygon points="-70.7,51.4 -70.6,51.5 -70.6,47.5 -70.7,47.5" fill="#0e3868"/>
  <polygon points="-68.2,52.6 -68.1,52.7 -68.1,48.7 -68.2,48.7" fill="#0e3868"/>
  <polygon points="-65.8,53.9 -65.7,53.9 -65.7,50.0 -65.8,49.9" fill="#0e3868"/>
  <polygon points="-59.3,53.1 -59.4,53.2 -59.4,49.2 -59.3,49.2" fill="#0e3868"/>
  <polygon points="-61.3,54.1 -61.4,54.1 -61.4,50.2 -61.3,50.2" fill="#0e3868"/>
  <polygon points="-72.9,50.5 -63.5,55.2 -63.5,54.8 -72.9,50.1" fill="#0a2848"/>
  <polygon points="-67.2,42.4 -57.0,47.5 -63.3,50.7 -73.5,45.6" fill="#2880b0"/>
  <polygon points="-57.0,47.9 -57.0,47.5 -63.3,50.7 -63.3,51.0" fill="#2070a0"/>
  <polygon points="-73.5,45.9 -73.5,45.6 -63.3,50.7 -63.3,51.0" fill="#1860a0"/>
  <polygon points="-67.2,42.4 -68.0,40.9 -74.3,44.0 -73.5,45.6" fill="#3090b8"/>
  <polygon points="-68.4,43.0 -68.6,42.7 -69.0,42.9 -68.8,43.2" fill="#222"/>
  <polygon points="-71.9,44.8 -72.1,44.4 -72.5,44.6 -72.3,45.0" fill="#222"/>
  <polygon points="85.4,77.3 86.7,78.0 85.4,78.7 84.1,78.0" fill="#666"/>
  <polygon points="86.7,78.2 86.7,78.0 85.4,78.7 85.4,78.9" fill="#555"/>
  <polygon points="84.1,78.2 84.1,78.0 85.4,78.7 85.4,78.9" fill="#4a4a4a"/>
  <polygon points="85.4,74.5 86.4,75.0 85.4,75.5 84.4,75.0" fill="#888"/>
  <polygon points="86.4,78.0 86.4,75.0 85.4,75.5 85.4,78.5" fill="#777"/>
  <polygon points="84.4,78.0 84.4,75.0 85.4,75.5 85.4,78.5" fill="#666"/>
  <polygon points="85.4,75.0 86.6,75.6 85.4,76.2 84.2,75.6" fill="#e8e0d0"/>
  <polygon points="86.6,76.0 86.6,75.6 85.4,76.2 85.4,76.6" fill="#d0c8b8"/>
  <polygon points="84.2,76.0 84.2,75.6 85.4,76.2 85.4,76.6" fill="#c0b8a8"/>
  <polygon points="85.4,74.1 86.6,74.7 85.4,75.3 84.2,74.7" fill="#999"/>
  <polygon points="86.6,75.0 86.6,74.7 85.4,75.3 85.4,75.6" fill="#888"/>
  <polygon points="84.2,75.0 84.2,74.7 85.4,75.3 85.4,75.6" fill="#777"/>
  <polygon points="49.0,95.5 50.3,96.2 49.0,96.9 47.7,96.2" fill="#666"/>
  <polygon points="50.3,96.4 50.3,96.2 49.0,96.9 49.0,97.1" fill="#555"/>
  <polygon points="47.7,96.4 47.7,96.2 49.0,96.9 49.0,97.1" fill="#4a4a4a"/>
  <polygon points="49.0,92.7 50.0,93.2 49.0,93.7 48.0,93.2" fill="#888"/>
  <polygon points="50.0,96.2 50.0,93.2 49.0,93.7 49.0,96.7" fill="#777"/>
  <polygon points="48.0,96.2 48.0,93.2 49.0,93.7 49.0,96.7" fill="#666"/>
  <polygon points="49.0,93.2 50.2,93.8 49.0,94.4 47.8,93.8" fill="#e8e0d0"/>
  <polygon points="50.2,94.2 50.2,93.8 49.0,94.4 49.0,94.8" fill="#d0c8b8"/>
  <polygon points="47.8,94.2 47.8,93.8 49.0,94.4 49.0,94.8" fill="#c0b8a8"/>
  <polygon points="49.0,92.3 50.2,92.9 49.0,93.5 47.8,92.9" fill="#999"/>
  <polygon points="50.2,93.2 50.2,92.9 49.0,93.5 49.0,93.8" fill="#888"/>
  <polygon points="47.8,93.2 47.8,92.9 49.0,93.5 49.0,93.8" fill="#777"/>
  <polygon points="-88.2,32.1 -86.2,33.1 -87.6,33.8 -89.6,32.8" fill="#705838"/>
  <polygon points="-86.2,40.6 -86.2,33.1 -87.6,33.8 -87.6,41.3" fill="#705838"/>
  <polygon points="-89.6,40.4 -89.6,32.8 -87.6,33.8 -87.6,41.3" fill="#604830"/>
  <polygon points="-80.5,41.5 -90.7,40.5 -99.3,36.6 -101.2,31.4 -95.3,28.2 -85.1,29.1 -76.5,33.7 -74.6,38.9" fill="#1e5820"/>
  <polygon points="-80.9,39.0 -90.6,38.0 -98.7,34.3 -100.5,29.5 -95.0,26.3 -85.3,27.3 -77.1,31.7 -75.3,36.5" fill="#287028"/>
  <polygon points="-82.2,35.6 -90.0,34.9 -96.7,31.9 -98.2,27.9 -93.7,25.4 -85.8,26.1 -79.2,29.8 -77.7,33.7" fill="#329838"/>
  <polygon points="-84.2,31.9 -89.4,31.5 -93.7,29.6 -94.6,27.1 -91.6,25.2 -86.4,25.7 -82.2,28.2 -81.2,30.7" fill="#46b048"/>
  <polygon points="0.0,5.6 0.0,-66.4 9.8,-61.5 9.8,10.5" fill="#d44030"/>
  <polygon points="9.8,10.5 9.8,-61.5 0.0,-56.6 0.0,15.4" fill="#b83028"/>
  <polygon points="-9.8,10.5 -9.8,-61.5 0.0,-56.6 0.0,15.4" fill="#a02820"/>
  <polygon points="0.0,-65.4 0.0,-67.5 12.0,-61.5 12.0,-59.3" fill="#c83828"/>
  <polygon points="12.0,-59.3 12.0,-61.5 0.0,-55.5 0.0,-53.3" fill="#a82020"/>
  <polygon points="-12.0,-59.3 -12.0,-61.5 0.0,-55.5 0.0,-53.3" fill="#901818"/>
  <polygon points="0.0,-67.5 12.0,-61.5 0.0,-55.5 -12.0,-61.5" fill="#444"/>
  <polygon points="9.8,-14.7 9.8,-15.9 0.0,-11.0 0.0,-9.8" fill="#f0ece8"/>
  <polygon points="-9.8,-14.7 -9.8,-15.9 0.0,-11.0 0.0,-9.8" fill="#e0dcd8"/>
  <polygon points="9.8,-32.7 9.8,-33.9 0.0,-29.0 0.0,-27.8" fill="#f0ece8"/>
  <polygon points="-9.8,-32.7 -9.8,-33.9 0.0,-29.0 0.0,-27.8" fill="#e0dcd8"/>
</svg>