<svg xmlns="http://www.w3.org/2000/svg" viewBox="-148 -125 296 251" width="296" height="251">
  <polygon points="-7.0,-23.5 140.0,50.0 7.0,116.5 -140.0,43.0" fill="#a89878"/>
  <polygon points="140.0,51.4 140.0,50.0 7.0,116.5 7.0,117.9" fill="#887858"/>
  <polygon points="-140.0,44.4 -140.0,43.0 7.0,116.5 7.0,117.9" fill="#786848"/>
  <polygon points="0.0,-2.3 86.8,41.1 0.0,84.5 -86.8,41.1" fill="#b0a890"/>
  <polygon points="0.0,-7.0 0.0,-103.0 5.6,-100.2 5.6,-4.2" fill="#e8a020"/>
  <polygon points="5.6,-4.2 5.6,-100.2 0.0,-97.4 0.0,-1.4" fill="#c88818"/>
  <polygon points="-5.6,-4.2 -5.6,-100.2 0.0,-97.4 0.0,-1.4" fill="#b07810"/>
  <polygon points="0.0,35.0 0.0,-21.4 19.6,-11.6 19.6,44.8" fill="#989898"/>
  <polygon points="19.6,44.8 19.6,-11.6 0.0,-1.8 0.0,54.6" fill="#888888"/>
  <polygon points="-19.6,44.8 -19.6,-11.6 0.0,-1.8 0.0,54.6" fill="#787878"/>
  <polygon points="0.0,-21.4 19.6,-11.6 0.0,-1.8 -19.6,-11.6" fill="#a8a8a8"/>
  <polygon points="0.0,-29.6 81.2,11.0 0.0,51.6 -81.2,11.0" fill="#a0a0a0"/>
  <polygon points="81.2,12.8 81.2,11.0 0.0,51.6 0.0,53.4" fill="#888888"/>
  <polygon points="-81.2,12.8 -81.2,11.0 0.0,51.6 0.0,53.4" fill="#787878"/>
  <polygon points="0.0,-56.0 81.2,-15.4 0.0,25.2 -81.2,-15.4" fill="#a0a0a0"/>
  <polygon points="81.2,-13.6 81.2,-15.4 0.0,25.2 0.0,27.0" fill="#888888"/>
  <polygon points="-81.2,-13.6 -81.2,-15.4 0.0,25.2 0.0,27.0" fill="#787878"/>
  <polygon points="-78.4,39.2 -78.4,23.4 0.0,62.6 0.0,78.4" fill="#909090"/>
  <polygon points="78.4,39.2 78.4,23.4 19.6,52.8 19.6,68.6" fill="#989898"/>
  <polygon points="0.0,0.0 0.0,-79.2 2.8,-77.8 2.8,1.4" fill="#983830"/>
  <polygon points="2.8,1.4 2.8,-77.8 0.0,-76.4 0.0,2.8" fill="#b04038"/>
  <polygon points="-2.8,1.4 -2.8,-77.8 0.0,-76.4 0.0,2.8" fill="#883028"/>
  <polygon points="0.0,-79.2 2.8,-77.8 0.0,-76.4 -2.8,-77.8" fill="#c85040"/>
  <polygon points="-39.2,19.6 -39.2,-59.6 -36.4,-58.2 -36.4,21.0" fill="#983830"/>
  <polygon points="-36.4,21.0 -36.4,-58.2 -39.2,-56.8 -39.2,22.4" fill="#b04038"/>
  <polygon points="-42.0,21.0 -42.0,-58.2 -39.2,-56.8 -39.2,22.4" fill="#883028"/>
  <polygon points="-39.2,-59.6 -36.4,-58.2 -39.2,-56.8 -42.0,-58.2" fill="#c85040"/>
  <polygon points="-78.4,39.2 -78.4,-21.5 -75.6,-20.1 -75.6,40.6" fill="#983830"/>
  <polygon points="-75.6,40.6 -75.6,-20.1 -78.4,-18.7 -78.4,42.0" fill="#b04038"/>
  <polygon points="-81.2,40.6 -81.2,-20.1 -78.4,-18.7 -78.4,42.0" fill="#883028"/>
  <polygon points="-78.4,-21.5 -75.6,-20.1 -78.4,-18.7 -81.2,-20.1" fill="#c85040"/>
  <polygon points="39.2,19.6 39.2,-59.6 42.0,-58.2 42.0,21.0" fill="#983830"/>
  <polygon points="42.0,21.0 42.0,-58.2 39.2,-56.8 39.2,22.4" fill="#b04038"/>
  <polygon points="36.4,21.0 36.4,-58.2 39.2,-56.8 39.2,22.4" fill="#883028"/>
  <polygon points="39.2,-59.6 42.0,-58.2 39.2,-56.8 36.4,-58.2" fill="#c85040"/>
  <polygon points="0.0,39.2 0.0,-40.0 2.8,-38.6 2.8,40.6" fill="#983830"/>
  <polygon points="2.8,40.6 2.8,-38.6 0.0,-37.2 0.0,42.0" fill="#b04038"/>
  <polygon points="-2.8,40.6 -2.8,-38.6 0.0,-37.2 0.0,42.0" fill="#883028"/>
  <polygon points="0.0,-40.0 2.8,-38.6 0.0,-37.2 -2.8,-38.6" fill="#c85040"/>
  <polygon points="-39.2,58.8 -39.2,6.0 -36.4,7.4 -36.4,60.2" fill="#983830"/>
  <polygon points="-36.4,60.2 -36.4,7.4 -39.2,8.8 -39.2,61.6" fill="#b04038"/>
  <polygon points="-42.0,60.2 -42.0,7.4 -39.2,8.8 -39.2,61.6" fill="#883028"/>
  <polygon points="-39.2,6.0 -36.4,7.4 -39.2,8.8 -42.0,7.4" fill="#c85040"/>
  <polygon points="78.4,39.2 78.4,-21.5 81.2,-20.1 81.2,40.6" fill="#983830"/>
  <polygon points="81.2,40.6 81.2,-20.1 78.4,-18.7 78.4,42.0" fill="#b04038"/>
  <polygon points="75.6,40.6 75.6,-20.1 78.4,-18.7 78.4,42.0" fill="#883028"/>
  <polygon points="78.4,-21.5 81.2,-20.1 78.4,-18.7 75.6,-20.1" fill="#c85040"/>
  <polygon points="39.2,58.8 39.2,6.0 42.0,7.4 42.0,60.2" fill="#983830"/>
  <polygon points="42.0,60.2 42.0,7.4 39.2,8.8 39.2,61.6" fill="#b04038"/>
  <polygon points="36.4,60.2 36.4,7.4 39.2,8.8 39.2,61.6" fill="#883028"/>
  <polygon points="39.2,6.0 42.0,7.4 39.2,8.8 36.4,7.4" fill="#c85040"/>
  <polygon points="0.0,78.4 0.0,46.7 2.8,48.1 2.8,79.8" fill="#983830"/>
  <polygon points="2.8,79.8 2.8,48.1 0.0,49.5 0.0,81.2" fill="#b04038"/>
  <polygon points="-2.8,79.8 -2.8,48.1 0.0,49.5 0.0,81.2" fill="#883028"/>
  <polygon points="0.0,46.7 2.8,48.1 0.0,49.5 -2.8,48.1" fill="#c85040"/>
  <polygon points="0.0,-28.1 39.2,-8.5 37.2,-7.5 -2.0,-27.1" fill="#c85040"/>
  <polygon points="39.2,-6.8 39.2,-8.5 37.2,-7.5 37.2,-5.8" fill="#b04038"/>
  <polygon points="-2.0,-25.4 -2.0,-27.1 37.2,-7.5 37.2,-5.8" fill="#883028"/>
  <polygon points="39.2,-8.5 78.4,11.1 76.4,12.1 37.2,-7.5" fill="#c85040"/>
  <polygon points="78.4,12.8 78.4,11.1 76.4,12.1 76.4,13.8" fill="#b04038"/>
  <polygon points="37.2,-5.8 37.2,-7.5 76.4,12.1 76.4,13.8" fill="#883028"/>
  <polygon points="-39.2,-8.5 0.0,11.1 -2.0,12.1 -41.2,-7.5" fill="#c85040"/>
  <polygon points="0.0,12.8 0.0,11.1 -2.0,12.1 -2.0,13.8" fill="#b04038"/>
  <polygon points="-41.2,-5.8 -41.2,-7.5 -2.0,12.1 -2.0,13.8" fill="#883028"/>
  <polygon points="0.0,11.1 39.2,30.7 37.2,31.7 -2.0,12.1" fill="#c85040"/>
  <polygon points="39.2,32.4 39.2,30.7 37.2,31.7 37.2,33.4" fill="#b04038"/>
  <polygon points="-2.0,13.8 -2.0,12.1 37.2,31.7 37.2,33.4" fill="#883028"/>
  <polygon points="-78.4,11.1 -39.2,30.7 -41.2,31.7 -80.4,12.1" fill="#c85040"/>
  <polygon points="-39.2,32.4 -39.2,30.7 -41.2,31.7 -41.2,33.4" fill="#b04038"/>
  <polygon points="-80.4,13.8 -80.4,12.1 -41.2,31.7 -41.2,33.4" fill="#883028"/>
  <polygon points="-39.2,30.7 0.0,50.3 -2.0,51.3 -41.2,31.7" fill="#c85040"/>
  <polygon points="0.0,52.0 0.0,50.3 -2.0,51.3 -2.0,53.0" fill="#b04038"/>
  <polygon points="-41.2,33.4 -41.2,31.7 -2.0,51.3 -2.0,53.0" fill="#883028"/>
  <polygon points="0.0,-28.1 2.0,-27.1 -37.2,-7.5 -39.2,-8.5" fill="#c85040"/>
  <polygon points="2.0,-25.4 2.0,-27.1 -37.2,-7.5 -37.2,-5.8" fill="#b04038"/>
  <polygon points="-39.2,-6.8 -39.2,-8.5 -37.2,-7.5 -37.2,-5.8" fill="#883028"/>
  <polygon points="-39.2,-8.5 -37.2,-7.5 -76.4,12.1 -78.4,11.1" fill="#c85040"/>
  <polygon points="-37.2,-5.8 -37.2,-7.5 -76.4,12.1 -76.4,13.8" fill="#b04038"/>
  <polygon points="-78.4,12.8 -78.4,11.1 -76.4,12.1 -76.4,13.8" fill="#883028"/>
  <polygon points="39.2,-8.5 41.2,-7.5 2.0,12.1 0.0,11.1" fill="#c85040"/>
  <polygon points="41.2,-5.8 41.2,-7.5 2.0,12.1 2.0,13.8" fill="#b04038"/>
  <polygon points="0.0,12.8 0.0,11.1 2.0,12.1 2.0,13.8" fill="#883028"/>
  <polygon points="0.0,11.1 2.0,12.1 -37.2,31.7 -39.2,30.7" fill="#c85040"/>
  <polygon points="2.0,13.8 2.0,12.1 -37.2,31.7 -37.2,33.4" fill="#b04038"/>
  <polygon points="-39.2,32.4 -39.2,30.7 -37.2,31.7 -37.2,33.4" fill="#883028"/>
  <polygon points="78.4,11.1 80.4,12.1 41.2,31.7 39.2,30.7" fill="#c85040"/>
  <polygon points="80.4,13.8 80.4,12.1 41.2,31.7 41.2,33.4" fill="#b04038"/>
  <polygon points="39.2,32.4 39.2,30.7 41.2,31.7 41.2,33.4" fill="#883028"/>
  <polygon points="39.2,30.7 41.2,31.7 2.0,51.3 0.0,50.3" fill="#c85040"/>
  <polygon points="41.2,33.4 41.2,31.7 2.0,51.3 2.0,53.0" fill="#b04038"/>
  <polygon points="0.0,52.0 0.0,50.3 2.0,51.3 2.0,53.0" fill="#883028"/>
  <polygon points="0.0,-54.5 39.2,-34.9 37.2,-33.9 -2.0,-53.5" fill="#c85040"/>
  <polygon points="39.2,-33.2 39.2,-34.9 37.2,-33.9 37.2,-32.2" fill="#b04038"/>
  <polygon points="-2.0,-51.8 -2.0,-53.5 37.2,-33.9 37.2,-32.2" fill="#883028"/>
  <polygon points="39.2,-34.9 78.4,-15.3 76.4,-14.3 37.2,-33.9" fill="#c85040"/>
  <polygon points="78.4,-13.6 78.4,-15.3 76.4,-14.3 76.4,-12.6" fill="#b04038"/>
  <polygon points="37.2,-32.2 37.2,-33.9 76.4,-14.3 76.4,-12.6" fill="#883028"/>
  <polygon points="-39.2,-34.9 0.0,-15.3 -2.0,-14.3 -41.2,-33.9" fill="#c85040"/>
  <polygon points="0.0,-13.6 0.0,-15.3 -2.0,-14.3 -2.0,-12.6" fill="#b04038"/>
  <polygon points="-41.2,-32.2 -41.2,-33.9 -2.0,-14.3 -2.0,-12.6" fill="#883028"/>
  <polygon points="0.0,-15.3 39.2,4.3 37.2,5.3 -2.0,-14.3" fill="#c85040"/>
  <polygon points="39.2,6.0 39.2,4.3 37.2,5.3 37.2,7.0" fill="#b04038"/>
  <polygon points="-2.0,-12.6 -2.0,-14.3 37.2,5.3 37.2,7.0" fill="#883028"/>
  <polygon points="-78.4,-15.3 -39.2,4.3 -41.2,5.3 -80.4,-14.3" fill="#c85040"/>
  <polygon points="-39.2,6.0 -39.2,4.3 -41.2,5.3 -41.2,7.0" fill="#b04038"/>
  <polygon points="-80.4,-12.6 -80.4,-14.3 -41.2,5.3 -41.2,7.0" fill="#883028"/>
  <polygon points="0.0,-54.5 2.0,-53.5 -37.2,-33.9 -39.2,-34.9" fill="#c85040"/>
  <polygon points="2.0,-51.8 2.0,-53.5 -37.2,-33.9 -37.2,-32.2" fill="#b04038"/>
  <polygon points="-39.2,-33.2 -39.2,-34.9 -37.2,-33.9 -37.2,-32.2" fill="#883028"/>
  <polygon points="-39.2,-34.9 -37.2,-33.9 -76.4,-14.3 -78.4,-15.3" fill="#c85040"/>
  <polygon points="-37.2,-32.2 -37.2,-33.9 -76.4,-14.3 -76.4,-12.6" fill="#b04038"/>
  <polygon points="-78.4,-13.6 -78.4,-15.3 -76.4,-14.3 -76.4,-12.6" fill="#883028"/>
  <polygon points="39.2,-34.9 41.2,-33.9 2.0,-14.3 0.0,-15.3" fill="#c85040"/>
  <polygon points="41.2,-32.2 41.2,-33.9 2.0,-14.3 2.0,-12.6" fill="#b04038"/>
  <polygon points="0.0,-13.6 0.0,-15.3 2.0,-14.3 2.0,-12.6" fill="#883028"/>
  <polygon points="0.0,-15.3 2.0,-14.3 -37.2,5.3 -39.2,4.3" fill="#c85040"/>
  <polygon points="2.0,-12.6 2.0,-14.3 -37.2,5.3 -37.2,7.0" fill="#b04038"/>
  <polygon points="-39.2,6.0 -39.2,4.3 -37.2,5.3 -37.2,7.0" fill="#883028"/>
  <polygon points="78.4,-15.3 80.4,-14.3 41.2,5.3 39.2,4.3" fill="#c85040"/>
  <polygon points="80.4,-12.6 80.4,-14.3 41.2,5.3 41.2,7.0" fill="#b04038"/>
  <polygon points="39.2,6.0 39.2,4.3 41.2,5.3 41.2,7.0" fill="#883028"/>
  <polygon points="0.0,-80.9 39.2,-61.3 37.2,-60.3 -2.0,-79.9" fill="#c85040"/>
  <polygon points="39.2,-59.6 39.2,-61.3 37.2,-60.3 37.2,-58.6" fill="#b04038"/>
  <polygon points="-2.0,-78.2 -2.0,-79.9 37.2,-60.3 37.2,-58.6" fill="#883028"/>
  <polygon points="-39.2,-61.3 0.0,-41.7 -2.0,-40.7 -41.2,-60.3" fill="#c85040"/>
  <polygon points="0.0,-40.0 0.0,-41.7 -2.0,-40.7 -2.0,-39.0" fill="#b04038"/>
  <polygon points="-41.2,-58.6 -41.2,-60.3 -2.0,-40.7 -2.0,-39.0" fill="#883028"/>
  <polygon points="0.0,-80.9 2.0,-79.9 -37.2,-60.3 -39.2,-61.3" fill="#c85040"/>
  <polygon points="2.0,-78.2 2.0,-79.9 -37.2,-60.3 -37.2,-58.6" fill="#b04038"/>
  <polygon points="-39.2,-59.6 -39.2,-61.3 -37.2,-60.3 -37.2,-58.6" fill="#883028"/>
  <polygon points="39.2,-61.3 41.2,-60.3 2.0,-40.7 0.0,-41.7" fill="#c85040"/>
  <polygon points="41.2,-58.6 41.2,-60.3 2.0,-40.7 2.0,-39.0" fill="#b04038"/>
  <polygon points="0.0,-40.0 0.0,-41.7 2.0,-40.7 2.0,-39.0" fill="#883028"/>
  <polygon points="-58.8,54.6 -33.6,61.6 -50.4,58.4 -67.2,61.6" fill="#d8c878"/>
  <polygon points="-33.6,61.6 -39.2,70.0 -50.4,58.4" fill="#c8b868"/>
  <polygon points="-67.2,61.6 -50.4,58.4 -39.2,70.0 -56.0,70.0" fill="#b8a858"/>
  <polygon points="-39.2,71.6 -11.2,85.6 -15.4,87.7 -43.4,73.7" fill="#333"/>
  <polygon points="-11.2,88.2 -11.2,85.6 -15.4,87.7 -15.4,90.3" fill="#2a2a2a"/>
  <polygon points="-43.4,76.3 -43.4,73.7 -15.4,87.7 -15.4,90.3" fill="#222"/>
  <polygon points="-23.8,63.9 4.2,77.9 0.0,80.0 -28.0,66.0" fill="#333"/>
  <polygon points="4.2,80.5 4.2,77.9 0.0,80.0 0.0,82.6" fill="#2a2a2a"/>
  <polygon points="-28.0,68.6 -28.0,66.0 0.0,80.0 0.0,82.6" fill="#222"/>
  <polygon points="-25.2,57.6 0.0,70.2 -14.0,77.2 -39.2,64.6" fill="#e8a020"/>
  <polygon points="0.0,78.6 0.0,70.2 -14.0,77.2 -14.0,85.6" fill="#c88818"/>
  <polygon points="-39.2,73.0 -39.2,64.6 -14.0,77.2 -14.0,85.6" fill="#b07810"/>
  <polygon points="-22.8,58.5 -22.8,53.9 -14.4,58.1 -14.4,62.7" fill="#384858"/>
  <polygon points="-14.4,62.7 -14.4,58.1 -22.4,62.1 -22.4,66.7" fill="#2a3848"/>
  <polygon points="-23.1,53.4 -13.3,58.3 -22.4,62.8 -32.2,57.9" fill="#f0b030"/>
  <polygon points="-6.3,72.5 -6.3,71.7 10.5,86.6 10.5,87.3" fill="#c88818"/>
  <polygon points="9.8,87.5 9.8,84.1 15.4,88.1 15.4,90.3" fill="#888"/>
  <polygon points="15.4,90.3 15.4,88.1 9.8,90.9 9.8,93.1" fill="#777"/>
  <polygon points="-91.0,48.7 -89.9,49.3 -91.0,49.8 -92.1,49.3" fill="#888"/>
  <polygon points="-89.9,60.1 -89.9,49.3 -91.0,49.8 -91.0,60.6" fill="#777"/>
  <polygon points="-92.1,60.1 -92.1,49.3 -91.0,49.8 -91.0,60.6" fill="#666"/>
  <polygon points="-63.0,62.7 -61.9,63.3 -63.0,63.8 -64.1,63.3" fill="#888"/>
  <polygon points="-61.9,74.1 -61.9,63.3 -63.0,63.8 -63.0,74.6" fill="#777"/>
  <polygon points="-64.1,74.1 -64.1,63.3 -63.0,63.8 -63.0,74.6" fill="#666"/>
  <polygon points="-35.0,76.7 -33.9,77.3 -35.0,77.8 -36.1,77.3" fill="#888"/>
  <polygon points="-33.9,88.1 -33.9,77.3 -35.0,77.8 -35.0,88.6" fill="#777"/>
  <polygon points="-36.1,88.1 -36.1,77.3 -35.0,77.8 -35.0,88.6" fill="#666"/>
  <polygon points="-7.0,90.7 -5.9,91.3 -7.0,91.8 -8.1,91.3" fill="#888"/>
  <polygon points="-5.9,102.1 -5.9,91.3 -7.0,91.8 -7.0,102.6" fill="#777"/>
  <polygon points="-8.1,102.1 -8.1,91.3 -7.0,91.8 -7.0,102.6" fill="#666"/>
  <polygon points="-89.9,58.3 -89.9,50.5 -63.0,63.9 -63.0,71.7" fill="#e87830"/>
  <polygon points="-91.0,58.8 -91.0,51.0 -64.1,64.5 -64.1,72.3" fill="#d06828"/>
  <polygon points="-61.9,72.3 -61.9,64.5 -35.0,77.9 -35.0,85.7" fill="#e87830"/>
  <polygon points="-63.0,72.8 -63.0,65.0 -36.1,78.5 -36.1,86.3" fill="#d06828"/>
  <polygon points="-33.9,86.3 -33.9,78.5 -7.0,91.9 -7.0,99.7" fill="#e87830"/>
  <polygon points="-35.0,86.8 -35.0,79.0 -8.1,92.5 -8.1,100.3" fill="#d06828"/>
  <polygon points="53.2,64.2 70.0,72.6 53.2,81.0 36.4,72.6" fill="#a09080"/>
  <polygon points="70.0,79.8 70.0,72.6 53.2,81.0 53.2,88.2" fill="#887060"/>
  <polygon points="36.4,79.8 36.4,72.6 53.2,81.0 53.2,88.2" fill="#907060"/>
  <polygon points="53.2,63.8 67.2,70.8 53.2,77.8 39.2,70.8" fill="#c8a868"/>
  <polygon points="67.2,72.6 67.2,70.8 53.2,77.8 53.2,79.6" fill="#b09050"/>
  <polygon points="39.2,72.6 39.2,70.8 53.2,77.8 53.2,79.6" fill="#a88848"/>
  <polygon points="25.2,77.2 46.2,87.7 39.2,91.2 18.2,80.7" fill="#e87030"/>
  <polygon points="46.2,93.1 46.2,87.7 39.2,91.2 39.2,96.6" fill="#d06028"/>
  <polygon points="18.2,86.1 18.2,80.7 39.2,91.2 39.2,96.6" fill="#c05020"/>
  <polygon points="0.0,-104.1 7.8,-100.2 0.0,-96.3 -7.8,-100.2" fill="#f0b830"/>
  <polygon points="7.8,-93.0 7.8,-100.2 0.0,-96.3 0.0,-89.1" fill="#c88818"/>
  <polygon points="-7.8,-93.0 -7.8,-100.2 0.0,-96.3 0.0,-89.1" fill="#b07810"/>
  <polygon points="-0.7,-103.3 -0.7,-104.7 97.3,-55.7 97.3,-54.3" fill="#e8a020"/>
  <polygon points="-2.4,-102.4 -2.4,-103.8 95.6,-54.8 95.6,-53.4" fill="#b07810"/>
  <polygon points="-0.7,-104.7 97.3,-55.7 95.6,-54.8 -2.4,-103.8" fill="#f0b830"/>
  <polygon points="-25.9,-115.9 -25.9,-117.3 -0.7,-104.7 -0.7,-103.3" fill="#e8a020"/>
  <polygon points="-24.5,-116.6 -17.5,-113.1 -22.4,-110.6 -29.4,-114.1" fill="#606060"/>
  <polygon points="-17.5,-107.1 -17.5,-113.1 -22.4,-110.6 -22.4,-104.6" fill="#505050"/>
  <polygon points="-29.4,-108.1 -29.4,-114.1 -22.4,-110.6 -22.4,-104.6" fill="#484848"/>
  <polygon points="75.6,-64.4 75.6,-26.6 75.9,-26.5 75.9,-64.3" fill="#444"/>
  <polygon points="61.6,-35.2 96.6,-17.7 95.2,-17.0 60.2,-34.5" fill="#c85040"/>
  <polygon points="96.6,-16.5 96.6,-17.7 95.2,-17.0 95.2,-15.8" fill="#b04038"/>
  <polygon points="60.2,-33.3 60.2,-34.5 95.2,-17.0 95.2,-15.8" fill="#883028"/>
</svg>