<svg xmlns="http://www.w3.org/2000/svg" viewBox="-113 -82 436 270" width="436" height="270">
  <polygon points="42.0,-31.4 315.0,105.1 168.0,178.6 -105.0,42.1" fill="#a8cce0"/>
  <polygon points="315.0,106.3 315.0,105.1 168.0,178.6 168.0,179.8" fill="#88acc0"/>
  <polygon points="-105.0,43.3 -105.0,42.1 168.0,178.6 168.0,179.8" fill="#7898b0"/>
  <polygon points="42.0,-38.6 252.0,66.4 207.2,88.8 -2.8,-16.2" fill="#b0a898"/>
  <polygon points="-2.8,-9.0 -2.8,-16.2 207.2,88.8 207.2,96.0" fill="#888078"/>
  <polygon points="252.0,73.6 252.0,66.4 207.2,88.8 207.2,96.0" fill="#908878"/>
  <polygon points="77.0,-14.2 98.0,-3.7 95.9,-2.7 74.9,-13.2" fill="#d8c050"/>
  <polygon points="119.0,6.8 140.0,17.3 137.9,18.3 116.9,7.8" fill="#d8c050"/>
  <polygon points="161.0,27.8 182.0,38.3 179.9,39.3 158.9,28.8" fill="#d8c050"/>
  <polygon points="119.0,6.9 119.0,-67.5 123.2,-65.4 123.2,9.0" fill="#e07020"/>
  <polygon points="123.2,9.0 123.2,-65.4 119.0,-63.3 119.0,11.1" fill="#c06018"/>
  <polygon points="114.8,9.0 114.8,-65.4 119.0,-63.3 119.0,11.1" fill="#a05010"/>
  <polygon points="147.0,20.9 147.0,-53.5 151.2,-51.4 151.2,23.0" fill="#e07020"/>
  <polygon points="151.2,23.0 151.2,-51.4 147.0,-49.3 147.0,25.1" fill="#c06018"/>
  <polygon points="142.8,23.0 142.8,-51.4 147.0,-49.3 147.0,25.1" fill="#a05010"/>
  <polygon points="83.3,24.8 83.3,-49.7 87.5,-47.6 87.5,26.8" fill="#e07020"/>
  <polygon points="87.5,26.8 87.5,-47.6 83.3,-45.5 83.3,28.9" fill="#c06018"/>
  <polygon points="79.1,26.8 79.1,-47.6 83.3,-45.5 83.3,28.9" fill="#a05010"/>
  <polygon points="111.3,38.8 111.3,-35.6 115.5,-33.6 115.5,40.8" fill="#e07020"/>
  <polygon points="115.5,40.8 115.5,-33.6 111.3,-31.5 111.3,42.9" fill="#c06018"/>
  <polygon points="107.1,40.8 107.1,-33.6 111.3,-31.5 111.3,42.9" fill="#a05010"/>
  <polygon points="119.0,-69.9 151.2,-53.8 147.0,-51.7 114.8,-67.8" fill="#f08030"/>
  <polygon points="151.2,-51.4 151.2,-53.8 147.0,-51.7 147.0,-49.3" fill="#c06018"/>
  <polygon points="114.8,-65.4 114.8,-67.8 147.0,-51.7 147.0,-49.3" fill="#a05010"/>
  <polygon points="83.3,-52.1 115.5,-36.0 111.3,-33.9 79.1,-50.0" fill="#f08030"/>
  <polygon points="115.5,-33.6 115.5,-36.0 111.3,-33.9 111.3,-31.5" fill="#c06018"/>
  <polygon points="79.1,-47.6 79.1,-50.0 111.3,-33.9 111.3,-31.5" fill="#a05010"/>
  <polygon points="0.0,0.0 0.0,-12.0 196.0,86.0 210.0,121.0 210.0,133.0 196.0,98.0" fill="#1a2744"/>
  <polygon points="0.0,0.0 0.0,-3.0 196.0,95.0 210.0,130.0 210.0,133.0 196.0,98.0" fill="#8b2020"/>
  <polygon points="-56.0,28.0 -56.0,16.0 140.0,114.0 210.0,121.0 210.0,133.0 140.0,126.0" fill="#152240"/>
  <polygon points="-56.0,28.0 -56.0,25.0 140.0,123.0 210.0,130.0 210.0,133.0 140.0,126.0" fill="#6b1818"/>
  <polygon points="0.0,0.0 0.0,-12.0 -56.0,16.0 -56.0,28.0" fill="#1e3054"/>
  <polygon points="0.0,-12.0 196.0,86.0 210.0,121.0 140.0,114.0 -56.0,16.0" fill="#c8c4c0"/>
  <polygon points="0.0,-12.0 196.0,86.0 210.0,121.0 210.0,121.5 196.0,86.5 0.0,-11.5" fill="#0e1520"/>
  <polygon points="210.0,121.0 140.0,114.0 -56.0,16.0 -56.0,16.5 140.0,114.5 210.0,121.5" fill="#0a1018"/>
  <polygon points="206.5,94.8 206.5,93.0 210.0,119.2 210.0,121.0" fill="#b0aca8"/>
  <polygon points="157.5,119.2 157.5,117.5 210.0,119.2 210.0,121.0" fill="#a09c98"/>
  <polygon points="206.5,93.0 210.0,119.2 157.5,117.5" fill="#ccc8c4"/>
  <polygon points="32.9,-1.7 46.9,5.3 35.0,11.3 21.0,4.3" fill="#e05040"/>
  <polygon points="47.3,5.6 61.3,12.6 49.4,18.5 35.4,11.5" fill="#3090d8"/>
  <polygon points="20.6,4.5 34.6,11.5 22.7,17.5 8.7,10.5" fill="#3090d8"/>
  <polygon points="61.7,12.8 75.7,19.8 63.8,25.7 49.8,18.7" fill="#e08030"/>
  <polygon points="35.0,11.7 49.0,18.7 37.1,24.7 23.1,17.7" fill="#f0b030"/>
  <polygon points="8.3,10.7 22.3,17.7 10.4,23.6 -3.6,16.6" fill="#28a8b8"/>
  <polygon points="76.2,20.0 90.2,27.0 78.3,32.9 64.3,25.9" fill="#28a8b8"/>
  <polygon points="49.4,18.9 63.4,25.9 51.5,31.9 37.5,24.9" fill="#28a8b8"/>
  <polygon points="22.7,17.9 36.7,24.9 24.8,30.8 10.8,23.8" fill="#e05040"/>
  <polygon points="-4.1,16.8 9.9,23.8 -2.0,29.8 -16.0,22.8" fill="#f0b030"/>
  <polygon points="-16.0,32.4 -16.0,22.8 -2.0,29.8 -2.0,39.4" fill="#e8a020"/>
  <polygon points="90.6,27.2 104.6,34.2 92.7,40.1 78.7,33.1" fill="#f0b030"/>
  <polygon points="63.8,26.1 77.8,33.1 65.9,39.1 51.9,32.1" fill="#e05040"/>
  <polygon points="37.1,25.1 51.1,32.1 39.2,38.0 25.2,31.0" fill="#30b858"/>
  <polygon points="10.4,24.0 24.4,31.0 12.5,37.0 -1.5,30.0" fill="#e08030"/>
  <polygon points="-1.5,39.6 -1.5,30.0 12.5,37.0 12.5,46.6" fill="#d47020"/>
  <polygon points="105.0,34.4 119.0,41.4 107.1,47.4 93.1,40.3" fill="#30b858"/>
  <polygon points="78.3,33.4 92.3,40.4 80.4,46.3 66.4,39.3" fill="#9060b0"/>
  <polygon points="51.5,32.3 65.5,39.3 53.6,45.2 39.6,38.2" fill="#3090d8"/>
  <polygon points="24.8,31.3 38.8,38.3 26.9,44.2 12.9,37.2" fill="#3090d8"/>
  <polygon points="12.9,46.8 12.9,37.2 26.9,44.2 26.9,53.8" fill="#2878c0"/>
  <polygon points="119.4,41.6 133.4,48.6 121.5,54.6 107.5,47.6" fill="#9060b0"/>
  <polygon points="92.7,40.6 106.7,47.6 94.8,53.5 80.8,46.5" fill="#e08030"/>
  <polygon points="65.9,39.5 79.9,46.5 68.0,52.5 54.0,45.5" fill="#e08030"/>
  <polygon points="39.2,38.5 53.2,45.5 41.3,51.4 27.3,44.4" fill="#9060b0"/>
  <polygon points="27.3,54.0 27.3,44.4 41.3,51.4 41.3,61.0" fill="#8050a0"/>
  <polygon points="133.8,48.8 147.8,55.8 135.9,61.8 121.9,54.8" fill="#3090d8"/>
  <polygon points="107.1,47.8 121.1,54.8 109.2,60.7 95.2,53.7" fill="#30b858"/>
  <polygon points="80.4,46.7 94.4,53.7 82.5,59.7 68.5,52.7" fill="#f0b030"/>
  <polygon points="53.6,45.7 67.6,52.7 55.7,58.6 41.7,51.6" fill="#e05040"/>
  <polygon points="41.7,61.2 41.7,51.6 55.7,58.6 55.7,68.2" fill="#d44030"/>
  <polygon points="148.3,56.0 162.3,63.0 150.4,69.0 136.4,62.0" fill="#f0b030"/>
  <polygon points="121.5,55.0 135.5,62.0 123.6,67.9 109.6,60.9" fill="#28a8b8"/>
  <polygon points="94.8,53.9 108.8,60.9 96.9,66.9 82.9,59.9" fill="#3090d8"/>
  <polygon points="68.0,52.9 82.0,59.9 70.1,65.8 56.1,58.8" fill="#28a8b8"/>
  <polygon points="56.1,68.4 56.1,58.8 70.1,65.8 70.1,75.4" fill="#2090a0"/>
  <polygon points="162.7,63.2 176.7,70.2 164.8,76.2 150.8,69.2" fill="#28a8b8"/>
  <polygon points="135.9,62.2 149.9,69.2 138.0,75.1 124.0,68.1" fill="#e05040"/>
  <polygon points="109.2,61.1 123.2,68.1 111.3,74.1 97.3,67.1" fill="#e08030"/>
  <polygon points="82.5,60.1 96.5,67.1 84.6,73.0 70.6,66.0" fill="#f0b030"/>
  <polygon points="70.6,75.6 70.6,66.0 84.6,73.0 84.6,82.6" fill="#e8a020"/>
  <polygon points="177.1,70.4 191.1,77.4 179.2,83.4 165.2,76.4" fill="#e05040"/>
  <polygon points="191.1,87.0 191.1,77.4 179.2,83.4 179.2,93.0" fill="#c43830"/>
  <polygon points="150.4,69.4 164.4,76.4 152.5,82.3 138.5,75.3" fill="#e08030"/>
  <polygon points="123.6,68.3 137.6,75.3 125.7,81.3 111.7,74.3" fill="#9060b0"/>
  <polygon points="96.9,67.3 110.9,74.3 99.0,80.2 85.0,73.2" fill="#30b858"/>
  <polygon points="85.0,82.9 85.0,73.2 99.0,80.2 99.0,89.9" fill="#28a048"/>
  <polygon points="164.8,76.6 178.8,83.6 166.9,89.6 152.9,82.6" fill="#9060b0"/>
  <polygon points="178.8,93.2 178.8,83.6 166.9,89.6 166.9,99.2" fill="#7848a0"/>
  <polygon points="138.0,75.6 152.0,82.6 140.1,88.5 126.1,81.5" fill="#e05040"/>
  <polygon points="111.3,74.5 125.3,81.5 113.4,87.5 99.4,80.5" fill="#3090d8"/>
  <polygon points="99.4,90.1 99.4,80.5 113.4,87.5 113.4,97.1" fill="#2878c0"/>
  <polygon points="152.5,82.8 166.5,89.8 154.6,95.7 140.6,88.7" fill="#f0b030"/>
  <polygon points="166.5,99.4 166.5,89.8 154.6,95.7 154.6,105.3" fill="#d8a020"/>
  <polygon points="125.7,81.7 139.7,88.7 127.8,94.7 113.8,87.7" fill="#9060b0"/>
  <polygon points="113.8,97.3 113.8,87.7 127.8,94.7 127.8,104.3" fill="#8050a0"/>
  <polygon points="140.1,88.9 154.1,95.9 142.2,101.9 128.2,94.9" fill="#28a8b8"/>
  <polygon points="128.2,104.5 128.2,94.9 142.2,101.9 142.2,111.5" fill="#2090a0"/>
  <polygon points="154.1,105.5 154.1,95.9 142.2,101.9 142.2,111.5" fill="#2090a0"/>
  <polygon points="210.0,134.8 215.6,135.2 210.0,131.2" fill="#1a2744"/>
  <polygon points="12.6,11.1 12.6,9.3 16.8,11.4 16.8,13.2" fill="#999"/>
  <polygon points="-9.8,22.3 -9.8,20.5 -5.6,22.6 -5.6,24.4" fill="#999"/>
  <polygon points="-4.2,-6.4 -4.2,-25.6 16.8,-15.1 16.8,4.1" fill="#d4d0cc"/>
  <polygon points="16.8,4.1 16.8,-15.1 -23.8,5.2 -23.8,24.4" fill="#bbb7b2"/>
  <polygon points="-44.8,13.9 -44.8,-5.3 -23.8,5.2 -23.8,24.4" fill="#aaa6a1"/>
  <polygon points="-4.2,-25.6 16.8,-15.1 -23.8,5.2 -44.8,-5.3" fill="#e4e0dc"/>
  <polygon points="-6.3,-21.8 -6.3,-29.0 9.1,-21.3 9.1,-14.1" fill="#ddd9d5"/>
  <polygon points="9.1,-14.1 9.1,-21.3 -21.7,-5.9 -21.7,1.4" fill="#ccc8c4"/>
  <polygon points="-37.1,-6.4 -37.1,-13.6 -21.7,-5.9 -21.7,1.4" fill="#bbb7b2"/>
  <polygon points="-6.3,-29.0 9.1,-21.3 -21.7,-5.9 -37.1,-13.6" fill="#edeae6"/>
  <polygon points="7.0,-14.2 7.0,-17.8 -19.6,-4.5 -19.6,-0.9" fill="#1e2d40"/>
  <polygon points="11.2,0.9 11.2,-3.3 5.6,-0.5 5.6,3.7" fill="#1e2d40"/>
  <polygon points="1.4,5.8 1.4,1.6 -4.2,4.4 -4.2,8.6" fill="#1e2d40"/>
  <polygon points="-8.4,10.7 -8.4,6.5 -14.0,9.3 -14.0,13.5" fill="#1e2d40"/>
  <polygon points="-7.7,-22.0 -7.7,-30.4 -12.6,-27.9 -12.6,-19.5" fill="#d44030"/>
  <polygon points="-17.5,-22.0 -17.5,-30.4 -12.6,-27.9 -12.6,-19.5" fill="#b83028"/>
  <polygon points="-12.6,-32.8 -7.7,-30.4 -12.6,-27.9 -17.5,-30.4" fill="#333"/>
  <polygon points="-7.7,-26.6 -7.7,-27.5 -12.6,-25.1 -12.6,-24.1" fill="#eee"/>
  <polygon points="-17.5,-26.6 -17.5,-27.5 -12.6,-25.1 -12.6,-24.1" fill="#ddd"/>
  <polygon points="117.6,-66.4 144.2,-53.1 112.7,-37.4 86.1,-50.7" fill="#f08030"/>
  <polygon points="144.2,-45.9 144.2,-53.1 112.7,-37.4 112.7,-30.2" fill="#c06018"/>
  <polygon points="86.1,-43.5 86.1,-50.7 112.7,-37.4 112.7,-30.2" fill="#a05010"/>
  <polygon points="79.8,-49.6 79.8,-51.8 0.7,-12.2 0.7,-10.0" fill="#e07020"/>
  <polygon points="79.8,-51.8 82.3,-50.5 3.2,-11.0 0.7,-12.2" fill="#f08030"/>
  <polygon points="82.3,-48.3 82.3,-50.5 3.2,-11.0 3.2,-8.8" fill="#c06018"/>
  <polygon points="108.1,-35.5 108.1,-37.6 29.0,1.9 29.0,4.1" fill="#e07020"/>
  <polygon points="108.1,-37.6 110.6,-36.4 31.5,3.2 29.0,1.9" fill="#f08030"/>
  <polygon points="110.6,-34.2 110.6,-36.4 31.5,3.2 31.5,5.3" fill="#c06018"/>
  <polygon points="2.8,-13.3 33.6,2.1 31.5,3.2 0.7,-12.2" fill="#f08030"/>
  <polygon points="33.6,4.3 33.6,2.1 31.5,3.2 31.5,5.3" fill="#c06018"/>
  <polygon points="0.7,-10.0 0.7,-12.2 31.5,3.2 31.5,5.3" fill="#a05010"/>
  <polygon points="123.9,-73.8 126.4,-72.6 122.2,-70.5 119.7,-71.7" fill="#f08030"/>
  <polygon points="152.2,-59.7 154.7,-58.4 150.5,-56.3 148.0,-57.6" fill="#f08030"/>
  <polygon points="55.9,30.7 55.9,-24.5 56.1,-24.3 56.1,30.9" fill="#444"/>
  <polygon points="55.3,24.1 69.3,31.2 56.7,37.4 42.7,30.4" fill="#e87030"/>
  <polygon points="69.3,32.1 69.3,31.2 56.7,37.4 56.7,38.4" fill="#c86020"/>
  <polygon points="42.7,31.4 42.7,30.4 56.7,37.4 56.7,38.4" fill="#b85018"/>
</svg>