<svg xmlns="http://www.w3.org/2000/svg" viewBox="-134 -52 268 181" width="268" height="181">
  <polygon points="0.0,-6.4 126.0,56.6 0.0,119.6 -126.0,56.6" fill="#68a848"/>
  <polygon points="126.0,57.8 126.0,56.6 0.0,119.6 0.0,120.8" fill="#508838"/>
  <polygon points="-126.0,57.8 -126.0,56.6 0.0,119.6 0.0,120.8" fill="#408028"/>
  <polygon points="109.2,48.0 126.0,56.4 0.0,119.4 -16.8,111.0" fill="#c8c0b0"/>
  <polygon points="36.4,67.4 53.2,75.8 39.2,82.8 22.4,74.4" fill="#c0b8a8"/>
  <polygon points="-98.0,36.4 -95.6,37.5 -97.3,38.4 -99.7,37.2" fill="#705838"/>
  <polygon points="-95.6,56.9 -95.6,37.5 -97.3,38.4 -97.3,57.7" fill="#705838"/>
  <polygon points="-99.7,56.6 -99.7,37.2 -97.3,38.4 -97.3,57.7" fill="#604830"/>
  <polygon points="-88.8,50.0 -101.1,48.9 -111.3,44.2 -113.6,38.0 -106.5,34.1 -94.3,35.2 -84.0,40.8 -81.7,46.9" fill="#1e5820"/>
  <polygon points="-89.2,47.0 -100.8,45.9 -110.6,41.5 -112.8,35.6 -106.1,31.9 -94.5,33.0 -84.7,38.3 -82.5,44.1" fill="#287028"/>
  <polygon points="-90.7,43.0 -100.2,42.1 -108.2,38.5 -110.0,33.8 -104.6,30.7 -95.1,31.6 -87.2,36.0 -85.3,40.7" fill="#329838"/>
  <polygon points="-93.3,38.6 -99.4,38.0 -104.6,35.9 -105.7,32.8 -102.1,30.6 -95.9,31.1 -90.7,34.1 -89.7,37.2" fill="#46b048"/>
  <polygon points="0.0,21.0 0.0,-12.6 64.4,19.6 64.4,53.2" fill="#e8e0d0"/>
  <polygon points="7.0,14.9 7.0,-0.7 23.8,7.7 23.8,23.3" fill="#88b8d8"/>
  <polygon points="4.9,13.8 4.9,-1.8 7.0,-0.7 7.0,14.9" fill="#4a6070"/>
  <polygon points="23.8,23.3 23.8,7.7 25.9,8.7 25.9,24.3" fill="#4a6070"/>
  <polygon points="39.2,31.0 39.2,15.4 56.0,23.8 56.0,39.4" fill="#88b8d8"/>
  <polygon points="37.1,29.9 37.1,14.3 39.2,15.4 39.2,31.0" fill="#4a6070"/>
  <polygon points="56.0,39.4 56.0,23.8 58.1,24.9 58.1,40.5" fill="#4a6070"/>
  <polygon points="64.4,53.2 64.4,19.6 -5.6,54.6 -5.6,88.2" fill="#d8d0c0"/>
  <polygon points="64.4,53.2 64.4,50.6 -5.6,85.6 -5.6,88.2" fill="#7a7068"/>
  <polygon points="64.4,19.6 29.4,11.9 -5.6,54.6" fill="#d0c8b8"/>
  <polygon points="35.0,67.9 35.0,44.5 23.8,50.1 23.8,73.5" fill="#5a3020"/>
  <polygon points="25.6,62.1 25.6,61.2 24.6,61.7 24.6,62.6" fill="#d8a838"/>
  <polygon points="35.8,44.1 35.8,43.1 23.0,49.6 23.0,50.5" fill="#f0ece8"/>
  <polygon points="58.9,45.7 58.9,30.1 56.7,31.2 56.7,46.8" fill="#4a6070"/>
  <polygon points="42.0,54.2 42.0,38.6 39.8,39.7 39.8,55.3" fill="#4a6070"/>
  <polygon points="56.7,46.8 56.7,31.2 42.0,38.6 42.0,54.2" fill="#6898b8"/>
  <polygon points="49.7,50.3 49.7,34.7 49.0,35.1 49.0,50.7" fill="#f0ece8"/>
  <polygon points="56.7,39.3 56.7,38.8 42.0,46.2 42.0,46.6" fill="#f0ece8"/>
  <polygon points="19.0,65.7 19.0,50.1 16.8,51.2 16.8,66.8" fill="#4a6070"/>
  <polygon points="2.1,74.2 2.1,58.6 -0.1,59.7 -0.1,75.3" fill="#4a6070"/>
  <polygon points="16.8,66.8 16.8,51.2 2.1,58.6 2.1,74.2" fill="#6898b8"/>
  <polygon points="9.8,70.3 9.8,54.7 9.1,55.1 9.1,70.7" fill="#f0ece8"/>
  <polygon points="16.8,59.2 16.8,58.8 2.1,66.1 2.1,66.6" fill="#f0ece8"/>
  <polygon points="-70.0,56.0 -70.0,22.4 -5.6,54.6 -5.6,88.2" fill="#c8c0b0"/>
  <polygon points="-70.0,56.0 -70.0,53.4 -5.6,85.6 -5.6,88.2" fill="#6a6058"/>
  <polygon points="-52.9,54.3 -52.9,38.7 -50.4,40.0 -50.4,55.6" fill="#3a5060"/>
  <polygon points="-30.8,65.4 -30.8,49.8 -28.3,51.1 -28.3,66.7" fill="#3a5060"/>
  <polygon points="-50.4,55.6 -50.4,40.0 -30.8,49.8 -30.8,65.4" fill="#5888a8"/>
  <polygon points="39.2,63.6 46.2,67.1 26.6,76.9 19.6,73.4" fill="#c0b8a8"/>
  <polygon points="46.2,69.3 46.2,67.1 26.6,76.9 26.6,79.1" fill="#a8a098"/>
  <polygon points="19.6,75.6 19.6,73.4 26.6,76.9 26.6,79.1" fill="#989088"/>
  <polygon points="0.0,-17.5 -39.9,-22.8 34.3,14.3 74.2,19.6" fill="#4a6878"/>
  <polygon points="-39.9,-22.8 -79.8,22.4 -5.6,59.5 34.3,14.3" fill="#385868"/>
  <polygon points="4.2,-13.5 4.2,-43.5 11.9,-39.7 11.9,-9.7" fill="#b84830"/>
  <polygon points="11.9,-9.7 11.9,-39.7 4.2,-35.8 4.2,-5.8" fill="#a04028"/>
  <polygon points="-3.5,-9.7 -3.5,-39.7 4.2,-35.8 4.2,-5.8" fill="#903820"/>
  <polygon points="4.2,-43.5 11.9,-39.7 4.2,-35.8 -3.5,-39.7" fill="#c85838"/>
  <polygon points="4.2,-44.5 13.9,-39.7 4.2,-34.8 -5.5,-39.7" fill="#888"/>
  <polygon points="98.0,42.1 98.0,41.1 -22.4,101.3 -22.4,102.3" fill="#d0c8c0"/>
  <polygon points="98.0,39.0 98.0,38.0 -22.4,98.2 -22.4,99.2" fill="#d0c8c0"/>
  <polygon points="98.0,44.8 98.0,35.8 96.3,36.6 96.3,45.6" fill="#f0ece8"/>
  <polygon points="98.0,35.8 97.2,35.0 96.3,36.6" fill="#f0ece8"/>
  <polygon points="90.7,48.4 90.7,39.4 89.0,40.3 89.0,49.3" fill="#f0ece8"/>
  <polygon points="90.7,39.4 89.9,38.7 89.0,40.3" fill="#f0ece8"/>
  <polygon points="83.4,52.1 83.4,43.1 81.8,43.9 81.8,52.9" fill="#f0ece8"/>
  <polygon points="83.4,43.1 82.6,42.3 81.8,43.9" fill="#f0ece8"/>
  <polygon points="76.2,55.7 76.2,46.7 74.5,47.6 74.5,56.6" fill="#f0ece8"/>
  <polygon points="76.2,46.7 75.3,45.9 74.5,47.6" fill="#f0ece8"/>
  <polygon points="68.9,59.4 68.9,50.4 67.2,51.2 67.2,60.2" fill="#f0ece8"/>
  <polygon points="68.9,50.4 68.0,49.6 67.2,51.2" fill="#f0ece8"/>
  <polygon points="61.6,63.0 61.6,54.0 59.9,54.8 59.9,63.8" fill="#f0ece8"/>
  <polygon points="61.6,54.0 60.8,53.2 59.9,54.8" fill="#f0ece8"/>
  <polygon points="54.3,66.6 54.3,57.6 52.6,58.5 52.6,67.5" fill="#f0ece8"/>
  <polygon points="54.3,57.6 53.5,56.9 52.6,58.5" fill="#f0ece8"/>
  <polygon points="25.2,81.2 25.2,72.2 23.5,73.0 23.5,82.0" fill="#f0ece8"/>
  <polygon points="25.2,72.2 24.4,71.4 23.5,73.0" fill="#f0ece8"/>
  <polygon points="17.9,84.8 17.9,75.8 16.2,76.7 16.2,85.7" fill="#f0ece8"/>
  <polygon points="17.9,75.8 17.1,75.1 16.2,76.7" fill="#f0ece8"/>
  <polygon points="10.6,88.5 10.6,79.5 9.0,80.3 9.0,89.3" fill="#f0ece8"/>
  <polygon points="10.6,79.5 9.8,78.7 9.0,80.3" fill="#f0ece8"/>
  <polygon points="3.4,92.1 3.4,83.1 1.7,84.0 1.7,93.0" fill="#f0ece8"/>
  <polygon points="3.4,83.1 2.5,82.3 1.7,84.0" fill="#f0ece8"/>
  <polygon points="-3.9,95.8 -3.9,86.8 -5.6,87.6 -5.6,96.6" fill="#f0ece8"/>
  <polygon points="-3.9,86.8 -4.8,86.0 -5.6,87.6" fill="#f0ece8"/>
  <polygon points="-11.2,99.4 -11.2,90.4 -12.9,91.2 -12.9,100.2" fill="#f0ece8"/>
  <polygon points="-11.2,90.4 -12.0,89.6 -12.9,91.2" fill="#f0ece8"/>
  <polygon points="-18.5,103.0 -18.5,94.0 -20.2,94.9 -20.2,103.9" fill="#f0ece8"/>
  <polygon points="-18.5,94.0 -19.3,93.3 -20.2,94.9" fill="#f0ece8"/>
  <polygon points="-120.4,53.3 -120.4,52.3 -15.4,104.8 -15.4,105.8" fill="#d0c8c0"/>
  <polygon points="-120.4,50.1 -120.4,49.2 -15.4,101.7 -15.4,102.7" fill="#d0c8c0"/>
  <polygon points="-120.4,56.0 -120.4,47.0 -118.7,47.8 -118.7,56.8" fill="#d0c8c0"/>
  <polygon points="-120.4,47.0 -119.6,46.2 -118.7,47.8" fill="#d0c8c0"/>
  <polygon points="-113.1,59.6 -113.1,50.6 -111.4,51.5 -111.4,60.5" fill="#d0c8c0"/>
  <polygon points="-113.1,50.6 -112.3,49.9 -111.4,51.5" fill="#d0c8c0"/>
  <polygon points="-105.8,63.3 -105.8,54.3 -104.2,55.1 -104.2,64.1" fill="#d0c8c0"/>
  <polygon points="-105.8,54.3 -105.0,53.5 -104.2,55.1" fill="#d0c8c0"/>
  <polygon points="-98.6,66.9 -98.6,57.9 -96.9,58.8 -96.9,67.8" fill="#d0c8c0"/>
  <polygon points="-98.6,57.9 -97.7,57.1 -96.9,58.8" fill="#d0c8c0"/>
  <polygon points="-91.3,70.6 -91.3,61.6 -89.6,62.4 -89.6,71.4" fill="#d0c8c0"/>
  <polygon points="-91.3,61.6 -90.4,60.8 -89.6,62.4" fill="#d0c8c0"/>
  <polygon points="-84.0,74.2 -84.0,65.2 -82.3,66.0 -82.3,75.0" fill="#d0c8c0"/>
  <polygon points="-84.0,65.2 -83.2,64.4 -82.3,66.0" fill="#d0c8c0"/>
  <polygon points="-76.7,77.8 -76.7,68.8 -75.0,69.7 -75.0,78.7" fill="#d0c8c0"/>
  <polygon points="-76.7,68.8 -75.9,68.1 -75.0,69.7" fill="#d0c8c0"/>
  <polygon points="-69.4,81.5 -69.4,72.5 -67.8,73.3 -67.8,82.3" fill="#d0c8c0"/>
  <polygon points="-69.4,72.5 -68.6,71.7 -67.8,73.3" fill="#d0c8c0"/>
  <polygon points="-62.2,85.1 -62.2,76.1 -60.5,77.0 -60.5,86.0" fill="#d0c8c0"/>
  <polygon points="-62.2,76.1 -61.3,75.3 -60.5,77.0" fill="#d0c8c0"/>
  <polygon points="-54.9,88.8 -54.9,79.8 -53.2,80.6 -53.2,89.6" fill="#d0c8c0"/>
  <polygon points="-54.9,79.8 -54.0,79.0 -53.2,80.6" fill="#d0c8c0"/>
  <polygon points="-47.6,92.4 -47.6,83.4 -45.9,84.2 -45.9,93.2" fill="#d0c8c0"/>
  <polygon points="-47.6,83.4 -46.8,82.6 -45.9,84.2" fill="#d0c8c0"/>
  <polygon points="-40.3,96.0 -40.3,87.0 -38.6,87.9 -38.6,96.9" fill="#d0c8c0"/>
  <polygon points="-40.3,87.0 -39.5,86.3 -38.6,87.9" fill="#d0c8c0"/>
  <polygon points="-33.0,99.7 -33.0,90.7 -31.4,91.5 -31.4,100.5" fill="#d0c8c0"/>
  <polygon points="-33.0,90.7 -32.2,89.9 -31.4,91.5" fill="#d0c8c0"/>
  <polygon points="-25.8,103.3 -25.8,94.3 -24.1,95.2 -24.1,104.2" fill="#d0c8c0"/>
  <polygon points="-25.8,94.3 -24.9,93.5 -24.1,95.2" fill="#d0c8c0"/>
  <polygon points="-18.5,107.0 -18.5,98.0 -16.8,98.8 -16.8,107.8" fill="#d0c8c0"/>
  <polygon points="-18.5,98.0 -17.6,97.2 -16.8,98.8" fill="#d0c8c0"/>
  <polygon points="37.8,66.5 42.7,65.0 30.1,71.3 25.2,72.8" fill="#2e6c30"/>
  <polygon points="25.2,72.8 25.2,69.5 30.1,72.0 30.1,75.2" fill="#225828"/>
  <polygon points="37.2,64.0 42.1,63.2 30.7,69.0 26.9,69.2" fill="#46a444"/>
  <polygon points="20.3,75.2 25.2,73.8 13.3,79.7 8.4,81.2" fill="#2e6c30"/>
  <polygon points="8.4,81.2 8.4,77.9 13.3,80.3 13.3,83.6" fill="#225828"/>
  <polygon points="19.7,72.8 24.6,72.0 13.9,77.4 10.1,77.6" fill="#46a444"/>
  <polygon points="-5.6,92.4 -5.6,73.2 -4.5,73.8 -4.5,93.0" fill="#f0ece8"/>
  <polygon points="-19.6,99.4 -19.6,80.2 -18.5,80.8 -18.5,100.0" fill="#f0ece8"/>
  <polygon points="-5.2,73.0 -5.2,72.1 -20.0,79.6 -20.0,80.4" fill="#d0c8c0"/>
  <polygon points="-6.9,81.1 -6.9,74.5 -18.6,80.4 -18.6,87.0" fill="#d44030"/>
  <polygon points="-8.1,80.8 -8.1,75.9 -17.6,80.6 -17.6,85.5" fill="#f0f0e8"/>
  <polygon points="39.2,85.8 41.3,86.8 39.2,87.9 37.1,86.8" fill="#c0b8a8"/>
  <polygon points="41.3,87.1 41.3,86.8 39.2,87.9 39.2,88.2" fill="#a89888"/>
  <polygon points="37.1,87.1 37.1,86.8 39.2,87.9 39.2,88.2" fill="#988878"/>
  <polygon points="39.2,86.5 39.2,79.0 38.4,79.4 38.4,86.9" fill="#705038"/>
  <polygon points="38.4,86.9 38.4,79.4 39.2,79.8 39.2,87.3" fill="#5e4028"/>
  <polygon points="39.2,79.0 38.4,79.4 39.2,79.8 40.0,79.4" fill="#806038"/>
  <polygon points="41.3,79.5 41.3,77.9 38.2,79.5 38.2,81.0" fill="#9098a0"/>
  <polygon points="39.1,80.6 39.1,79.1 39.0,79.1 39.0,80.7" fill="#707880"/>
  <polygon points="38.8,80.2 38.8,79.9 38.5,80.1 38.5,80.3" fill="#403830"/>
  <polygon points="36.0,79.9 36.0,78.3 38.2,79.5 38.2,81.0" fill="#7a8088"/>
  <polygon points="39.1,76.8 36.0,78.3 37.1,78.4 40.2,76.9" fill="#a0a8b0"/>
  <polygon points="40.2,76.9 37.1,78.4 38.2,79.5 41.3,77.9" fill="#b8c0c8"/>
  <polygon points="38.7,78.1 38.7,76.7 38.5,76.8 38.5,78.2" fill="#888"/>
  <polygon points="38.5,77.4 38.5,76.7 37.7,77.1 37.7,77.9" fill="#d83020"/>
</svg>