<svg xmlns="http://www.w3.org/2000/svg" viewBox="-159 -117 293 248" width="293" height="248">
  <polygon points="-14.0,-17.2 126.0,52.8 -11.2,121.4 -151.2,51.4" fill="#b8a878"/>
  <polygon points="126.0,54.2 126.0,52.8 -11.2,121.4 -11.2,122.8" fill="#a08860"/>
  <polygon points="-151.2,52.8 -151.2,51.4 -11.2,121.4 -11.2,122.8" fill="#907850"/>
  <polygon points="0.0,-3.7 84.0,38.3 0.0,80.3 -84.0,38.3" fill="#b0a890"/>
  <polygon points="-84.0,35.7 2.8,79.1 -14.0,87.5 -100.8,44.1" fill="#988860"/>
  <polygon points="86.8,37.1 117.6,52.5 9.8,106.4 -21.0,91.0" fill="#b0a898"/>
  <polygon points="-147.0,49.0 -7.0,119.0 -11.2,121.1 -151.2,51.1" fill="#908060"/>
  <polygon points="0.0,-11.2 0.0,-95.2 4.9,-92.8 4.9,-8.8" fill="#e8a020"/>
  <polygon points="4.9,-8.8 4.9,-92.8 0.0,-90.3 0.0,-6.3" fill="#c88818"/>
  <polygon points="-4.9,-8.8 -4.9,-92.8 0.0,-90.3 0.0,-6.3" fill="#b07810"/>
  <polygon points="-72.8,36.4 -72.8,23.2 0.0,59.6 0.0,72.8" fill="#909090"/>
  <polygon points="72.8,36.4 72.8,23.2 29.1,45.0 29.1,58.2" fill="#989898"/>
  <polygon points="0.0,0.0 0.0,-26.4 3.1,-24.9 3.1,1.5" fill="#a03028"/>
  <polygon points="3.1,1.5 3.1,-24.9 0.0,-23.3 0.0,3.1" fill="#c04030"/>
  <polygon points="-3.1,1.5 -3.1,-24.9 0.0,-23.3 0.0,3.1" fill="#882820"/>
  <polygon points="0.0,-26.4 3.1,-24.9 0.0,-23.3 -3.1,-24.9" fill="#d04838"/>
  <polygon points="-36.4,18.2 -36.4,-34.6 -33.3,-33.1 -33.3,19.7" fill="#a03028"/>
  <polygon points="-33.3,19.7 -33.3,-33.1 -36.4,-31.5 -36.4,21.3" fill="#c04030"/>
  <polygon points="-39.5,19.7 -39.5,-33.1 -36.4,-31.5 -36.4,21.3" fill="#882820"/>
  <polygon points="-36.4,-34.6 -33.3,-33.1 -36.4,-31.5 -39.5,-33.1" fill="#d04838"/>
  <polygon points="-72.8,36.4 -72.8,-16.4 -69.7,-14.9 -69.7,37.9" fill="#a03028"/>
  <polygon points="-69.7,37.9 -69.7,-14.9 -72.8,-13.3 -72.8,39.5" fill="#c04030"/>
  <polygon points="-75.9,37.9 -75.9,-14.9 -72.8,-13.3 -72.8,39.5" fill="#882820"/>
  <polygon points="-72.8,-16.4 -69.7,-14.9 -72.8,-13.3 -75.9,-14.9" fill="#d04838"/>
  <polygon points="36.4,18.2 36.4,-8.2 39.5,-6.7 39.5,19.7" fill="#a03028"/>
  <polygon points="39.5,19.7 39.5,-6.7 36.4,-5.1 36.4,21.3" fill="#c04030"/>
  <polygon points="33.3,19.7 33.3,-6.7 36.4,-5.1 36.4,21.3" fill="#882820"/>
  <polygon points="36.4,-8.2 39.5,-6.7 36.4,-5.1 33.3,-6.7" fill="#d04838"/>
  <polygon points="0.0,36.4 0.0,-16.4 3.1,-14.9 3.1,37.9" fill="#a03028"/>
  <polygon points="3.1,37.9 3.1,-14.9 0.0,-13.3 0.0,39.5" fill="#c04030"/>
  <polygon points="-3.1,37.9 -3.1,-14.9 0.0,-13.3 0.0,39.5" fill="#882820"/>
  <polygon points="0.0,-16.4 3.1,-14.9 0.0,-13.3 -3.1,-14.9" fill="#d04838"/>
  <polygon points="-36.4,54.6 -36.4,1.8 -33.3,3.3 -33.3,56.1" fill="#a03028"/>
  <polygon points="-33.3,56.1 -33.3,3.3 -36.4,4.9 -36.4,57.7" fill="#c04030"/>
  <polygon points="-39.5,56.1 -39.5,3.3 -36.4,4.9 -36.4,57.7" fill="#882820"/>
  <polygon points="-36.4,1.8 -33.3,3.3 -36.4,4.9 -39.5,3.3" fill="#d04838"/>
  <polygon points="72.8,36.4 72.8,10.0 75.9,11.5 75.9,37.9" fill="#a03028"/>
  <polygon points="75.9,37.9 75.9,11.5 72.8,13.1 72.8,39.5" fill="#c04030"/>
  <polygon points="69.7,37.9 69.7,11.5 72.8,13.1 72.8,39.5" fill="#882820"/>
  <polygon points="72.8,10.0 75.9,11.5 72.8,13.1 69.7,11.5" fill="#d04838"/>
  <polygon points="36.4,54.6 36.4,28.2 39.5,29.7 39.5,56.1" fill="#a03028"/>
  <polygon points="39.5,56.1 39.5,29.7 36.4,31.3 36.4,57.7" fill="#c04030"/>
  <polygon points="33.3,56.1 33.3,29.7 36.4,31.3 36.4,57.7" fill="#882820"/>
  <polygon points="36.4,28.2 39.5,29.7 36.4,31.3 33.3,29.7" fill="#d04838"/>
  <polygon points="0.0,72.8 0.0,20.0 3.1,21.5 3.1,74.3" fill="#a03028"/>
  <polygon points="3.1,74.3 3.1,21.5 0.0,23.1 0.0,75.9" fill="#c04030"/>
  <polygon points="-3.1,74.3 -3.1,21.5 0.0,23.1 0.0,75.9" fill="#882820"/>
  <polygon points="0.0,20.0 3.1,21.5 0.0,23.1 -3.1,21.5" fill="#d04838"/>
  <polygon points="0.0,-28.3 36.4,-10.1 34.2,-9.0 -2.2,-27.2" fill="#d04838"/>
  <polygon points="36.4,-8.2 36.4,-10.1 34.2,-9.0 34.2,-7.1" fill="#c04030"/>
  <polygon points="-2.2,-25.3 -2.2,-27.2 34.2,-9.0 34.2,-7.1" fill="#882820"/>
  <polygon points="36.4,-10.1 72.8,8.1 70.6,9.2 34.2,-9.0" fill="#d04838"/>
  <polygon points="72.8,10.0 72.8,8.1 70.6,9.2 70.6,11.1" fill="#c04030"/>
  <polygon points="34.2,-7.1 34.2,-9.0 70.6,9.2 70.6,11.1" fill="#882820"/>
  <polygon points="-36.4,-10.1 0.0,8.1 -2.2,9.2 -38.6,-9.0" fill="#d04838"/>
  <polygon points="0.0,10.0 0.0,8.1 -2.2,9.2 -2.2,11.1" fill="#c04030"/>
  <polygon points="-38.6,-7.1 -38.6,-9.0 -2.2,9.2 -2.2,11.1" fill="#882820"/>
  <polygon points="0.0,8.1 36.4,26.3 34.2,27.4 -2.2,9.2" fill="#d04838"/>
  <polygon points="36.4,28.2 36.4,26.3 34.2,27.4 34.2,29.3" fill="#c04030"/>
  <polygon points="-2.2,11.1 -2.2,9.2 34.2,27.4 34.2,29.3" fill="#882820"/>
  <polygon points="-72.8,8.1 -36.4,26.3 -38.6,27.4 -75.0,9.2" fill="#d04838"/>
  <polygon points="-36.4,28.2 -36.4,26.3 -38.6,27.4 -38.6,29.3" fill="#c04030"/>
  <polygon points="-75.0,11.1 -75.0,9.2 -38.6,27.4 -38.6,29.3" fill="#882820"/>
  <polygon points="-36.4,26.3 0.0,44.5 -2.2,45.6 -38.6,27.4" fill="#d04838"/>
  <polygon points="0.0,46.4 0.0,44.5 -2.2,45.6 -2.2,47.5" fill="#c04030"/>
  <polygon points="-38.6,29.3 -38.6,27.4 -2.2,45.6 -2.2,47.5" fill="#882820"/>
  <polygon points="0.0,-28.3 2.2,-27.2 -34.2,-9.0 -36.4,-10.1" fill="#d04838"/>
  <polygon points="2.2,-25.3 2.2,-27.2 -34.2,-9.0 -34.2,-7.1" fill="#c04030"/>
  <polygon points="-36.4,-8.2 -36.4,-10.1 -34.2,-9.0 -34.2,-7.1" fill="#882820"/>
  <polygon points="-36.4,-10.1 -34.2,-9.0 -70.6,9.2 -72.8,8.1" fill="#d04838"/>
  <polygon points="-34.2,-7.1 -34.2,-9.0 -70.6,9.2 -70.6,11.1" fill="#c04030"/>
  <polygon points="-72.8,10.0 -72.8,8.1 -70.6,9.2 -70.6,11.1" fill="#882820"/>
  <polygon points="36.4,-10.1 38.6,-9.0 2.2,9.2 0.0,8.1" fill="#d04838"/>
  <polygon points="38.6,-7.1 38.6,-9.0 2.2,9.2 2.2,11.1" fill="#c04030"/>
  <polygon points="0.0,10.0 0.0,8.1 2.2,9.2 2.2,11.1" fill="#882820"/>
  <polygon points="0.0,8.1 2.2,9.2 -34.2,27.4 -36.4,26.3" fill="#d04838"/>
  <polygon points="2.2,11.1 2.2,9.2 -34.2,27.4 -34.2,29.3" fill="#c04030"/>
  <polygon points="-36.4,28.2 -36.4,26.3 -34.2,27.4 -34.2,29.3" fill="#882820"/>
  <polygon points="72.8,8.1 75.0,9.2 38.6,27.4 36.4,26.3" fill="#d04838"/>
  <polygon points="75.0,11.1 75.0,9.2 38.6,27.4 38.6,29.3" fill="#c04030"/>
  <polygon points="36.4,28.2 36.4,26.3 38.6,27.4 38.6,29.3" fill="#882820"/>
  <polygon points="36.4,26.3 38.6,27.4 2.2,45.6 0.0,44.5" fill="#d04838"/>
  <polygon points="38.6,29.3 38.6,27.4 2.2,45.6 2.2,47.5" fill="#c04030"/>
  <polygon points="0.0,46.4 0.0,44.5 2.2,45.6 2.2,47.5" fill="#882820"/>
  <polygon points="-36.4,-36.5 0.0,-18.3 -2.2,-17.2 -38.6,-35.4" fill="#d04838"/>
  <polygon points="0.0,-16.4 0.0,-18.3 -2.2,-17.2 -2.2,-15.3" fill="#c04030"/>
  <polygon points="-38.6,-33.5 -38.6,-35.4 -2.2,-17.2 -2.2,-15.3" fill="#882820"/>
  <polygon points="-72.8,-18.3 -36.4,-0.1 -38.6,1.0 -75.0,-17.2" fill="#d04838"/>
  <polygon points="-36.4,1.8 -36.4,-0.1 -38.6,1.0 -38.6,2.9" fill="#c04030"/>
  <polygon points="-75.0,-15.3 -75.0,-17.2 -38.6,1.0 -38.6,2.9" fill="#882820"/>
  <polygon points="-36.4,-0.1 0.0,18.1 -2.2,19.2 -38.6,1.0" fill="#d04838"/>
  <polygon points="0.0,20.0 0.0,18.1 -2.2,19.2 -2.2,21.1" fill="#c04030"/>
  <polygon points="-38.6,2.9 -38.6,1.0 -2.2,19.2 -2.2,21.1" fill="#882820"/>
  <polygon points="-36.4,-36.5 -34.2,-35.4 -70.6,-17.2 -72.8,-18.3" fill="#d04838"/>
  <polygon points="-34.2,-33.5 -34.2,-35.4 -70.6,-17.2 -70.6,-15.3" fill="#c04030"/>
  <polygon points="-72.8,-16.4 -72.8,-18.3 -70.6,-17.2 -70.6,-15.3" fill="#882820"/>
  <polygon points="0.0,-18.3 2.2,-17.2 -34.2,1.0 -36.4,-0.1" fill="#d04838"/>
  <polygon points="2.2,-15.3 2.2,-17.2 -34.2,1.0 -34.2,2.9" fill="#c04030"/>
  <polygon points="-36.4,1.8 -36.4,-0.1 -34.2,1.0 -34.2,2.9" fill="#882820"/>
  <polygon points="-82.6,45.5 -58.8,54.6 -70.0,50.0 -89.6,50.4" fill="#d8c878"/>
  <polygon points="-58.8,54.6 -63.0,60.9 -70.0,50.0" fill="#c8b868"/>
  <polygon points="-89.6,50.4 -70.0,50.0 -63.0,60.9 -77.0,59.5" fill="#b8a858"/>
  <polygon points="-38.6,58.5 -37.4,58.5 -37.4,59.7 -38.6,61.0 -39.9,61.0 -39.9,59.7" fill="#111"/>
  <polygon points="-38.6,58.5 -37.4,58.5 -36.2,59.0 -37.5,59.0" fill="#1a1a1a"/>
  <polygon points="-38.6,61.0 -39.9,61.0 -38.8,61.5 -37.5,61.5" fill="#1a1a1a"/>
  <polygon points="-39.9,61.0 -39.9,59.7 -38.8,60.3 -38.8,61.5" fill="#1a1a1a"/>
  <polygon points="-39.9,59.7 -38.6,58.5 -37.5,59.0 -38.8,60.3" fill="#1a1a1a"/>
  <polygon points="-37.5,59.0 -36.2,59.0 -36.2,60.3 -37.5,61.5 -38.8,61.5 -38.8,60.3" fill="#222"/>
  <polygon points="-37.4,59.5 -36.6,59.5 -36.6,60.3 -37.4,61.2 -38.3,61.2 -38.3,60.3" fill="#bbb"/>
  <polygon points="-37.4,59.8 -36.9,59.8 -36.9,60.3 -37.4,60.9 -38.0,60.9 -38.0,60.3" fill="#777"/>
  <polygon points="-37.4,60.1 -37.2,60.1 -37.2,60.3 -37.4,60.5 -37.7,60.5 -37.7,60.3" fill="#222"/>
  <polygon points="-52.2,65.3 -50.9,65.2 -50.9,66.5 -52.2,67.7 -53.4,67.8 -53.4,66.5" fill="#111"/>
  <polygon points="-52.2,65.3 -50.9,65.2 -49.8,65.8 -51.1,65.8" fill="#1a1a1a"/>
  <polygon points="-52.2,67.7 -53.4,67.8 -52.3,68.3 -51.1,68.3" fill="#1a1a1a"/>
  <polygon points="-53.4,67.8 -53.4,66.5 -52.3,67.1 -52.3,68.3" fill="#1a1a1a"/>
  <polygon points="-53.4,66.5 -52.2,65.3 -51.1,65.8 -52.3,67.1" fill="#1a1a1a"/>
  <polygon points="-51.1,65.8 -49.8,65.8 -49.8,67.1 -51.1,68.3 -52.3,68.3 -52.3,67.1" fill="#222"/>
  <polygon points="-51.0,66.2 -50.1,66.2 -50.1,67.1 -51.0,67.9 -51.8,67.9 -51.8,67.1" fill="#bbb"/>
  <polygon points="-51.0,66.5 -50.4,66.5 -50.4,67.1 -51.0,67.7 -51.6,67.7 -51.6,67.1" fill="#777"/>
  <polygon points="-51.0,66.9 -50.8,66.9 -50.8,67.1 -51.0,67.3 -51.2,67.3 -51.2,67.1" fill="#222"/>
  <polygon points="-63.8,66.1 -56.1,70.0 -56.1,66.5 -63.8,62.6" fill="#a7a195"/>
  <polygon points="-34.3,59.1 -35.9,59.9 -36.1,58.1 -39.0,59.5 -39.1,61.5 -49.4,66.7 -49.6,64.9 -52.6,66.3 -52.8,68.3 -56.1,70.0 -56.1,66.5 -45.2,61.0 -45.2,58.3 -40.7,56.1 -39.3,58.1 -34.3,56.2" fill="#c5beb0"/>
  <polygon points="-42.0,52.3 -34.3,56.2 -39.3,58.1 -47.0,54.2" fill="#e8e0d0"/>
  <polygon points="-47.0,54.2 -39.3,58.1 -40.7,56.1 -48.5,52.2" fill="#78a8c8"/>
  <polygon points="-48.5,52.2 -40.7,56.1 -45.2,58.3 -52.9,54.4" fill="#e8e0d0"/>
  <polygon points="-52.9,57.2 -45.2,61.0 -45.2,58.3 -52.9,54.4" fill="#a7a195"/>
  <polygon points="-52.3,57.2 -45.8,60.4 -45.8,58.4 -52.3,55.1" fill="#5888a8"/>
  <polygon points="-39.3,58.1 -45.2,61.0 -45.2,58.3 -40.7,56.1" fill="#78a8c8"/>
  <polygon points="-39.3,58.1 -39.7,58.3 -41.2,56.3 -40.7,56.1" fill="#c5beb0"/>
  <polygon points="-43.5,60.2 -44.0,60.4 -44.0,57.7 -43.5,57.5" fill="#c5beb0"/>
  <polygon points="-44.7,60.8 -45.2,61.0 -45.2,58.3 -44.7,58.1" fill="#c5beb0"/>
  <polygon points="-42.6,60.2 -43.7,60.7 -43.7,60.5 -42.6,60.0" fill="#bbb"/>
  <polygon points="-39.6,57.7 -39.1,58.0 -39.6,58.3 -40.2,58.0" fill="#444"/>
  <polygon points="-39.1,58.4 -39.1,58.0 -39.6,58.3 -39.6,58.7" fill="#333"/>
  <polygon points="-40.2,58.4 -40.2,58.0 -39.6,58.3 -39.6,58.7" fill="#222"/>
  <polygon points="-52.9,59.1 -63.8,64.6 -63.8,62.6 -52.9,57.2" fill="#c5beb0"/>
  <polygon points="-52.9,59.1 -45.2,63.0 -56.1,68.4 -63.8,64.6" fill="#3a4a58"/>
  <polygon points="-52.9,59.1 -45.2,63.0 -45.2,61.0 -52.9,57.2" fill="#a7a195"/>
  <polygon points="-45.2,63.0 -45.2,61.0 -56.1,66.5 -56.1,68.4" fill="#c5beb0"/>
  <polygon points="-63.8,64.6 -56.1,68.4 -56.1,66.5 -63.8,62.6" fill="#a7a195"/>
  <polygon points="-63.1,63.5 -61.3,64.4 -61.5,64.5 -63.3,63.6" fill="#e03020"/>
  <polygon points="-61.3,64.8 -61.3,64.4 -61.5,64.5 -61.5,64.9" fill="#c02818"/>
  <polygon points="-63.3,64.0 -63.3,63.6 -61.5,64.5 -61.5,64.9" fill="#b02010"/>
  <polygon points="-58.7,65.7 -56.8,66.6 -57.0,66.7 -58.8,65.8" fill="#e03020"/>
  <polygon points="-56.8,67.1 -56.8,66.6 -57.0,66.7 -57.0,67.2" fill="#c02818"/>
  <polygon points="-58.8,66.3 -58.8,65.8 -57.0,66.7 -57.0,67.2" fill="#b02010"/>
  <polygon points="-49.9,56.3 -48.2,57.1 -48.2,56.9 -49.9,56.1" fill="#d02818"/>
  <polygon points="-33.8,58.9 -34.3,59.1 -34.3,58.3 -33.8,58.1" fill="#3a4a58"/>
  <polygon points="-34.7,57.6 -33.8,58.1 -34.3,58.3 -35.2,57.9" fill="#4a5a68"/>
  <polygon points="-56.1,70.0 -56.6,70.2 -56.6,69.5 -56.1,69.2" fill="#3a4a58"/>
  <polygon points="-64.3,66.4 -56.6,70.2 -56.6,69.5 -64.3,65.6" fill="#2a3a48"/>
  <polygon points="-63.8,65.4 -56.1,69.2 -56.6,69.5 -64.3,65.6" fill="#4a5a68"/>
  <polygon points="-61.3,67.5 -59.3,68.5 -59.3,68.1 -61.3,67.1" fill="#e8d8a0"/>
  <polygon points="-56.8,33.7 -39.5,42.3 -42.0,43.6 -59.3,35.0" fill="#333"/>
  <polygon points="-39.5,44.1 -39.5,42.3 -42.0,43.6 -42.0,45.3" fill="#2a2a2a"/>
  <polygon points="-59.3,36.7 -59.3,35.0 -42.0,43.6 -42.0,45.3" fill="#222"/>
  <polygon points="-57.9,35.7 -44.3,42.5 -51.2,45.9 -64.9,39.1" fill="#444"/>
  <polygon points="-44.3,43.9 -44.3,42.5 -51.2,45.9 -51.2,47.3" fill="#3a3a3a"/>
  <polygon points="-64.9,40.5 -64.9,39.1 -51.2,45.9 -51.2,47.3" fill="#333"/>
  <polygon points="-57.4,31.9 -44.7,38.3 -51.9,41.9 -64.7,35.6" fill="#e8a020"/>
  <polygon points="-44.7,42.2 -44.7,38.3 -51.9,41.9 -51.9,45.8" fill="#c88818"/>
  <polygon points="-64.7,39.5 -64.7,35.6 -51.9,41.9 -51.9,45.8" fill="#b07810"/>
  <polygon points="-45.1,41.8 -50.6,44.5 -50.6,42.0 -45.1,39.3" fill="#444"/>
  <polygon points="-45.1,41.2 -50.6,44.0 -50.6,43.9 -45.1,41.1" fill="#222"/>
  <polygon points="-45.1,40.6 -50.6,43.3 -50.6,43.3 -45.1,40.5" fill="#222"/>
  <polygon points="-45.1,40.0 -50.6,42.7 -50.6,42.6 -45.1,39.9" fill="#222"/>
  <polygon points="-50.1,35.0 -49.4,35.4 -50.1,35.8 -50.8,35.4" fill="#444"/>
  <polygon points="-49.4,38.2 -49.4,35.4 -50.1,35.8 -50.1,38.6" fill="#333"/>
  <polygon points="-50.8,38.2 -50.8,35.4 -50.1,35.8 -50.1,38.6" fill="#222"/>
  <polygon points="-56.9,28.7 -50.1,32.1 -55.6,34.9 -62.4,31.5" fill="#f0b030"/>
  <polygon points="-50.1,36.0 -50.1,32.1 -55.6,34.9 -55.6,38.8" fill="#c88818"/>
  <polygon points="-62.4,35.4 -62.4,31.5 -55.6,34.9 -55.6,38.8" fill="#b07810"/>
  <polygon points="-50.7,35.4 -50.7,32.9 -55.0,35.1 -55.0,37.6" fill="#78a8c8"/>
  <polygon points="-61.9,34.7 -61.9,32.2 -56.1,35.1 -56.1,37.6" fill="#5888a8"/>
  <polygon points="-52.8,36.3 -52.9,36.3 -52.9,34.2 -52.8,34.1" fill="#c88818"/>
  <polygon points="-59.1,35.9 -58.9,36.0 -58.9,33.8 -59.1,33.7" fill="#b07810"/>
  <polygon points="-59.0,36.9 -58.9,36.9 -58.9,36.0 -59.0,35.9" fill="#5a3808"/>
  <polygon points="-59.5,35.4 -59.2,35.6 -59.2,35.4 -59.5,35.2" fill="#888"/>
  <polygon points="-50.8,36.1 -51.5,36.4 -51.5,35.9 -50.8,35.6" fill="#fff8c0"/>
  <polygon points="-54.1,37.7 -54.8,38.0 -54.8,37.6 -54.1,37.3" fill="#fff8c0"/>
  <polygon points="-56.8,42.9 -56.7,43.0 -56.7,40.0 -56.8,39.9" fill="#8a5a08"/>
  <polygon points="-49.7,35.8 -49.6,35.8 -56.9,39.5 -57.0,39.4" fill="#8a5a08"/>
  <polygon points="-62.9,39.3 -59.4,41.0 -60.1,41.3 -63.5,39.6" fill="#444"/>
  <polygon points="-59.4,41.3 -59.4,41.0 -60.1,41.3 -60.1,41.6" fill="#333"/>
  <polygon points="-63.5,39.9 -63.5,39.6 -60.1,41.3 -60.1,41.6" fill="#222"/>
  <polygon points="-66.2,38.4 -48.9,47.1 -51.5,48.4 -68.8,39.7" fill="#333"/>
  <polygon points="-48.9,48.8 -48.9,47.1 -51.5,48.4 -51.5,50.1" fill="#2a2a2a"/>
  <polygon points="-68.8,41.4 -68.8,39.7 -51.5,48.4 -51.5,50.1" fill="#222"/>
  <polygon points="-67.3,42.1 -67.1,42.3 -67.1,40.6 -67.3,40.4" fill="#0a0a0a"/>
  <polygon points="-65.8,42.9 -65.5,43.1 -65.5,41.3 -65.8,41.2" fill="#0a0a0a"/>
  <polygon points="-64.2,43.7 -63.9,43.8 -63.9,42.1 -64.2,42.0" fill="#0a0a0a"/>
  <polygon points="-62.6,44.5 -62.4,44.6 -62.4,42.9 -62.6,42.8" fill="#0a0a0a"/>
  <polygon points="-61.0,45.3 -60.8,45.4 -60.8,43.7 -61.0,43.6" fill="#0a0a0a"/>
  <polygon points="-59.5,46.1 -59.2,46.2 -59.2,44.5 -59.5,44.4" fill="#0a0a0a"/>
  <polygon points="-57.9,46.9 -57.6,47.0 -57.6,45.3 -57.9,45.1" fill="#0a0a0a"/>
  <polygon points="-56.3,47.6 -56.1,47.8 -56.1,46.1 -56.3,45.9" fill="#0a0a0a"/>
  <polygon points="-54.8,48.4 -54.5,48.6 -54.5,46.8 -54.8,46.7" fill="#0a0a0a"/>
  <polygon points="-53.2,49.2 -52.9,49.3 -52.9,47.6 -53.2,47.5" fill="#0a0a0a"/>
  <polygon points="-67.4,40.9 -68.1,40.0 -69.0,39.5 -69.7,39.8 -69.7,40.6 -69.0,41.4 -68.1,41.9 -67.4,41.7" fill="#1a1a1a"/>
  <polygon points="-68.5,40.4 -68.9,40.4 -68.9,40.7 -68.5,41.1 -68.2,41.1 -68.2,40.7" fill="#666"/>
  <polygon points="-50.7,49.3 -51.3,48.4 -52.3,47.9 -52.9,48.1 -52.9,48.9 -52.3,49.8 -51.3,50.3 -50.7,50.0" fill="#1a1a1a"/>
  <polygon points="-51.8,48.7 -52.2,48.7 -52.2,49.1 -51.8,49.5 -51.4,49.5 -51.4,49.1" fill="#666"/>
  <polygon points="-56.8,45.1 -56.8,43.4 -49.8,47.7 -49.8,49.5" fill="#555"/>
  <polygon points="-55.7,42.8 -48.7,47.1 -49.8,47.7 -56.8,43.4" fill="#6a6a6a"/>
  <polygon points="-48.7,48.9 -48.7,47.1 -49.8,47.7 -49.8,49.5" fill="#444"/>
  <polygon points="-55.8,43.7 -55.4,43.9 -56.6,44.5 -57.1,44.3" fill="#1a1a1a"/>
  <polygon points="-55.4,44.3 -55.4,43.9 -56.6,44.5 -56.6,44.9" fill="#111"/>
  <polygon points="-57.1,44.7 -57.1,44.3 -56.6,44.5 -56.6,44.9" fill="#000"/>
  <polygon points="-54.5,41.6 -51.2,43.9 -51.3,44.4 -54.6,42.1" fill="#666"/>
  <polygon points="-38.3,43.4 -51.8,50.1 -51.8,48.2 -38.3,41.4" fill="#888"/>
  <polygon points="-38.3,41.4 -51.8,48.2 -53.3,44.3 -39.7,37.6" fill="#9a9a9a"/>
  <polygon points="-39.7,37.6 -53.3,44.3 -52.8,44.6 -39.2,37.8" fill="#aaa"/>
  <polygon points="-51.8,50.1 -51.8,48.2 -53.3,44.3 -52.8,44.6 -51.3,50.4" fill="#666"/>
  <polygon points="-38.5,43.4 -52.0,50.2 -51.8,50.1 -38.3,43.4" fill="#bbb"/>
  <polygon points="-50.3,30.5 -50.1,30.6 -50.3,30.7 -50.6,30.6" fill="#444"/>
  <polygon points="-50.1,32.1 -50.1,30.6 -50.3,30.7 -50.3,32.2" fill="#333"/>
  <polygon points="-50.6,32.1 -50.6,30.6 -50.3,30.7 -50.3,32.2" fill="#222"/>
  <polygon points="-55.6,33.1 -55.4,33.2 -55.6,33.3 -55.8,33.2" fill="#444"/>
  <polygon points="-55.4,34.8 -55.4,33.2 -55.6,33.3 -55.6,34.9" fill="#333"/>
  <polygon points="-55.8,34.8 -55.8,33.2 -55.6,33.3 -55.6,34.9" fill="#222"/>
  <polygon points="-62.2,29.8 -61.9,29.9 -62.2,30.0 -62.4,29.9" fill="#444"/>
  <polygon points="-61.9,31.5 -61.9,29.9 -62.2,30.0 -62.2,31.6" fill="#333"/>
  <polygon points="-62.4,31.5 -62.4,29.9 -62.2,30.0 -62.2,31.6" fill="#222"/>
  <polygon points="-62.2,29.8 -55.4,33.2 -55.6,33.3 -62.4,29.9" fill="#555"/>
  <polygon points="-55.4,33.4 -55.4,33.2 -55.6,33.3 -55.6,33.5" fill="#444"/>
  <polygon points="-62.4,30.1 -62.4,29.9 -55.6,33.3 -55.6,33.5" fill="#333"/>
  <polygon points="-50.3,30.5 -50.1,30.6 -55.6,33.3 -55.8,33.2" fill="#555"/>
  <polygon points="-50.1,30.8 -50.1,30.6 -55.6,33.3 -55.6,33.5" fill="#444"/>
  <polygon points="-55.8,33.4 -55.8,33.2 -55.6,33.3 -55.6,33.5" fill="#333"/>
  <polygon points="-56.2,29.1 -55.5,29.4 -56.2,29.8 -56.9,29.4" fill="#f0a020"/>
  <polygon points="-55.5,29.8 -55.5,29.4 -56.2,29.8 -56.2,30.2" fill="#d08818"/>
  <polygon points="-56.9,29.8 -56.9,29.4 -56.2,29.8 -56.2,30.2" fill="#b07012"/>
  <polygon points="-46.2,68.3 -23.8,79.5 -26.9,81.1 -49.3,69.9" fill="#333"/>
  <polygon points="-23.8,81.6 -23.8,79.5 -26.9,81.1 -26.9,83.2" fill="#2a2a2a"/>
  <polygon points="-49.3,72.0 -49.3,69.9 -26.9,81.1 -26.9,83.2" fill="#222"/>
  <polygon points="-34.7,62.5 -12.3,73.7 -15.4,75.3 -37.8,64.1" fill="#333"/>
  <polygon points="-12.3,75.9 -12.3,73.7 -15.4,75.3 -15.4,77.4" fill="#2a2a2a"/>
  <polygon points="-37.8,66.2 -37.8,64.1 -15.4,75.3 -15.4,77.4" fill="#222"/>
  <polygon points="-36.1,64.9 -18.2,73.9 -26.6,78.1 -44.5,69.1" fill="#444"/>
  <polygon points="-18.2,75.6 -18.2,73.9 -26.6,78.1 -26.6,79.8" fill="#3a3a3a"/>
  <polygon points="-44.5,70.9 -44.5,69.1 -26.6,78.1 -26.6,79.8" fill="#333"/>
  <polygon points="-34.7,59.0 -16.7,68.0 -26.8,73.0 -44.7,64.1" fill="#e8a020"/>
  <polygon points="-16.7,73.7 -16.7,68.0 -26.8,73.0 -26.8,78.8" fill="#c88818"/>
  <polygon points="-44.7,69.8 -44.7,64.1 -26.8,73.0 -26.8,78.8" fill="#b07810"/>
  <polygon points="-33.3,54.9 -25.5,58.8 -32.8,62.4 -40.6,58.5" fill="#f0b030"/>
  <polygon points="-25.5,62.8 -25.5,58.8 -32.8,62.4 -32.8,66.5" fill="#c88818"/>
  <polygon points="-26.2,62.6 -26.2,59.5 -32.1,62.5 -32.1,65.6" fill="#78a8c8"/>
  <polygon points="-40.6,62.5 -40.6,58.5 -32.8,62.4 -32.8,66.5" fill="#b07810"/>
  <polygon points="-39.9,62.3 -39.9,59.2 -33.4,62.5 -33.4,65.6" fill="#5888a8"/>
  <polygon points="-47.6,72.8 -47.3,73.0 -47.3,70.9 -47.6,70.7" fill="#0a0a0a"/>
  <polygon points="-45.8,73.8 -45.4,73.9 -45.4,71.8 -45.8,71.7" fill="#0a0a0a"/>
  <polygon points="-43.9,74.7 -43.6,74.9 -43.6,72.8 -43.9,72.6" fill="#0a0a0a"/>
  <polygon points="-42.0,75.6 -41.7,75.8 -41.7,73.7 -42.0,73.5" fill="#0a0a0a"/>
  <polygon points="-40.2,76.6 -39.8,76.7 -39.8,74.6 -40.2,74.5" fill="#0a0a0a"/>
  <polygon points="-38.3,77.5 -38.0,77.7 -38.0,75.6 -38.3,75.4" fill="#0a0a0a"/>
  <polygon points="-36.4,78.4 -36.1,78.6 -36.1,76.5 -36.4,76.3" fill="#0a0a0a"/>
  <polygon points="-34.6,79.4 -34.2,79.5 -34.2,77.4 -34.6,77.3" fill="#0a0a0a"/>
  <polygon points="-32.7,80.3 -32.4,80.5 -32.4,78.4 -32.7,78.2" fill="#0a0a0a"/>
  <polygon points="-30.8,81.2 -30.5,81.4 -30.5,79.3 -30.8,79.1" fill="#0a0a0a"/>
  <polygon points="-29.0,82.2 -28.6,82.3 -28.6,80.2 -29.0,80.1" fill="#0a0a0a"/>
  <polygon points="-26.6,67.3 -25.9,67.6 -26.6,67.9 -27.3,67.6" fill="#444"/>
  <polygon points="-25.9,69.3 -25.9,67.6 -26.6,67.9 -26.6,69.7" fill="#333"/>
  <polygon points="-27.3,69.3 -27.3,67.6 -26.6,67.9 -26.6,69.7" fill="#222"/>
  <polygon points="-27.9,57.4 -26.8,58.0 -27.9,58.6 -29.1,58.0" fill="#ffa020"/>
  <polygon points="-26.8,58.6 -26.8,58.0 -27.9,58.6 -27.9,59.1" fill="#e08818"/>
  <polygon points="-29.1,58.6 -29.1,58.0 -27.9,58.6 -27.9,59.1" fill="#b07012"/>
  <polygon points="-27.9,58.3 -27.4,58.6 -27.9,58.9 -28.5,58.6" fill="#444"/>
  <polygon points="-27.4,58.8 -27.4,58.6 -27.9,58.9 -27.9,59.0" fill="#333"/>
  <polygon points="-28.5,58.8 -28.5,58.6 -27.9,58.9 -27.9,59.0" fill="#222"/>
  <polygon points="-47.7,71.3 -48.5,70.2 -49.6,69.7 -50.4,70.0 -50.4,70.9 -49.6,72.0 -48.5,72.6 -47.7,72.3" fill="#1a1a1a"/>
  <polygon points="-49.1,70.7 -49.5,70.7 -49.5,71.1 -49.1,71.6 -48.6,71.6 -48.6,71.1" fill="#666"/>
  <polygon points="-26.0,82.2 -26.8,81.1 -27.9,80.5 -28.7,80.8 -28.7,81.8 -27.9,82.9 -26.8,83.4 -26.0,83.2" fill="#1a1a1a"/>
  <polygon points="-27.3,81.5 -27.8,81.5 -27.8,82.0 -27.3,82.4 -26.9,82.4 -26.9,82.0" fill="#666"/>
  <polygon points="-17.6,73.2 -22.1,75.5 -22.1,72.1 -17.6,69.9" fill="#444"/>
  <polygon points="-17.6,72.6 -22.1,74.8 -22.1,74.7 -17.6,72.5" fill="#222"/>
  <polygon points="-17.6,71.9 -22.1,74.2 -22.1,74.1 -17.6,71.8" fill="#222"/>
  <polygon points="-17.6,71.3 -22.1,73.5 -22.1,73.4 -17.6,71.2" fill="#222"/>
  <polygon points="-17.6,70.6 -22.1,72.8 -22.1,72.7 -17.6,70.5" fill="#222"/>
  <polygon points="-37.0,64.1 -36.9,64.2 -36.9,60.5 -37.0,60.5" fill="#5a3808"/>
  <polygon points="-37.7,62.3 -37.2,62.5 -37.2,62.3 -37.7,62.1" fill="#888"/>
  <polygon points="-29.0,64.0 -29.2,64.1 -29.2,61.0 -29.0,61.0" fill="#c88818"/>
  <polygon points="-36.4,64.1 -36.2,64.2 -36.2,61.1 -36.4,61.0" fill="#b07810"/>
  <polygon points="-25.7,60.7 -24.8,61.2 -25.0,61.3 -25.9,60.8" fill="#444"/>
  <polygon points="-24.8,61.4 -24.8,61.2 -25.0,61.3 -25.0,61.5" fill="#333"/>
  <polygon points="-25.9,61.0 -25.9,60.8 -25.0,61.3 -25.0,61.5" fill="#222"/>
  <polygon points="-24.8,60.3 -24.4,60.5 -25.5,61.0 -25.9,60.8" fill="#222"/>
  <polygon points="-24.4,61.4 -24.4,60.5 -25.5,61.0 -25.5,62.0" fill="#1a1a1a"/>
  <polygon points="-25.9,61.8 -25.9,60.8 -25.5,61.0 -25.5,62.0" fill="#0a0a0a"/>
  <polygon points="-43.1,66.2 -38.6,68.5 -39.5,68.9 -44.0,66.7" fill="#444"/>
  <polygon points="-38.6,68.9 -38.6,68.5 -39.5,68.9 -39.5,69.3" fill="#333"/>
  <polygon points="-44.0,67.1 -44.0,66.7 -39.5,68.9 -39.5,69.3" fill="#222"/>
  <polygon points="-35.8,73.8 -35.7,73.8 -35.7,69.0 -35.8,69.0" fill="#8a5a08"/>
  <polygon points="-26.6,63.0 -27.5,63.5 -27.5,62.9 -26.6,62.4" fill="#fff8c0"/>
  <polygon points="-30.7,65.1 -31.6,65.5 -31.6,64.9 -30.7,64.5" fill="#fff8c0"/>
  <polygon points="-26.3,63.2 -26.2,63.2 -36.3,68.3 -36.4,68.2" fill="#8a5a08"/>
  <polygon points="-31.9,75.8 -31.8,75.8 -31.8,72.0 -31.9,71.9" fill="#8a5a08"/>
  <polygon points="-23.8,66.5 -21.8,67.5 -24.9,69.0 -26.9,68.0" fill="#e8a020"/>
  <polygon points="-21.8,68.0 -21.8,67.5 -24.9,69.0 -24.9,69.6" fill="#c88818"/>
  <polygon points="-26.9,68.6 -26.9,68.0 -24.9,69.0 -24.9,69.6" fill="#b07810"/>
  <polygon points="-25.8,68.0 -25.8,66.3 -19.7,62.9 -19.7,64.7" fill="#c88818"/>
  <polygon points="-23.8,65.3 -17.6,61.9 -19.7,62.9 -25.8,66.3" fill="#e8a020"/>
  <polygon points="-24.4,69.9 -21.0,63.7 -21.2,63.9 -24.6,70.0" fill="#555"/>
  <polygon points="-19.7,64.7 -19.7,62.9 -11.8,76.5 -11.8,78.2" fill="#c08010"/>
  <polygon points="-17.6,61.9 -9.8,75.5 -11.8,76.5 -19.7,62.9" fill="#e8a020"/>
  <polygon points="-23.1,64.5 -18.3,64.9 -18.3,64.1 -23.1,63.7" fill="#666"/>
  <polygon points="-21.0,62.6 -16.2,63.0 -18.3,64.1 -23.1,63.7" fill="#888"/>
  <polygon points="-18.1,65.3 -15.0,70.7 -15.0,69.7 -18.1,64.3" fill="#5a5a5a"/>
  <polygon points="-16.1,63.3 -12.9,68.7 -15.0,69.7 -18.1,64.3" fill="#7a7a7a"/>
  <polygon points="-9.8,74.1 -8.1,75.0 -12.4,77.1 -14.1,76.3" fill="#e8a020"/>
  <polygon points="-8.1,77.3 -8.1,75.0 -12.4,77.1 -12.4,79.4" fill="#c88818"/>
  <polygon points="-14.1,78.6 -14.1,76.3 -12.4,77.1 -12.4,79.4" fill="#b07810"/>
  <polygon points="-24.0,65.6 -23.3,65.9 -25.6,67.1 -26.3,66.8" fill="#1a1a1a"/>
  <polygon points="-23.3,66.5 -23.3,65.9 -25.6,67.1 -25.6,67.7" fill="#111"/>
  <polygon points="-26.3,67.4 -26.3,66.8 -25.6,67.1 -25.6,67.7" fill="#000"/>
  <polygon points="-17.8,62.3 -17.1,62.6 -19.5,63.8 -20.2,63.4" fill="#1a1a1a"/>
  <polygon points="-17.1,63.2 -17.1,62.6 -19.5,63.8 -19.5,64.3" fill="#111"/>
  <polygon points="-20.2,64.0 -20.2,63.4 -19.5,63.8 -19.5,64.3" fill="#000"/>
  <polygon points="-7.8,79.2 -8.3,81.8 -12.2,83.7 -11.6,81.1" fill="#3e3e3e"/>
  <polygon points="-8.9,76.5 -7.8,79.2 -11.6,81.1 -12.7,78.4" fill="#5a5a5a"/>
  <polygon points="-10.0,76.7 -8.9,76.5 -12.7,78.4 -13.8,78.6" fill="#2a2a2a"/>
  <polygon points="-13.9,76.6 -10.0,76.7 -13.8,78.6 -17.8,78.5" fill="#2a2a2a"/>
  <polygon points="-12.7,78.4 -11.6,81.1 -12.2,83.7 -17.2,81.2 -17.8,78.5 -13.8,78.6" fill="#3e3e3e"/>
  <polygon points="-9.2,75.8 -8.1,76.4 -12.4,78.6 -13.6,78.0" fill="#1a1a1a"/>
  <polygon points="-8.1,77.4 -8.1,76.4 -12.4,78.6 -12.4,79.5" fill="#0a0a0a"/>
  <polygon points="-13.6,79.0 -13.6,78.0 -12.4,78.6 -12.4,79.5" fill="#000"/>
  <polygon points="-13.6,79.4 -14.1,79.7 -14.5,79.6" fill="#5a5a5a"/>
  <polygon points="-14.6,79.9 -15.1,80.1 -15.5,80.1" fill="#5a5a5a"/>
  <polygon points="-15.5,80.4 -16.0,80.6 -16.4,80.5" fill="#5a5a5a"/>
  <polygon points="-16.5,80.8 -17.0,81.1 -17.4,81.0" fill="#5a5a5a"/>
  <polygon points="-14.7,70.7 -10.4,80.7 -11.1,80.7 -15.3,70.7" fill="#3a3a3a"/>
  <polygon points="-14.1,69.0 -13.0,69.6 -14.0,70.1 -15.1,69.5" fill="#222"/>
  <polygon points="-13.0,70.6 -13.0,69.6 -14.0,70.1 -14.0,71.1" fill="#1a1a1a"/>
  <polygon points="-15.1,70.6 -15.1,69.5 -14.0,70.1 -14.0,71.1" fill="#0a0a0a"/>
  <polygon points="-8.0,78.8 -7.4,79.1 -11.4,81.1 -12.0,80.8" fill="#0a0a0a"/>
  <polygon points="-7.4,79.5 -7.4,79.1 -11.4,81.1 -11.4,81.6" fill="#000"/>
  <polygon points="-12.0,81.3 -12.0,80.8 -11.4,81.1 -11.4,81.6" fill="#000"/>
  <polygon points="-119.0,40.5 -117.9,41.1 -119.0,41.6 -120.1,41.1" fill="#888"/>
  <polygon points="-117.9,53.1 -117.9,41.1 -119.0,41.6 -119.0,53.6" fill="#777"/>
  <polygon points="-120.1,53.1 -120.1,41.1 -119.0,41.6 -119.0,53.6" fill="#666"/>
  <polygon points="-91.0,54.5 -89.9,55.1 -91.0,55.6 -92.1,55.1" fill="#888"/>
  <polygon points="-89.9,67.1 -89.9,55.1 -91.0,55.6 -91.0,67.6" fill="#777"/>
  <polygon points="-92.1,67.1 -92.1,55.1 -91.0,55.6 -91.0,67.6" fill="#666"/>
  <polygon points="-63.0,68.5 -61.9,69.1 -63.0,69.6 -64.1,69.1" fill="#888"/>
  <polygon points="-61.9,81.1 -61.9,69.1 -63.0,69.6 -63.0,81.6" fill="#777"/>
  <polygon points="-64.1,81.1 -64.1,69.1 -63.0,69.6 -63.0,81.6" fill="#666"/>
  <polygon points="-35.0,82.5 -33.9,83.1 -35.0,83.6 -36.1,83.1" fill="#888"/>
  <polygon points="-33.9,95.1 -33.9,83.1 -35.0,83.6 -35.0,95.6" fill="#777"/>
  <polygon points="-36.1,95.1 -36.1,83.1 -35.0,83.6 -35.0,95.6" fill="#666"/>
  <polygon points="-7.0,96.5 -5.9,97.1 -7.0,97.6 -8.1,97.1" fill="#888"/>
  <polygon points="-5.9,109.1 -5.9,97.1 -7.0,97.6 -7.0,109.6" fill="#777"/>
  <polygon points="-8.1,109.1 -8.1,97.1 -7.0,97.6 -7.0,109.6" fill="#666"/>
  <polygon points="-117.9,51.9 -117.9,42.3 -91.0,55.7 -91.0,65.3" fill="#f08030"/>
  <polygon points="-119.0,52.4 -119.0,42.8 -92.1,56.3 -92.1,65.9" fill="#d86820"/>
  <polygon points="-89.9,65.9 -89.9,56.3 -63.0,69.7 -63.0,79.3" fill="#f08030"/>
  <polygon points="-91.0,66.4 -91.0,56.8 -64.1,70.3 -64.1,79.9" fill="#d86820"/>
  <polygon points="-61.9,79.9 -61.9,70.3 -35.0,83.7 -35.0,93.3" fill="#f08030"/>
  <polygon points="-63.0,80.4 -63.0,70.8 -36.1,84.3 -36.1,93.9" fill="#d86820"/>
  <polygon points="-33.9,93.9 -33.9,84.3 -7.0,97.7 -7.0,107.3" fill="#f08030"/>
  <polygon points="-35.0,94.4 -35.0,84.8 -8.1,98.3 -8.1,107.9" fill="#d86820"/>
  <polygon points="65.8,46.6 67.5,47.4 65.8,48.2 64.1,47.4" fill="#333"/>
  <polygon points="67.5,47.6 67.5,47.4 65.8,48.2 65.8,48.4" fill="#2a2a2a"/>
  <polygon points="64.1,47.6 64.1,47.4 65.8,48.2 65.8,48.4" fill="#222"/>
  <polygon points="65.8,46.7 65.8,44.8 66.3,45.1 67.1,47.4" fill="#e06020"/>
  <polygon points="67.1,47.4 66.3,45.1 65.8,45.3 65.8,48.1" fill="#c85018"/>
  <polygon points="64.5,47.4 65.3,45.1 65.8,45.3 65.8,48.1" fill="#b04010"/>
  <polygon points="67.0,46.7 67.0,46.4 65.9,47.0 65.9,47.2" fill="#e8e0d0"/>
  <polygon points="64.6,46.7 64.6,46.4 65.7,47.0 65.7,47.2" fill="#d8d0c0"/>
  <polygon points="66.9,46.0 66.9,45.8 66.1,46.2 66.1,46.4" fill="#e8e0d0"/>
  <polygon points="64.7,46.0 64.7,45.8 65.5,46.2 65.5,46.4" fill="#d8d0c0"/>
  <polygon points="44.8,57.1 46.5,57.9 44.8,58.7 43.1,57.9" fill="#333"/>
  <polygon points="46.5,58.1 46.5,57.9 44.8,58.7 44.8,58.9" fill="#2a2a2a"/>
  <polygon points="43.1,58.1 43.1,57.9 44.8,58.7 44.8,58.9" fill="#222"/>
  <polygon points="44.8,57.2 44.8,55.3 45.3,55.6 46.1,57.9" fill="#e06020"/>
  <polygon points="46.1,57.9 45.3,55.6 44.8,55.8 44.8,58.6" fill="#c85018"/>
  <polygon points="43.5,57.9 44.3,55.6 44.8,55.8 44.8,58.6" fill="#b04010"/>
  <polygon points="46.0,57.2 46.0,56.9 44.9,57.5 44.9,57.7" fill="#e8e0d0"/>
  <polygon points="43.6,57.2 43.6,56.9 44.7,57.5 44.7,57.7" fill="#d8d0c0"/>
  <polygon points="45.9,56.5 45.9,56.3 45.1,56.7 45.1,56.9" fill="#e8e0d0"/>
  <polygon points="43.7,56.5 43.7,56.3 44.5,56.7 44.5,56.9" fill="#d8d0c0"/>
  <polygon points="22.4,78.0 32.2,82.9 26.3,85.8 16.5,80.9" fill="#2070a0"/>
  <polygon points="32.2,87.5 32.2,82.9 26.3,85.8 26.3,90.4" fill="#1860a0"/>
  <polygon points="16.5,85.5 16.5,80.9 26.3,85.8 26.3,90.4" fill="#105090"/>
  <polygon points="18.9,86.4 19.0,86.5 19.0,82.5 18.9,82.5" fill="#0e3868"/>
  <polygon points="21.4,87.6 21.5,87.7 21.5,83.7 21.4,83.7" fill="#0e3868"/>
  <polygon points="23.8,88.9 23.9,88.9 23.9,85.0 23.8,84.9" fill="#0e3868"/>
  <polygon points="30.3,88.1 30.2,88.2 30.2,84.2 30.3,84.2" fill="#0e3868"/>
  <polygon points="28.3,89.1 28.2,89.1 28.2,85.2 28.3,85.2" fill="#0e3868"/>
  <polygon points="16.7,85.5 26.1,90.2 26.1,89.8 16.7,85.1" fill="#0a2848"/>
  <polygon points="22.4,77.4 32.6,82.5 26.3,85.7 16.1,80.6" fill="#2880b0"/>
  <polygon points="32.6,82.9 32.6,82.5 26.3,85.7 26.3,86.0" fill="#2070a0"/>
  <polygon points="16.1,80.9 16.1,80.6 26.3,85.7 26.3,86.0" fill="#1860a0"/>
  <polygon points="22.4,77.4 21.6,75.9 15.3,79.0 16.1,80.6" fill="#3090b8"/>
  <polygon points="21.2,78.0 21.0,77.7 20.6,77.9 20.8,78.2" fill="#222"/>
  <polygon points="17.7,79.8 17.5,79.5 17.1,79.6 17.3,80.0" fill="#222"/>
  <polygon points="54.6,59.0 61.5,62.4 54.6,65.9 47.7,62.4" fill="#c0a870"/>
  <polygon points="61.5,62.9 61.5,62.4 54.6,65.9 54.6,66.4" fill="#a89060"/>
  <polygon points="47.7,62.9 47.7,62.4 54.6,65.9 54.6,66.4" fill="#988050"/>
  <polygon points="54.6,57.2 57.5,58.7 54.6,60.1 51.7,58.7" fill="#d0b888"/>
  <polygon points="57.5,60.8 57.5,58.7 54.6,60.1 54.6,62.2" fill="#b8a070"/>
  <polygon points="51.7,60.8 51.7,58.7 54.6,60.1 54.6,62.2" fill="#a89060"/>
  <polygon points="57.7,59.2 60.7,60.6 57.7,62.1 54.8,60.6" fill="#c8c0b0"/>
  <polygon points="60.7,62.3 60.7,60.6 57.7,62.1 57.7,63.8" fill="#b0a898"/>
  <polygon points="54.8,62.3 54.8,60.6 57.7,62.1 57.7,63.8" fill="#a09888"/>
  <polygon points="52.0,59.3 54.7,60.6 52.0,62.0 49.2,60.6" fill="#b8a870"/>
  <polygon points="54.7,62.5 54.7,60.6 52.0,62.0 52.0,63.8" fill="#a09060"/>
  <polygon points="49.2,62.5 49.2,60.6 52.0,62.0 52.0,63.8" fill="#908050"/>
  <polygon points="54.8,56.3 57.5,57.6 54.8,59.0 52.1,57.6" fill="#d8c898"/>
  <polygon points="57.5,59.2 57.5,57.6 54.8,59.0 54.8,60.5" fill="#c0b080"/>
  <polygon points="52.1,59.2 52.1,57.6 54.8,59.0 54.8,60.5" fill="#b0a070"/>
  <polygon points="33.6,69.5 40.5,72.9 33.6,76.4 26.7,72.9" fill="#c0a870"/>
  <polygon points="40.5,73.4 40.5,72.9 33.6,76.4 33.6,76.9" fill="#a89060"/>
  <polygon points="26.7,73.4 26.7,72.9 33.6,76.4 33.6,76.9" fill="#988050"/>
  <polygon points="33.6,67.7 36.5,69.2 33.6,70.6 30.7,69.2" fill="#d0b888"/>
  <polygon points="36.5,71.3 36.5,69.2 33.6,70.6 33.6,72.7" fill="#b8a070"/>
  <polygon points="30.7,71.3 30.7,69.2 33.6,70.6 33.6,72.7" fill="#a89060"/>
  <polygon points="36.7,69.7 39.7,71.1 36.7,72.6 33.8,71.1" fill="#c8c0b0"/>
  <polygon points="39.7,72.8 39.7,71.1 36.7,72.6 36.7,74.3" fill="#b0a898"/>
  <polygon points="33.8,72.8 33.8,71.1 36.7,72.6 36.7,74.3" fill="#a09888"/>
  <polygon points="31.0,69.8 33.7,71.1 31.0,72.5 28.2,71.1" fill="#b8a870"/>
  <polygon points="33.7,73.0 33.7,71.1 31.0,72.5 31.0,74.3" fill="#a09060"/>
  <polygon points="28.2,73.0 28.2,71.1 31.0,72.5 31.0,74.3" fill="#908050"/>
  <polygon points="33.8,66.8 36.5,68.1 33.8,69.5 31.1,68.1" fill="#d8c898"/>
  <polygon points="36.5,69.6 36.5,68.1 33.8,69.5 33.8,71.0" fill="#c0b080"/>
  <polygon points="31.1,69.6 31.1,68.1 33.8,69.5 33.8,71.0" fill="#b0a070"/>
  <polygon points="46.2,60.5 58.8,66.8 46.2,73.1 33.6,66.8" fill="#a09080"/>
  <polygon points="58.8,72.8 58.8,66.8 46.2,73.1 46.2,79.1" fill="#887060"/>
  <polygon points="33.6,72.8 33.6,66.8 46.2,73.1 46.2,79.1" fill="#907060"/>
  <polygon points="46.2,60.5 56.0,65.4 46.2,70.3 36.4,65.4" fill="#c8a868"/>
  <polygon points="56.0,66.8 56.0,65.4 46.2,70.3 46.2,71.7" fill="#b09050"/>
  <polygon points="36.4,66.8 36.4,65.4 46.2,70.3 46.2,71.7" fill="#a88848"/>
  <polygon points="100.8,37.2 109.2,41.4 100.8,45.6 92.4,41.4" fill="#2878b0"/>
  <polygon points="109.2,54.6 109.2,41.4 100.8,45.6 100.8,58.8" fill="#2068a0"/>
  <polygon points="92.4,54.6 92.4,41.4 100.8,45.6 100.8,58.8" fill="#185890"/>
  <polygon points="107.8,54.1 107.8,44.5 102.2,47.3 102.2,56.9" fill="#185088"/>
  <polygon points="-114.8,28.1 -112.8,29.1 -114.2,29.8 -116.2,28.8" fill="#705838"/>
  <polygon points="-112.8,37.1 -112.8,29.1 -114.2,29.8 -114.2,37.8" fill="#705838"/>
  <polygon points="-116.2,36.9 -116.2,28.8 -114.2,29.8 -114.2,37.8" fill="#604830"/>
  <polygon points="-107.1,37.6 -117.3,36.6 -125.9,32.7 -127.8,27.6 -121.9,24.3 -111.7,25.2 -103.1,29.9 -101.2,35.0" fill="#1e5820"/>
  <polygon points="-107.5,35.1 -117.2,34.2 -125.3,30.4 -127.1,25.6 -121.6,22.5 -111.9,23.4 -103.7,27.8 -101.9,32.6" fill="#287028"/>
  <polygon points="-108.8,31.7 -116.6,31.0 -123.3,28.0 -124.8,24.1 -120.3,21.5 -112.4,22.2 -105.8,25.9 -104.3,29.8" fill="#329838"/>
  <polygon points="-110.8,28.0 -116.0,27.6 -120.3,25.8 -121.2,23.2 -118.2,21.3 -113.0,21.8 -108.8,24.3 -107.8,26.9" fill="#46b048"/>
  <polygon points="54.6,54.9 82.6,68.9 78.4,71.0 50.4,57.0" fill="#555"/>
  <polygon points="82.6,70.7 82.6,68.9 78.4,71.0 78.4,72.8" fill="#444"/>
  <polygon points="50.4,58.8 50.4,57.0 78.4,71.0 78.4,72.8" fill="#383838"/>
  <polygon points="49.0,57.7 77.0,71.7 72.8,73.8 44.8,59.8" fill="#555"/>
  <polygon points="77.0,73.5 77.0,71.7 72.8,73.8 72.8,75.6" fill="#444"/>
  <polygon points="44.8,61.6 44.8,59.8 72.8,73.8 72.8,75.6" fill="#383838"/>
  <polygon points="0.0,-96.0 6.6,-92.8 0.0,-89.5 -6.6,-92.8" fill="#f0b830"/>
  <polygon points="6.6,-86.8 6.6,-92.8 0.0,-89.5 0.0,-83.5" fill="#c88818"/>
  <polygon points="-6.6,-86.8 -6.6,-92.8 0.0,-89.5 0.0,-83.5" fill="#b07810"/>
  <polygon points="-0.7,-95.4 -0.7,-96.9 97.3,-47.9 97.3,-46.4" fill="#e8a020"/>
  <polygon points="-2.4,-94.6 -2.4,-96.0 95.6,-47.0 95.6,-45.6" fill="#b07810"/>
  <polygon points="-0.7,-96.9 97.3,-47.9 95.6,-47.0 -2.4,-96.0" fill="#f0b830"/>
  <polygon points="-25.9,-108.0 -25.9,-109.5 -0.7,-96.9 -0.7,-95.4" fill="#e8a020"/>
  <polygon points="-24.5,-108.8 -18.9,-105.9 -23.1,-103.8 -28.7,-106.7" fill="#606060"/>
  <polygon points="-18.9,-101.2 -18.9,-105.9 -23.1,-103.8 -23.1,-99.0" fill="#505050"/>
  <polygon points="-28.7,-101.8 -28.7,-106.7 -23.1,-103.8 -23.1,-99.0" fill="#484848"/>
  <polygon points="75.6,-56.6 75.6,-30.8 75.9,-30.7 75.9,-56.5" fill="#444"/>
  <polygon points="61.6,-39.9 96.6,-22.4 94.6,-21.4 59.6,-38.9" fill="#d04838"/>
  <polygon points="96.6,-20.7 96.6,-22.4 94.6,-21.4 94.6,-19.7" fill="#c04030"/>
  <polygon points="59.6,-37.2 59.6,-38.9 94.6,-21.4 94.6,-19.7" fill="#882820"/>
</svg>