<svg xmlns="http://www.w3.org/2000/svg" viewBox="-134 -56 268 185" width="268" height="185">
  <polygon points="0.0,-6.4 126.0,56.6 0.0,119.6 -126.0,56.6" fill="#68a848"/>
  <polygon points="126.0,57.8 126.0,56.6 0.0,119.6 0.0,120.8" fill="#508838"/>
  <polygon points="-126.0,57.8 -126.0,56.6 0.0,119.6 0.0,120.8" fill="#408028"/>
  <polygon points="44.6,69.1 72.6,83.1 58.6,90.1 30.6,76.1" fill="#c0b8a8"/>
  <polygon points="91.0,52.5 91.0,28.5 94.5,30.2 94.5,54.2" fill="#806040"/>
  <polygon points="94.5,54.2 94.5,30.2 91.0,32.0 91.0,56.0" fill="#6a5038"/>
  <polygon points="76.3,28.9 105.7,23.5 105.7,43.6 76.3,46.3" fill="#2a7830"/>
  <polygon points="79.2,24.4 102.8,20.1 102.8,36.1 79.2,38.3" fill="#349038"/>
  <polygon points="83.2,21.5 98.8,18.7 98.8,29.4 83.2,30.8" fill="#40a844"/>
  <polygon points="86.6,18.4 95.4,16.8 95.4,22.9 86.6,23.7" fill="#4cb850"/>
  <polygon points="0.0,21.0 0.0,-15.0 70.0,20.0 70.0,56.0" fill="#e8e0d0"/>
  <polygon points="7.0,14.9 7.0,-0.7 23.8,7.7 23.8,23.3" fill="#88b8d8"/>
  <polygon points="4.9,13.8 4.9,-1.8 7.0,-0.7 7.0,14.9" fill="#4a6070"/>
  <polygon points="23.8,23.3 23.8,7.7 25.9,8.7 25.9,24.3" fill="#4a6070"/>
  <polygon points="39.2,31.0 39.2,15.4 56.0,23.8 56.0,39.4" fill="#88b8d8"/>
  <polygon points="37.1,29.9 37.1,14.3 39.2,15.4 39.2,31.0" fill="#4a6070"/>
  <polygon points="56.0,39.4 56.0,23.8 58.1,24.9 58.1,40.5" fill="#4a6070"/>
  <polygon points="70.0,56.0 70.0,20.0 -7.0,58.5 -7.0,94.5" fill="#d8d0c0"/>
  <polygon points="70.0,20.0 31.5,12.8 -7.0,58.5" fill="#d0c8b8"/>
  <polygon points="45.4,68.3 45.4,43.1 34.2,48.7 34.2,73.9" fill="#5a3020"/>
  <polygon points="46.2,42.7 46.2,41.7 33.3,48.2 33.3,49.1" fill="#f0ece8"/>
  <polygon points="65.8,48.5 65.8,32.9 47.6,42.0 47.6,57.6" fill="#6898b8"/>
  <polygon points="18.2,72.3 18.2,56.7 0.0,65.8 0.0,81.4" fill="#6898b8"/>
  <polygon points="-77.0,59.5 -77.0,23.5 -7.0,58.5 -7.0,94.5" fill="#c8c0b0"/>
  <polygon points="49.6,64.1 56.6,67.6 37.0,77.4 30.0,73.9" fill="#c0b8a8"/>
  <polygon points="56.6,69.7 56.6,67.6 37.0,77.4 37.0,79.5" fill="#a8a098"/>
  <polygon points="30.0,76.0 30.0,73.9 37.0,77.4 37.0,79.5" fill="#989088"/>
  <polygon points="0.0,-19.9 -43.4,-24.6 36.4,15.3 79.8,20.0" fill="#4a6878"/>
  <polygon points="-43.4,-24.6 -86.8,23.5 -7.0,63.4 36.4,15.3" fill="#385868"/>
  <polygon points="79.8,20.0 79.8,20.7 -7.0,64.1 -7.0,63.4" fill="#3a5060"/>
  <polygon points="4.2,-17.1 4.2,-47.1 11.9,-43.2 11.9,-13.3" fill="#b84830"/>
  <polygon points="11.9,-13.3 11.9,-43.2 4.2,-39.4 4.2,-9.4" fill="#a04028"/>
  <polygon points="-3.5,-13.3 -3.5,-43.2 4.2,-39.4 4.2,-9.4" fill="#903820"/>
  <polygon points="4.2,-47.1 11.9,-43.2 4.2,-39.4 -3.5,-43.2" fill="#c85838"/>
  <polygon points="4.2,-48.1 13.9,-43.2 4.2,-38.4 -5.5,-43.2" fill="#888"/>
  <polygon points="120.4,53.3 120.4,52.3 0.0,112.5 0.0,113.5" fill="#d0c8c0"/>
  <polygon points="120.4,50.1 120.4,49.2 0.0,109.4 0.0,110.4" fill="#d0c8c0"/>
  <polygon points="120.4,56.0 120.4,47.0 118.7,47.8 118.7,56.8" fill="#f0ece8"/>
  <polygon points="120.4,47.0 119.6,46.2 118.7,47.8" fill="#f0ece8"/>
  <polygon points="113.1,59.6 113.1,50.6 111.4,51.5 111.4,60.5" fill="#f0ece8"/>
  <polygon points="113.1,50.6 112.3,49.9 111.4,51.5" fill="#f0ece8"/>
  <polygon points="105.8,63.3 105.8,54.3 104.2,55.1 104.2,64.1" fill="#f0ece8"/>
  <polygon points="105.8,54.3 105.0,53.5 104.2,55.1" fill="#f0ece8"/>
  <polygon points="98.6,66.9 98.6,57.9 96.9,58.8 96.9,67.8" fill="#f0ece8"/>
  <polygon points="98.6,57.9 97.7,57.1 96.9,58.8" fill="#f0ece8"/>
  <polygon points="91.3,70.6 91.3,61.6 89.6,62.4 89.6,71.4" fill="#f0ece8"/>
  <polygon points="91.3,61.6 90.4,60.8 89.6,62.4" fill="#f0ece8"/>
  <polygon points="84.0,74.2 84.0,65.2 82.3,66.0 82.3,75.0" fill="#f0ece8"/>
  <polygon points="84.0,65.2 83.2,64.4 82.3,66.0" fill="#f0ece8"/>
  <polygon points="54.9,88.8 54.9,79.8 53.2,80.6 53.2,89.6" fill="#f0ece8"/>
  <polygon points="54.9,79.8 54.0,79.0 53.2,80.6" fill="#f0ece8"/>
  <polygon points="47.6,92.4 47.6,83.4 45.9,84.2 45.9,93.2" fill="#f0ece8"/>
  <polygon points="47.6,83.4 46.8,82.6 45.9,84.2" fill="#f0ece8"/>
  <polygon points="40.3,96.0 40.3,87.0 38.6,87.9 38.6,96.9" fill="#f0ece8"/>
  <polygon points="40.3,87.0 39.5,86.3 38.6,87.9" fill="#f0ece8"/>
  <polygon points="33.0,99.7 33.0,90.7 31.4,91.5 31.4,100.5" fill="#f0ece8"/>
  <polygon points="33.0,90.7 32.2,89.9 31.4,91.5" fill="#f0ece8"/>
  <polygon points="25.8,103.3 25.8,94.3 24.1,95.2 24.1,104.2" fill="#f0ece8"/>
  <polygon points="25.8,94.3 24.9,93.5 24.1,95.2" fill="#f0ece8"/>
  <polygon points="18.5,107.0 18.5,98.0 16.8,98.8 16.8,107.8" fill="#f0ece8"/>
  <polygon points="18.5,98.0 17.6,97.2 16.8,98.8" fill="#f0ece8"/>
  <polygon points="11.2,110.6 11.2,101.6 9.5,102.4 9.5,111.4" fill="#f0ece8"/>
  <polygon points="11.2,101.6 10.4,100.8 9.5,102.4" fill="#f0ece8"/>
  <polygon points="3.9,114.2 3.9,105.2 2.2,106.1 2.2,115.1" fill="#f0ece8"/>
  <polygon points="3.9,105.2 3.1,104.5 2.2,106.1" fill="#f0ece8"/>
  <polygon points="-120.4,53.3 -120.4,52.3 0.0,112.5 0.0,113.5" fill="#d0c8c0"/>
  <polygon points="-120.4,50.1 -120.4,49.2 0.0,109.4 0.0,110.4" fill="#d0c8c0"/>
  <polygon points="-120.4,56.0 -120.4,47.0 -118.7,47.8 -118.7,56.8" fill="#d0c8c0"/>
  <polygon points="-120.4,47.0 -119.6,46.2 -118.7,47.8" fill="#d0c8c0"/>
  <polygon points="-113.1,59.6 -113.1,50.6 -111.4,51.5 -111.4,60.5" fill="#d0c8c0"/>
  <polygon points="-113.1,50.6 -112.3,49.9 -111.4,51.5" fill="#d0c8c0"/>
  <polygon points="-105.8,63.3 -105.8,54.3 -104.2,55.1 -104.2,64.1" fill="#d0c8c0"/>
  <polygon points="-105.8,54.3 -105.0,53.5 -104.2,55.1" fill="#d0c8c0"/>
  <polygon points="-98.6,66.9 -98.6,57.9 -96.9,58.8 -96.9,67.8" fill="#d0c8c0"/>
  <polygon points="-98.6,57.9 -97.7,57.1 -96.9,58.8" fill="#d0c8c0"/>
  <polygon points="-91.3,70.6 -91.3,61.6 -89.6,62.4 -89.6,71.4" fill="#d0c8c0"/>
  <polygon points="-91.3,61.6 -90.4,60.8 -89.6,62.4" fill="#d0c8c0"/>
  <polygon points="-84.0,74.2 -84.0,65.2 -82.3,66.0 -82.3,75.0" fill="#d0c8c0"/>
  <polygon points="-84.0,65.2 -83.2,64.4 -82.3,66.0" fill="#d0c8c0"/>
  <polygon points="-76.7,77.8 -76.7,68.8 -75.0,69.7 -75.0,78.7" fill="#d0c8c0"/>
  <polygon points="-76.7,68.8 -75.9,68.1 -75.0,69.7" fill="#d0c8c0"/>
  <polygon points="-69.4,81.5 -69.4,72.5 -67.8,73.3 -67.8,82.3" fill="#d0c8c0"/>
  <polygon points="-69.4,72.5 -68.6,71.7 -67.8,73.3" fill="#d0c8c0"/>
  <polygon points="-62.2,85.1 -62.2,76.1 -60.5,77.0 -60.5,86.0" fill="#d0c8c0"/>
  <polygon points="-62.2,76.1 -61.3,75.3 -60.5,77.0" fill="#d0c8c0"/>
  <polygon points="-54.9,88.8 -54.9,79.8 -53.2,80.6 -53.2,89.6" fill="#d0c8c0"/>
  <polygon points="-54.9,79.8 -54.0,79.0 -53.2,80.6" fill="#d0c8c0"/>
  <polygon points="-47.6,92.4 -47.6,83.4 -45.9,84.2 -45.9,93.2" fill="#d0c8c0"/>
  <polygon points="-47.6,83.4 -46.8,82.6 -45.9,84.2" fill="#d0c8c0"/>
  <polygon points="-40.3,96.0 -40.3,87.0 -38.6,87.9 -38.6,96.9" fill="#d0c8c0"/>
  <polygon points="-40.3,87.0 -39.5,86.3 -38.6,87.9" fill="#d0c8c0"/>
  <polygon points="-33.0,99.7 -33.0,90.7 -31.4,91.5 -31.4,100.5" fill="#d0c8c0"/>
  <polygon points="-33.0,90.7 -32.2,89.9 -31.4,91.5" fill="#d0c8c0"/>
  <polygon points="-25.8,103.3 -25.8,94.3 -24.1,95.2 -24.1,104.2" fill="#d0c8c0"/>
  <polygon points="-25.8,94.3 -24.9,93.5 -24.1,95.2" fill="#d0c8c0"/>
  <polygon points="-18.5,107.0 -18.5,98.0 -16.8,98.8 -16.8,107.8" fill="#d0c8c0"/>
  <polygon points="-18.5,98.0 -17.6,97.2 -16.8,98.8" fill="#d0c8c0"/>
  <polygon points="-11.2,110.6 -11.2,101.6 -9.5,102.4 -9.5,111.4" fill="#d0c8c0"/>
  <polygon points="-11.2,101.6 -10.4,100.8 -9.5,102.4" fill="#d0c8c0"/>
  <polygon points="-3.9,114.2 -3.9,105.2 -2.2,106.1 -2.2,115.1" fill="#d0c8c0"/>
  <polygon points="-3.9,105.2 -3.1,104.5 -2.2,106.1" fill="#d0c8c0"/>
  <polygon points="7.0,94.5 7.0,71.7 8.1,72.3 8.1,95.1" fill="#f0ece8"/>
  <polygon points="-14.0,105.0 -14.0,82.2 -12.9,82.8 -12.9,105.6" fill="#f0ece8"/>
  <polygon points="7.4,71.5 7.4,70.6 -14.4,81.6 -14.4,82.4" fill="#d0c8c0"/>
  <polygon points="5.7,82.8 5.7,73.2 -13.0,82.5 -13.0,92.1" fill="#d44030"/>
  <polygon points="4.3,82.5 4.3,74.8 -11.6,82.8 -11.6,90.5" fill="#e85848"/>
  <polygon points="-91.0,59.5 -91.0,43.9 -88.5,45.2 -88.5,60.8" fill="#806040"/>
  <polygon points="-99.4,43.3 -82.6,40.3 -82.6,51.7 -99.4,52.9" fill="#2a7830"/>
  <polygon points="-97.3,40.2 -84.7,37.9 -84.7,46.4 -97.3,47.3" fill="#349038"/>
  <polygon points="-94.8,37.8 -87.2,36.5 -87.2,41.6 -94.8,42.1" fill="#40a844"/>
  <polygon points="48.8,89.0 48.8,78.8 49.6,79.2 49.6,89.4" fill="#888"/>
  <polygon points="48.8,75.0 53.0,77.1 49.6,78.7 45.4,76.6" fill="#4070a0"/>
  <polygon points="53.0,79.2 53.0,77.1 49.6,78.7 49.6,80.9" fill="#3060a0"/>
  <polygon points="45.4,78.8 45.4,76.6 49.6,78.7 49.6,80.9" fill="#2858a0"/>
</svg>