<svg xmlns="http://www.w3.org/2000/svg" viewBox="-190 -62 397 231" width="397" height="231">
  <polygon points="7.0,-30.5 198.8,65.4 9.8,159.9 -182.0,64.0" fill="#c0b8a8"/>
  <polygon points="198.8,66.3 198.8,65.4 9.8,159.9 9.8,160.8" fill="#a8a090"/>
  <polygon points="-182.0,64.9 -182.0,64.0 9.8,159.9 9.8,160.8" fill="#989080"/>
  <polygon points="145.6,42.6 187.6,63.6 7.0,153.9 -35.0,132.9" fill="#606060"/>
  <polygon points="159.0,56.2 147.8,61.8 149.0,62.4 160.2,56.8" fill="#d8c040"/>
  <polygon points="136.6,67.4 125.4,73.0 126.6,73.6 137.8,68.0" fill="#d8c040"/>
  <polygon points="114.2,78.6 103.0,84.2 104.2,84.8 115.4,79.2" fill="#d8c040"/>
  <polygon points="91.8,89.8 80.6,95.4 81.8,96.0 93.0,90.4" fill="#d8c040"/>
  <polygon points="69.4,101.0 58.2,106.6 59.4,107.2 70.6,101.6" fill="#d8c040"/>
  <polygon points="47.0,112.2 35.8,117.8 37.0,118.4 48.2,112.8" fill="#d8c040"/>
  <polygon points="24.6,123.4 13.4,129.0 14.6,129.6 25.8,124.0" fill="#d8c040"/>
  <polygon points="112.0,25.6 145.6,42.4 -35.0,132.7 -68.6,115.9" fill="#d0c8bc"/>
  <polygon points="145.6,42.6 145.6,41.3 -35.0,131.6 -35.0,132.9" fill="#c0b8a8"/>
  <polygon points="-21.0,-9.9 23.8,12.5 -81.2,65.0 -126.0,42.6" fill="#707070"/>
  <polygon points="-23.8,-4.4 -24.4,-4.1 12.0,14.1 12.6,13.8" fill="#909090"/>
  <polygon points="-46.2,6.8 -46.8,7.1 -10.4,25.3 -9.8,25.0" fill="#909090"/>
  <polygon points="-68.6,18.0 -69.2,18.3 -32.8,36.5 -32.2,36.2" fill="#909090"/>
  <polygon points="-91.0,29.2 -91.6,29.5 -55.2,47.7 -54.6,47.4" fill="#909090"/>
  <polygon points="-15.3,2.1 -13.8,2.1 -13.8,3.5 -15.3,5.0 -16.7,5.0 -16.7,3.5" fill="#222"/>
  <polygon points="-15.3,3.0 -14.8,3.0 -14.8,3.5 -15.3,4.0 -15.8,4.0 -15.8,3.5" fill="#888"/>
  <polygon points="-30.7,9.8 -29.2,9.8 -29.2,11.2 -30.7,12.7 -32.1,12.7 -32.1,11.2" fill="#222"/>
  <polygon points="-30.7,10.7 -30.2,10.7 -30.2,11.2 -30.7,11.7 -31.2,11.7 -31.2,11.2" fill="#888"/>
  <polygon points="-22.4,-9.8 -11.2,-4.2 -36.4,8.4 -47.6,2.8" fill="#e8e0d0"/>
  <polygon points="-11.2,1.2 -11.2,-4.2 -36.4,8.4 -36.4,13.8" fill="#d0c8b8"/>
  <polygon points="-47.6,8.2 -47.6,2.8 -36.4,8.4 -36.4,13.8" fill="#c0b8a8"/>
  <polygon points="-26.2,-11.0 -17.2,-6.5 -29.8,-0.2 -38.8,-4.6" fill="#90b8d0"/>
  <polygon points="-17.2,-2.3 -17.2,-6.5 -29.8,-0.2 -29.8,4.0" fill="#d0c8b8"/>
  <polygon points="-38.8,-0.4 -38.8,-4.6 -29.8,-0.2 -29.8,4.0" fill="#c0b8a8"/>
  <polygon points="-37.7,13.3 -36.2,13.3 -36.2,14.7 -37.7,16.2 -39.1,16.2 -39.1,14.7" fill="#222"/>
  <polygon points="-37.7,14.2 -37.2,14.2 -37.2,14.7 -37.7,15.2 -38.2,15.2 -38.2,14.7" fill="#888"/>
  <polygon points="-53.1,21.0 -51.6,21.0 -51.6,22.4 -53.1,23.9 -54.5,23.9 -54.5,22.4" fill="#222"/>
  <polygon points="-53.1,21.9 -52.6,21.9 -52.6,22.4 -53.1,22.9 -53.6,22.9 -53.6,22.4" fill="#888"/>
  <polygon points="-44.8,1.4 -33.6,7.0 -58.8,19.6 -70.0,14.0" fill="#3070b0"/>
  <polygon points="-33.6,12.4 -33.6,7.0 -58.8,19.6 -58.8,25.0" fill="#2860a0"/>
  <polygon points="-70.0,19.4 -70.0,14.0 -58.8,19.6 -58.8,25.0" fill="#205090"/>
  <polygon points="-48.6,0.3 -39.6,4.7 -52.2,11.0 -61.2,6.6" fill="#90b8d0"/>
  <polygon points="-39.6,8.9 -39.6,4.7 -52.2,11.0 -52.2,15.2" fill="#2860a0"/>
  <polygon points="-61.2,10.8 -61.2,6.6 -52.2,11.0 -52.2,15.2" fill="#205090"/>
  <polygon points="-60.1,24.5 -58.6,24.5 -58.6,25.9 -60.1,27.4 -61.5,27.4 -61.5,25.9" fill="#222"/>
  <polygon points="-60.1,25.4 -59.6,25.4 -59.6,25.9 -60.1,26.4 -60.6,26.4 -60.6,25.9" fill="#888"/>
  <polygon points="-75.5,32.2 -74.0,32.2 -74.0,33.6 -75.5,35.1 -76.9,35.1 -76.9,33.6" fill="#222"/>
  <polygon points="-75.5,33.1 -75.0,33.1 -75.0,33.6 -75.5,34.1 -76.0,34.1 -76.0,33.6" fill="#888"/>
  <polygon points="-67.2,12.6 -56.0,18.2 -81.2,30.8 -92.4,25.2" fill="#408040"/>
  <polygon points="-56.0,23.6 -56.0,18.2 -81.2,30.8 -81.2,36.2" fill="#307030"/>
  <polygon points="-92.4,30.6 -92.4,25.2 -81.2,30.8 -81.2,36.2" fill="#286028"/>
  <polygon points="-71.0,11.4 -62.0,15.9 -74.6,22.2 -83.6,17.8" fill="#90b8d0"/>
  <polygon points="-62.0,20.1 -62.0,15.9 -74.6,22.2 -74.6,26.4" fill="#307030"/>
  <polygon points="-83.6,22.0 -83.6,17.8 -74.6,22.2 -74.6,26.4" fill="#286028"/>
  <polygon points="147.0,53.3 161.0,60.3 148.4,66.6 134.4,59.6" fill="#e8e0d8"/>
  <polygon points="161.0,71.1 161.0,60.3 148.4,66.6 148.4,77.4" fill="#d0c8c0"/>
  <polygon points="134.4,70.4 134.4,59.6 148.4,66.6 148.4,77.4" fill="#c0b8b0"/>
  <polygon points="158.9,68.0 158.9,63.1 149.8,67.7 149.8,72.5" fill="#80b0c8"/>
  <polygon points="134.4,54.2 148.4,61.2 119.0,75.9 105.0,68.9" fill="#3090d8"/>
  <polygon points="148.4,76.8 148.4,61.2 119.0,75.9 119.0,91.5" fill="#2878c0"/>
  <polygon points="105.0,84.5 105.0,68.9 119.0,75.9 119.0,91.5" fill="#2068a8"/>
  <polygon points="105.0,72.5 105.0,68.9 119.0,75.9 119.0,79.5" fill="#d44030"/>
  <polygon points="148.4,64.8 148.4,61.2 119.0,75.9 119.0,79.5" fill="#b83828"/>
  <polygon points="156.9,72.3 158.6,72.3 158.6,74.0 156.9,75.7 155.2,75.7 155.2,74.0" fill="#222"/>
  <polygon points="156.9,73.4 157.5,73.4 157.5,74.0 156.9,74.6 156.3,74.6 156.3,74.0" fill="#888"/>
  <polygon points="126.1,87.7 127.8,87.7 127.8,89.4 126.1,91.1 124.4,91.1 124.4,89.4" fill="#222"/>
  <polygon points="126.1,88.8 126.7,88.8 126.7,89.4 126.1,90.0 125.5,90.0 125.5,89.4" fill="#888"/>
  <polygon points="98.7,45.6 107.1,49.8 99.4,53.7 91.0,49.5" fill="#808080"/>
  <polygon points="107.1,50.3 107.1,49.8 99.4,53.7 99.4,54.1" fill="#707070"/>
  <polygon points="91.0,49.9 91.0,49.5 99.4,53.7 99.4,54.1" fill="#686868"/>
  <polygon points="98.0,48.8 98.0,38.2 99.4,38.9 99.4,49.5" fill="#705838"/>
  <polygon points="99.4,49.5 99.4,38.9 98.3,39.5 98.3,50.0" fill="#604830"/>
  <polygon points="92.1,37.7 104.6,36.2 105.3,44.2 92.8,44.7" fill="#287028"/>
  <polygon points="93.4,35.3 103.3,34.2 104.0,40.6 94.1,40.9" fill="#309838"/>
  <polygon points="95.1,33.7 101.6,33.2 102.3,37.4 95.8,37.4" fill="#40a840"/>
  <polygon points="21.0,17.5 21.0,-52.1 77.0,-24.1 77.0,45.5" fill="#c07850"/>
  <polygon points="30.8,-19.6 30.8,-35.2 44.8,-28.2 44.8,-12.6" fill="#3a4858"/>
  <polygon points="54.6,-7.7 54.6,-23.3 68.6,-16.3 68.6,-0.7" fill="#3a4858"/>
  <polygon points="21.0,-18.0 21.0,-19.0 77.0,9.0 77.0,10.0" fill="#a06838"/>
  <polygon points="-70.0,63.0 -70.0,-6.6 -14.0,21.4 -14.0,91.0" fill="#a05838"/>
  <polygon points="-63.0,62.9 -63.0,34.1 -21.0,55.1 -21.0,83.9" fill="#80a8c0"/>
  <polygon points="-42.4,73.2 -42.4,44.4 -41.6,44.8 -41.6,73.6" fill="#685840"/>
  <polygon points="-70.0,27.5 -70.0,26.5 -14.0,54.5 -14.0,55.5" fill="#884828"/>
  <polygon points="-60.2,25.9 -60.2,10.3 -46.2,17.3 -46.2,32.9" fill="#2a3040"/>
  <polygon points="-36.4,37.8 -36.4,22.2 -22.4,29.2 -22.4,44.8" fill="#2a3040"/>
  <polygon points="77.0,45.5 77.0,-24.1 -14.0,21.4 -14.0,91.0" fill="#b06840"/>
  <polygon points="74.2,43.3 74.2,14.5 8.4,47.4 8.4,76.2" fill="#a8d8f0"/>
  <polygon points="44.5,58.1 44.5,29.3 43.7,29.8 43.7,58.6" fill="#806040"/>
  <polygon points="2.8,82.6 2.8,53.8 -11.2,60.8 -11.2,89.6" fill="#4a3020"/>
  <polygon points="1.4,78.5 1.4,56.9 -9.8,62.5 -9.8,84.1" fill="#80b0c8"/>
  <polygon points="77.0,10.0 77.0,9.0 -14.0,54.5 -14.0,55.5" fill="#986838"/>
  <polygon points="72.8,5.6 72.8,-11.2 57.4,-3.5 57.4,13.3" fill="#3a4858"/>
  <polygon points="73.2,6.0 73.2,5.4 57.0,13.5 57.0,14.1" fill="#d0a878"/>
  <polygon points="51.8,16.1 51.8,-0.7 36.4,7.0 36.4,23.8" fill="#3a4858"/>
  <polygon points="52.2,16.5 52.2,15.9 36.0,24.0 36.0,24.6" fill="#d0a878"/>
  <polygon points="30.8,26.6 30.8,9.8 15.4,17.5 15.4,34.3" fill="#3a4858"/>
  <polygon points="31.2,27.0 31.2,26.4 15.0,34.5 15.0,35.1" fill="#d0a878"/>
  <polygon points="7.0,38.5 7.0,21.7 -8.4,29.4 -8.4,46.2" fill="#3a4858"/>
  <polygon points="7.4,38.9 7.4,38.3 -8.8,46.4 -8.8,47.0" fill="#d0a878"/>
  <polygon points="21.0,-54.2 81.2,-24.1 -14.0,23.5 -74.2,-6.6" fill="#606060"/>
  <polygon points="81.2,-22.9 81.2,-24.1 -14.0,23.5 -14.0,24.7" fill="#505050"/>
  <polygon points="-74.2,-5.4 -74.2,-6.6 -14.0,23.5 -14.0,24.7" fill="#484848"/>
  <polygon points="76.3,10.4 98.7,27.7 87.3,33.3 64.9,16.1" fill="#cc3030"/>
  <polygon points="64.9,16.1 87.3,33.3 76.0,39.0 53.6,21.8" fill="#f0e8d8"/>
  <polygon points="53.6,21.8 76.0,39.0 64.6,44.7 42.2,27.5" fill="#cc3030"/>
  <polygon points="42.2,27.5 64.6,44.7 53.2,50.4 30.8,33.2" fill="#f0e8d8"/>
  <polygon points="30.8,33.2 53.2,50.4 41.8,56.1 19.4,38.9" fill="#cc3030"/>
  <polygon points="19.4,38.9 41.8,56.1 30.4,61.8 8.1,44.6" fill="#f0e8d8"/>
  <polygon points="8.1,44.6 30.4,61.8 19.1,67.5 -3.3,50.3" fill="#cc3030"/>
  <polygon points="-3.3,50.3 19.1,67.5 7.7,73.1 -14.7,56.0" fill="#f0e8d8"/>
  <polygon points="98.7,29.8 98.7,27.7 7.7,73.1 7.7,75.3" fill="#b02020"/>
  <polygon points="-14.7,56.0 7.7,73.1 7.7,75.3 -14.7,58.1" fill="#901818"/>
  <polygon points="-65.8,29.7 -56.3,34.5 -73.1,47.7 -82.6,42.9" fill="#cc3030"/>
  <polygon points="-56.3,34.5 -46.8,39.2 -63.6,52.4 -73.1,47.7" fill="#f0e8d8"/>
  <polygon points="-46.8,39.2 -37.2,44.0 -54.0,57.2 -63.6,52.4" fill="#cc3030"/>
  <polygon points="-37.2,44.0 -27.7,48.7 -44.5,61.9 -54.0,57.2" fill="#f0e8d8"/>
  <polygon points="-27.7,48.7 -18.2,53.5 -35.0,66.7 -44.5,61.9" fill="#cc3030"/>
  <polygon points="-82.6,44.7 -82.6,42.9 -35.0,66.7 -35.0,68.5" fill="#901818"/>
  <polygon points="-18.2,53.5 -35.0,66.7 -35.0,68.5 -18.2,55.3" fill="#b02020"/>
  <polygon points="70.0,56.7 70.0,50.7 70.7,51.1 70.7,57.1" fill="#888"/>
  <polygon points="74.9,47.6 80.5,50.4 77.4,52.0 71.8,49.1" fill="#705838"/>
  <polygon points="80.5,50.9 80.5,50.4 77.4,52.0 77.4,52.4" fill="#604830"/>
  <polygon points="71.8,49.6 71.8,49.1 77.4,52.0 77.4,52.4" fill="#504028"/>
  <polygon points="66.5,48.7 73.5,48.7 74.2,52.6 65.8,52.6" fill="#e8d8b8"/>
  <polygon points="62.0,54.0 67.6,56.8 64.5,58.4 58.9,55.6" fill="#705838"/>
  <polygon points="67.6,57.3 67.6,56.8 64.5,58.4 64.5,58.9" fill="#604830"/>
  <polygon points="58.9,56.1 58.9,55.6 64.5,58.4 64.5,58.9" fill="#504028"/>
  <polygon points="58.9,56.1 58.9,52.8 64.5,55.6 64.5,58.9" fill="#504028"/>
  <polygon points="39.2,72.1 39.2,66.1 39.9,66.5 39.9,72.5" fill="#888"/>
  <polygon points="44.1,63.0 49.7,65.8 46.6,67.3 41.0,64.5" fill="#705838"/>
  <polygon points="49.7,66.3 49.7,65.8 46.6,67.3 46.6,67.8" fill="#604830"/>
  <polygon points="41.0,65.0 41.0,64.5 46.6,67.3 46.6,67.8" fill="#504028"/>
  <polygon points="35.7,64.1 42.7,64.1 43.4,68.0 35.0,68.0" fill="#e8d8b8"/>
  <polygon points="31.2,69.4 36.8,72.2 33.7,73.8 28.1,71.0" fill="#705838"/>
  <polygon points="36.8,72.7 36.8,72.2 33.7,73.8 33.7,74.3" fill="#604830"/>
  <polygon points="28.1,71.5 28.1,71.0 33.7,73.8 33.7,74.3" fill="#504028"/>
  <polygon points="28.1,71.5 28.1,68.2 33.7,71.0 33.7,74.3" fill="#504028"/>
  <polygon points="65.8,64.3 72.1,67.5 65.8,70.6 59.5,67.5" fill="#508030"/>
  <polygon points="72.1,71.0 72.1,67.5 65.8,70.6 65.8,74.2" fill="#407028"/>
  <polygon points="59.5,71.0 59.5,67.5 65.8,70.6 65.8,74.2" fill="#306020"/>
  <polygon points="66.1,65.8 68.2,64.7 68.9,67.2 66.4,67.7" fill="#d06848"/>
  <polygon points="30.8,81.8 37.1,85.0 30.8,88.1 24.5,85.0" fill="#508030"/>
  <polygon points="37.1,88.5 37.1,85.0 30.8,88.1 30.8,91.7" fill="#407028"/>
  <polygon points="24.5,88.5 24.5,85.0 30.8,88.1 30.8,91.7" fill="#306020"/>
  <polygon points="31.1,83.3 33.2,82.2 33.9,84.7 31.4,85.2" fill="#d06848"/>
  <polygon points="-3.5,96.7 4.9,100.9 -2.8,104.8 -11.2,100.6" fill="#808080"/>
  <polygon points="4.9,101.4 4.9,100.9 -2.8,104.8 -2.8,105.2" fill="#707070"/>
  <polygon points="-11.2,101.0 -11.2,100.6 -2.8,104.8 -2.8,105.2" fill="#686868"/>
  <polygon points="-4.2,99.9 -4.2,90.4 -2.8,91.1 -2.8,100.6" fill="#705838"/>
  <polygon points="-2.8,100.6 -2.8,91.1 -3.9,91.6 -3.9,101.1" fill="#604830"/>
  <polygon points="-10.1,89.6 2.4,88.1 3.1,96.2 -9.4,96.7" fill="#287028"/>
  <polygon points="-8.8,87.2 1.1,86.1 1.8,92.5 -8.1,92.9" fill="#309838"/>
  <polygon points="-7.1,85.7 -0.6,85.1 0.1,89.3 -6.4,89.4" fill="#40a840"/>
  <polygon points="29.4,94.5 29.4,60.9 30.1,61.3 30.1,94.9" fill="#555"/>
  <polygon points="29.4,58.3 32.2,59.7 29.4,61.1 26.6,59.7" fill="#e8d848"/>
  <polygon points="32.2,61.2 32.2,59.7 29.4,61.1 29.4,62.6" fill="#c8b838"/>
  <polygon points="26.6,61.2 26.6,59.7 29.4,61.1 29.4,62.6" fill="#b0a030"/>
  <polygon points="14.1,120.4 15.6,120.4 15.6,121.8 14.1,123.3 12.7,123.3 12.7,121.8" fill="#222"/>
  <polygon points="14.1,121.3 14.6,121.3 14.6,121.8 14.1,122.3 13.6,122.3 13.6,121.8" fill="#888"/>
  <polygon points="-6.9,130.9 -5.4,130.9 -5.4,132.3 -6.9,133.8 -8.3,133.8 -8.3,132.3" fill="#222"/>
  <polygon points="-6.9,131.8 -6.4,131.8 -6.4,132.3 -6.9,132.8 -7.4,132.8 -7.4,132.3" fill="#888"/>
  <polygon points="5.6,107.8 18.2,114.1 -12.6,129.5 -25.2,123.2" fill="#d04030"/>
  <polygon points="18.2,119.5 18.2,114.1 -12.6,129.5 -12.6,134.9" fill="#b83828"/>
  <polygon points="-25.2,128.6 -25.2,123.2 -12.6,129.5 -12.6,134.9" fill="#a03020"/>
  <polygon points="1.8,106.6 12.2,111.8 -0.4,118.1 -10.8,112.9" fill="#90b8d0"/>
  <polygon points="12.2,116.0 12.2,111.8 -0.4,118.1 -0.4,122.3" fill="#b83828"/>
  <polygon points="-10.8,117.1 -10.8,112.9 -0.4,118.1 -0.4,122.3" fill="#a03020"/>
</svg>