<svg xmlns="http://www.w3.org/2000/svg" viewBox="-128 -66 316 225" width="316" height="225">
  <polygon points="35.0,0.3 179.2,72.4 23.8,150.1 -120.4,78.0" fill="#c0b8a8"/>
  <polygon points="179.2,73.3 179.2,72.4 23.8,150.1 23.8,151.0" fill="#a8a090"/>
  <polygon points="-120.4,78.9 -120.4,78.0 23.8,150.1 23.8,151.0" fill="#989080"/>
  <polygon points="133.0,48.9 175.0,69.9 19.6,147.6 -22.4,126.6" fill="#606060"/>
  <polygon points="146.4,62.5 135.2,68.1 136.4,68.7 147.6,63.1" fill="#d8c040"/>
  <polygon points="124.0,73.7 112.8,79.3 114.0,79.9 125.2,74.3" fill="#d8c040"/>
  <polygon points="101.6,84.9 90.4,90.5 91.6,91.1 102.8,85.5" fill="#d8c040"/>
  <polygon points="79.2,96.1 68.0,101.7 69.2,102.3 80.4,96.7" fill="#d8c040"/>
  <polygon points="56.8,107.3 45.6,112.9 46.8,113.5 58.0,107.9" fill="#d8c040"/>
  <polygon points="34.4,118.5 23.2,124.1 24.4,124.7 35.6,119.1" fill="#d8c040"/>
  <polygon points="12.0,129.7 0.8,135.3 2.0,135.9 13.2,130.3" fill="#d8c040"/>
  <polygon points="99.4,31.9 133.0,48.7 -22.4,126.4 -56.0,109.6" fill="#d0c8bc"/>
  <polygon points="99.4,31.8 133.0,48.6 132.4,48.9 98.8,32.1" fill="#a89e90"/>
  <polygon points="78.4,42.3 112.0,59.1 111.4,59.4 77.8,42.6" fill="#a89e90"/>
  <polygon points="57.4,52.8 91.0,69.6 90.4,69.9 56.8,53.1" fill="#a89e90"/>
  <polygon points="36.4,63.3 70.0,80.1 69.4,80.4 35.8,63.6" fill="#a89e90"/>
  <polygon points="15.4,73.8 49.0,90.6 48.4,90.9 14.8,74.1" fill="#a89e90"/>
  <polygon points="-5.6,84.3 28.0,101.1 27.4,101.4 -6.2,84.6" fill="#a89e90"/>
  <polygon points="-26.6,94.8 7.0,111.6 6.4,111.9 -27.2,95.1" fill="#a89e90"/>
  <polygon points="-47.6,105.3 -14.0,122.1 -14.6,122.4 -48.2,105.6" fill="#a89e90"/>
  <polygon points="133.0,48.9 133.0,47.6 -22.4,125.3 -22.4,126.6" fill="#c0b8a8"/>
  <polygon points="132.4,47.3 133.0,47.6 -22.4,125.3 -23.0,125.0" fill="#dad2c0"/>
  <polygon points="154.7,69.7 156.8,69.7 156.8,71.8 154.7,73.8 152.7,73.8 152.7,71.8" fill="#111"/>
  <polygon points="154.7,69.7 156.8,69.7 157.9,70.3 155.8,70.3" fill="#1a1a1a"/>
  <polygon points="154.7,73.8 152.7,73.8 153.8,74.4 155.8,74.4" fill="#1a1a1a"/>
  <polygon points="152.7,73.8 152.7,71.8 153.8,72.3 153.8,74.4" fill="#1a1a1a"/>
  <polygon points="152.7,71.8 154.7,69.7 155.8,70.3 153.8,72.3" fill="#1a1a1a"/>
  <polygon points="155.8,70.3 157.9,70.3 157.9,72.3 155.8,74.4 153.8,74.4 153.8,72.3" fill="#222"/>
  <polygon points="155.9,71.0 157.3,71.0 157.3,72.4 155.9,73.8 154.5,73.8 154.5,72.4" fill="#bbb"/>
  <polygon points="155.9,71.4 156.8,71.4 156.8,72.4 155.9,73.3 155.0,73.3 155.0,72.4" fill="#777"/>
  <polygon points="155.9,72.0 156.3,72.0 156.3,72.4 155.9,72.7 155.5,72.7 155.5,72.4" fill="#222"/>
  <polygon points="130.9,81.6 133.0,81.6 133.0,83.7 130.9,85.7 128.8,85.7 128.8,83.7" fill="#111"/>
  <polygon points="130.9,81.6 133.0,81.6 134.1,82.2 132.0,82.2" fill="#1a1a1a"/>
  <polygon points="130.9,85.7 128.8,85.7 130.0,86.3 132.0,86.3" fill="#1a1a1a"/>
  <polygon points="128.8,85.7 128.8,83.7 130.0,84.2 130.0,86.3" fill="#1a1a1a"/>
  <polygon points="128.8,83.7 130.9,81.6 132.0,82.2 130.0,84.2" fill="#1a1a1a"/>
  <polygon points="132.0,82.2 134.1,82.2 134.1,84.2 132.0,86.3 130.0,86.3 130.0,84.2" fill="#222"/>
  <polygon points="132.1,82.9 133.5,82.9 133.5,84.3 132.1,85.7 130.7,85.7 130.7,84.3" fill="#bbb"/>
  <polygon points="132.1,83.3 133.0,83.3 133.0,84.3 132.1,85.2 131.2,85.2 131.2,84.3" fill="#777"/>
  <polygon points="132.1,83.9 132.5,83.9 132.5,84.3 132.1,84.6 131.7,84.6 131.7,84.3" fill="#222"/>
  <polygon points="112.4,82.6 124.7,88.8 124.7,77.4 112.4,71.2" fill="#9b8a22"/>
  <polygon points="118.4,85.6 118.7,85.8 118.7,74.4 118.4,74.2" fill="#0e2a48"/>
  <polygon points="113.0,76.6 124.1,82.2 124.1,82.0 113.0,76.4" fill="#0e2a48"/>
  <polygon points="118.0,80.7 118.2,80.8 118.2,79.6 118.0,79.5" fill="#999"/>
  <polygon points="118.9,81.1 119.1,81.2 119.1,80.0 118.9,79.9" fill="#999"/>
  <polygon points="117.2,74.1 119.9,75.4 119.9,75.1 117.2,73.8" fill="#d02818"/>
  <polygon points="159.2,71.5 158.3,71.9 158.2,68.8 153.4,71.2 153.2,74.5 147.8,77.2 147.8,67.8 153.1,65.2 154.4,69.3 159.2,67.4" fill="#c5beb0"/>
  <polygon points="147.0,61.3 159.2,67.4 154.4,69.3 142.2,63.2" fill="#e8e0d0"/>
  <polygon points="142.2,63.2 154.4,69.3 153.1,65.2 140.9,59.1" fill="#78a8c8"/>
  <polygon points="140.9,59.1 153.1,65.2 147.8,67.8 135.6,61.7" fill="#e8e0d0"/>
  <polygon points="154.4,68.6 147.8,72.0 147.8,67.8 153.1,65.2" fill="#78a8c8"/>
  <polygon points="154.4,68.6 153.7,69.0 152.3,65.6 153.1,65.2" fill="#c5beb0"/>
  <polygon points="148.6,71.6 147.8,72.0 147.8,67.8 148.6,67.5" fill="#c5beb0"/>
  <polygon points="152.1,70.4 150.7,71.1 150.7,70.8 152.1,70.1" fill="#bbb"/>
  <polygon points="154.0,68.1 154.8,68.5 154.2,68.8 153.4,68.4" fill="#444"/>
  <polygon points="154.8,69.0 154.8,68.5 154.2,68.8 154.2,69.3" fill="#333"/>
  <polygon points="153.4,68.9 153.4,68.4 154.2,68.8 154.2,69.3" fill="#222"/>
  <polygon points="135.6,71.1 147.8,77.2 147.8,67.8 135.6,61.7" fill="#a7a195"/>
  <polygon points="135.6,61.7 147.8,67.8 147.8,65.8 135.6,59.7" fill="#9b8a22"/>
  <polygon points="147.8,77.2 134.5,83.8 134.4,80.7 129.6,83.1 129.4,86.4 124.7,88.8 124.7,77.4 147.8,65.8" fill="#b7a328"/>
  <polygon points="135.6,59.7 147.8,65.8 124.7,77.4 112.4,71.2" fill="#d8c030"/>
  <polygon points="147.8,66.9 124.7,78.5 124.7,78.1 147.8,66.5" fill="#d8c030"/>
  <polygon points="159.9,71.1 159.2,71.5 159.2,70.3 159.9,70.0" fill="#1a1a1a"/>
  <polygon points="159.0,69.5 159.9,70.0 159.2,70.3 158.3,69.9" fill="#2a2a2a"/>
  <polygon points="124.7,88.8 124.0,89.1 124.0,88.0 124.7,87.6" fill="#1a1a1a"/>
  <polygon points="111.8,83.0 124.0,89.1 124.0,88.0 111.8,81.8" fill="#0e0e0e"/>
  <polygon points="112.4,81.5 124.7,87.6 124.0,88.0 111.8,81.8" fill="#2a2a2a"/>
  <polygon points="113.2,80.4 115.6,81.6 115.3,81.8 113.0,80.6" fill="#e03020"/>
  <polygon points="115.6,82.4 115.6,81.6 115.3,81.8 115.3,82.6" fill="#c02818"/>
  <polygon points="113.0,81.4 113.0,80.6 115.3,81.8 115.3,82.6" fill="#b02010"/>
  <polygon points="121.5,84.5 123.9,85.7 123.6,85.9 121.2,84.7" fill="#e03020"/>
  <polygon points="123.9,86.5 123.9,85.7 123.6,85.9 123.6,86.7" fill="#c02818"/>
  <polygon points="121.2,85.5 121.2,84.7 123.6,85.9 123.6,86.7" fill="#b02010"/>
  <polygon points="116.4,84.9 119.3,86.3 119.3,85.7 116.4,84.3" fill="#e8d8a0"/>
  <polygon points="98.7,42.8 107.1,47.0 99.4,50.9 91.0,46.7" fill="#808080"/>
  <polygon points="107.1,47.5 107.1,47.0 99.4,50.9 99.4,51.3" fill="#707070"/>
  <polygon points="91.0,47.1 91.0,46.7 99.4,50.9 99.4,51.3" fill="#686868"/>
  <polygon points="96.6,38.0 98.6,39.0 97.2,39.7 95.2,38.7" fill="#705838"/>
  <polygon points="98.6,49.0 98.6,39.0 97.2,39.7 97.2,49.7" fill="#705838"/>
  <polygon points="95.2,48.8 95.2,38.7 97.2,39.7 97.2,49.7" fill="#604830"/>
  <polygon points="104.3,47.9 94.1,47.0 85.5,43.0 83.6,37.9 89.5,34.6 99.7,35.6 108.3,40.2 110.2,45.3" fill="#1e5820"/>
  <polygon points="103.9,45.4 94.2,44.5 86.1,40.8 84.3,35.9 89.8,32.8 99.5,33.7 107.7,38.1 109.5,43.0" fill="#287028"/>
  <polygon points="102.6,42.1 94.8,41.3 88.1,38.4 86.6,34.4 91.1,31.8 99.0,32.6 105.6,36.3 107.1,40.2" fill="#329838"/>
  <polygon points="100.6,38.4 95.4,37.9 91.1,36.1 90.2,33.6 93.2,31.7 98.4,32.2 102.6,34.7 103.6,37.2" fill="#46b048"/>
  <polygon points="21.0,17.5 21.0,-52.1 77.0,-24.1 77.0,45.5" fill="#c07850"/>
  <polygon points="30.8,-19.6 30.8,-35.2 44.8,-28.2 44.8,-12.6" fill="#3a4858"/>
  <polygon points="54.6,-7.7 54.6,-23.3 68.6,-16.3 68.6,-0.7" fill="#3a4858"/>
  <polygon points="21.0,-18.0 21.0,-19.0 77.0,9.0 77.0,10.0" fill="#a06838"/>
  <polygon points="-70.0,63.0 -70.0,-6.6 -14.0,21.4 -14.0,91.0" fill="#a05838"/>
  <polygon points="-63.0,62.9 -63.0,34.1 -21.0,55.1 -21.0,83.9" fill="#80a8c0"/>
  <polygon points="-42.4,73.2 -42.4,44.4 -41.6,44.8 -41.6,73.6" fill="#685840"/>
  <polygon points="-70.0,27.5 -70.0,26.5 -14.0,54.5 -14.0,55.5" fill="#884828"/>
  <polygon points="-60.2,25.9 -60.2,10.3 -46.2,17.3 -46.2,32.9" fill="#2a3040"/>
  <polygon points="-60.9,26.8 -60.9,25.5 -45.5,33.2 -45.5,34.5" fill="#c89c70"/>
  <polygon points="-53.5,29.2 -53.5,13.6 -52.9,14.0 -52.9,29.6" fill="#c89c70"/>
  <polygon points="-60.2,18.3 -60.2,17.9 -46.2,24.9 -46.2,25.3" fill="#c89c70"/>
  <polygon points="-36.4,37.8 -36.4,22.2 -22.4,29.2 -22.4,44.8" fill="#2a3040"/>
  <polygon points="-37.1,38.7 -37.1,37.5 -21.7,45.1 -21.7,46.3" fill="#c89c70"/>
  <polygon points="-29.7,41.1 -29.7,25.5 -29.1,25.9 -29.1,41.5" fill="#c89c70"/>
  <polygon points="-36.4,30.2 -36.4,29.8 -22.4,36.8 -22.4,37.2" fill="#c89c70"/>
  <polygon points="77.0,45.5 77.0,-24.1 -14.0,21.4 -14.0,91.0" fill="#b06840"/>
  <polygon points="74.2,46.9 74.2,41.5 8.4,74.4 8.4,79.8" fill="#5a3820"/>
  <polygon points="74.2,41.5 74.2,14.5 8.4,47.4 8.4,74.4" fill="#a8d8f0"/>
  <polygon points="52.6,52.3 52.6,25.3 51.9,25.6 51.9,52.6" fill="#806040"/>
  <polygon points="30.7,63.3 30.7,36.3 30.0,36.6 30.0,63.6" fill="#806040"/>
  <polygon points="74.2,21.5 74.2,21.0 8.4,53.9 8.4,54.4" fill="#806040"/>
  <polygon points="74.2,14.5 74.2,13.5 8.4,46.4 8.4,47.4" fill="#503018"/>
  <polygon points="3.5,82.2 3.5,51.7 -11.9,59.4 -11.9,90.0" fill="#5a3820"/>
  <polygon points="2.8,82.6 2.8,53.8 -11.2,60.8 -11.2,89.6" fill="#4a3020"/>
  <polygon points="1.1,72.6 1.1,56.4 -9.5,61.8 -9.5,78.0" fill="#9cc8e0"/>
  <polygon points="1.7,79.6 1.7,73.8 -10.1,79.7 -10.1,85.4" fill="#3a2418"/>
  <polygon points="2.1,53.6 2.1,52.0 -10.5,58.3 -10.5,59.9" fill="#a0c8d8"/>
  <polygon points="0.3,70.7 0.3,69.9 -0.8,70.5 -0.8,71.2" fill="#d8a838"/>
  <polygon points="3.9,82.0 5.6,82.9 -10.6,91.0 -12.3,90.2" fill="#888080"/>
  <polygon points="77.0,10.0 77.0,9.0 -14.0,54.5 -14.0,55.5" fill="#986838"/>
  <polygon points="72.8,5.6 72.8,-11.2 57.4,-3.5 57.4,13.3" fill="#3a4858"/>
  <polygon points="73.5,6.7 73.5,5.2 56.7,13.6 56.7,15.1" fill="#d0a878"/>
  <polygon points="73.5,-11.6 73.5,-12.8 56.7,-4.4 56.7,-3.2" fill="#8a5828"/>
  <polygon points="65.5,9.3 65.5,-7.5 64.8,-7.2 64.8,9.6" fill="#d0a878"/>
  <polygon points="72.8,-2.6 72.8,-3.0 57.4,4.7 57.4,5.1" fill="#d0a878"/>
  <polygon points="51.8,16.1 51.8,-0.7 36.4,7.0 36.4,23.8" fill="#3a4858"/>
  <polygon points="52.5,17.2 52.5,15.8 35.7,24.1 35.7,25.6" fill="#d0a878"/>
  <polygon points="52.5,-1.1 52.5,-2.2 35.7,6.1 35.7,7.3" fill="#8a5828"/>
  <polygon points="44.5,19.8 44.5,3.0 43.8,3.3 43.8,20.1" fill="#d0a878"/>
  <polygon points="51.8,7.9 51.8,7.5 36.4,15.2 36.4,15.6" fill="#d0a878"/>
  <polygon points="30.8,26.6 30.8,9.8 15.4,17.5 15.4,34.3" fill="#3a4858"/>
  <polygon points="31.5,27.7 31.5,26.2 14.7,34.6 14.7,36.1" fill="#d0a878"/>
  <polygon points="31.5,9.4 31.5,8.2 14.7,16.6 14.7,17.8" fill="#8a5828"/>
  <polygon points="23.5,30.3 23.5,13.5 22.8,13.8 22.8,30.6" fill="#d0a878"/>
  <polygon points="30.8,18.4 30.8,18.0 15.4,25.7 15.4,26.1" fill="#d0a878"/>
  <polygon points="7.0,38.5 7.0,21.7 -8.4,29.4 -8.4,46.2" fill="#3a4858"/>
  <polygon points="7.7,39.6 7.7,38.1 -9.1,46.5 -9.1,48.0" fill="#d0a878"/>
  <polygon points="7.7,21.3 7.7,20.1 -9.1,28.5 -9.1,29.7" fill="#8a5828"/>
  <polygon points="-0.3,42.2 -0.3,25.4 -1.1,25.7 -1.1,42.5" fill="#d0a878"/>
  <polygon points="7.0,30.3 7.0,29.9 -8.4,37.6 -8.4,38.0" fill="#d0a878"/>
  <polygon points="77.0,-21.9 77.0,-24.1 -14.0,21.4 -14.0,23.6" fill="#704830"/>
  <polygon points="-70.0,-4.4 -70.0,-6.6 -14.0,21.4 -14.0,23.6" fill="#684028"/>
  <polygon points="21.0,-58.4 81.2,-28.3 -14.0,19.3 -74.2,-10.8" fill="#787878"/>
  <polygon points="21.0,-48.5 68.6,-24.7 -14.0,16.6 -61.6,-7.2" fill="#4a4a4a"/>
  <polygon points="81.2,-24.1 81.2,-28.3 -14.0,19.3 -14.0,23.5" fill="#606060"/>
  <polygon points="-74.2,-6.6 -74.2,-10.8 -14.0,19.3 -14.0,23.5" fill="#585858"/>
  <polygon points="3.5,-27.8 17.5,-20.8 3.5,-13.8 -10.5,-20.8" fill="#909090"/>
  <polygon points="17.5,-15.9 17.5,-20.8 3.5,-13.8 3.5,-8.9" fill="#787878"/>
  <polygon points="-10.5,-15.9 -10.5,-20.8 3.5,-13.8 3.5,-8.9" fill="#686868"/>
  <polygon points="53.2,-28.6 55.7,-27.3 53.2,-26.1 50.7,-27.3" fill="#a0a0a0"/>
  <polygon points="55.7,-21.3 55.7,-27.3 53.2,-26.1 53.2,-20.1" fill="#888888"/>
  <polygon points="50.7,-21.3 50.7,-27.3 53.2,-26.1 53.2,-20.1" fill="#787878"/>
  <polygon points="-42.0,-18.2 -39.8,-17.1 -42.0,-16.0 -44.2,-17.1" fill="#a0a0a0"/>
  <polygon points="-39.8,-11.7 -39.8,-17.1 -42.0,-16.0 -42.0,-10.6" fill="#888888"/>
  <polygon points="-44.2,-11.7 -44.2,-17.1 -42.0,-16.0 -42.0,-10.6" fill="#787878"/>
  <polygon points="74.2,12.1 74.2,16.3 78.4,14.2" fill="#404040"/>
  <polygon points="-12.6,55.5 -12.6,59.7 -8.4,57.6" fill="#404040"/>
  <polygon points="76.3,10.4 98.7,27.7 87.3,33.3 64.9,16.1" fill="#cc3030"/>
  <polygon points="64.9,16.1 87.3,33.3 76.0,39.0 53.6,21.8" fill="#f0e8d8"/>
  <polygon points="53.6,21.8 76.0,39.0 64.6,44.7 42.2,27.5" fill="#cc3030"/>
  <polygon points="42.2,27.5 64.6,44.7 53.2,50.4 30.8,33.2" fill="#f0e8d8"/>
  <polygon points="30.8,33.2 53.2,50.4 41.8,56.1 19.4,38.9" fill="#cc3030"/>
  <polygon points="19.4,38.9 41.8,56.1 30.4,61.8 8.1,44.6" fill="#f0e8d8"/>
  <polygon points="8.1,44.6 30.4,61.8 19.1,67.5 -3.3,50.3" fill="#cc3030"/>
  <polygon points="-3.3,50.3 19.1,67.5 7.7,73.1 -14.7,56.0" fill="#f0e8d8"/>
  <polygon points="98.7,30.3 98.7,27.7 87.3,33.3 87.3,36.0" fill="#b02828"/>
  <polygon points="87.3,36.0 87.3,33.3 76.0,39.0 76.0,41.7" fill="#e0d8c8"/>
  <polygon points="76.0,41.7 76.0,39.0 64.6,44.7 64.6,47.4" fill="#b02828"/>
  <polygon points="64.6,47.4 64.6,44.7 53.2,50.4 53.2,53.0" fill="#e0d8c8"/>
  <polygon points="53.2,53.0 53.2,50.4 41.8,56.1 41.8,58.7" fill="#b02828"/>
  <polygon points="41.8,58.7 41.8,56.1 30.4,61.8 30.4,64.4" fill="#e0d8c8"/>
  <polygon points="30.4,64.4 30.4,61.8 19.1,67.5 19.1,70.1" fill="#b02828"/>
  <polygon points="19.1,70.1 19.1,67.5 7.7,73.1 7.7,75.8" fill="#e0d8c8"/>
  <polygon points="-14.7,56.0 7.7,73.1 7.7,75.8 -14.7,58.6" fill="#901818"/>
  <polygon points="-65.8,29.7 -56.3,34.5 -73.1,47.7 -82.6,42.9" fill="#cc3030"/>
  <polygon points="-56.3,34.5 -46.8,39.2 -63.6,52.4 -73.1,47.7" fill="#f0e8d8"/>
  <polygon points="-46.8,39.2 -37.2,44.0 -54.0,57.2 -63.6,52.4" fill="#cc3030"/>
  <polygon points="-37.2,44.0 -27.7,48.7 -44.5,61.9 -54.0,57.2" fill="#f0e8d8"/>
  <polygon points="-27.7,48.7 -18.2,53.5 -35.0,66.7 -44.5,61.9" fill="#cc3030"/>
  <polygon points="-82.6,44.7 -82.6,42.9 -35.0,66.7 -35.0,68.5" fill="#901818"/>
  <polygon points="-18.2,53.5 -35.0,66.7 -35.0,68.5 -18.2,55.3" fill="#b02020"/>
  <polygon points="72.1,57.0 72.1,49.8 72.9,50.3 72.9,57.5" fill="#888"/>
  <polygon points="78.0,46.1 84.7,49.5 81.0,51.3 74.3,48.0" fill="#705838"/>
  <polygon points="84.7,50.1 84.7,49.5 81.0,51.3 81.0,51.9" fill="#604830"/>
  <polygon points="74.3,48.6 74.3,48.0 81.0,51.3 81.0,51.9" fill="#504028"/>
  <polygon points="67.9,47.5 76.3,47.5 77.1,52.1 67.1,52.1" fill="#e8d8b8"/>
  <polygon points="62.5,53.9 69.2,57.2 65.5,59.1 58.8,55.7" fill="#705838"/>
  <polygon points="69.2,57.8 69.2,57.2 65.5,59.1 65.5,59.7" fill="#604830"/>
  <polygon points="58.8,56.3 58.8,55.7 65.5,59.1 65.5,59.7" fill="#504028"/>
  <polygon points="58.8,56.3 58.8,52.4 65.5,55.8 65.5,59.7" fill="#504028"/>
  <polygon points="48.3,69.0 48.3,61.8 49.1,62.2 49.1,69.4" fill="#888"/>
  <polygon points="54.2,58.0 60.9,61.4 57.2,63.2 50.5,59.9" fill="#705838"/>
  <polygon points="60.9,62.0 60.9,61.4 57.2,63.2 57.2,63.8" fill="#604830"/>
  <polygon points="50.5,60.5 50.5,59.9 57.2,63.2 57.2,63.8" fill="#504028"/>
  <polygon points="44.1,59.4 52.5,59.4 53.3,64.0 43.3,64.0" fill="#e8d8b8"/>
  <polygon points="38.7,65.8 45.4,69.1 41.7,71.0 35.0,67.6" fill="#705838"/>
  <polygon points="45.4,69.7 45.4,69.1 41.7,71.0 41.7,71.6" fill="#604830"/>
  <polygon points="35.0,68.2 35.0,67.6 41.7,71.0 41.7,71.6" fill="#504028"/>
  <polygon points="35.0,68.2 35.0,64.3 41.7,67.7 41.7,71.6" fill="#504028"/>
  <polygon points="24.5,80.8 24.5,73.6 25.3,74.1 25.3,81.3" fill="#888"/>
  <polygon points="30.4,69.9 37.1,73.3 33.4,75.1 26.7,71.8" fill="#705838"/>
  <polygon points="37.1,73.9 37.1,73.3 33.4,75.1 33.4,75.7" fill="#604830"/>
  <polygon points="26.7,72.4 26.7,71.8 33.4,75.1 33.4,75.7" fill="#504028"/>
  <polygon points="20.3,71.3 28.7,71.3 29.5,75.9 19.5,75.9" fill="#e8d8b8"/>
  <polygon points="14.9,77.7 21.6,81.0 17.9,82.9 11.2,79.5" fill="#705838"/>
  <polygon points="21.6,81.6 21.6,81.0 17.9,82.9 17.9,83.5" fill="#604830"/>
  <polygon points="11.2,80.1 11.2,79.5 17.9,82.9 17.9,83.5" fill="#504028"/>
  <polygon points="11.2,80.1 11.2,76.2 17.9,79.6 17.9,83.5" fill="#504028"/>
  <polygon points="65.8,64.3 72.1,67.5 65.8,70.6 59.5,67.5" fill="#508030"/>
  <polygon points="72.1,71.0 72.1,67.5 65.8,70.6 65.8,74.2" fill="#407028"/>
  <polygon points="59.5,71.0 59.5,67.5 65.8,70.6 65.8,74.2" fill="#306020"/>
  <polygon points="65.0,65.3 66.2,64.6 66.6,66.1 65.4,66.1" fill="#d06848"/>
  <polygon points="67.3,66.8 68.4,66.1 68.7,67.5 67.7,67.4" fill="#e8c040"/>
  <polygon points="63.4,67.3 64.5,66.7 64.8,68.0 63.8,68.0" fill="#b070c0"/>
  <polygon points="30.8,81.8 37.1,85.0 30.8,88.1 24.5,85.0" fill="#508030"/>
  <polygon points="37.1,88.5 37.1,85.0 30.8,88.1 30.8,91.7" fill="#407028"/>
  <polygon points="24.5,88.5 24.5,85.0 30.8,88.1 30.8,91.7" fill="#306020"/>
  <polygon points="30.0,82.8 31.2,82.1 31.6,83.6 30.4,83.6" fill="#d06848"/>
  <polygon points="32.3,84.3 33.4,83.6 33.7,85.0 32.7,84.9" fill="#e8c040"/>
  <polygon points="28.4,84.8 29.5,84.2 29.8,85.5 28.8,85.5" fill="#b070c0"/>
  <polygon points="-3.5,93.9 4.9,98.1 -2.8,102.0 -11.2,97.8" fill="#808080"/>
  <polygon points="4.9,98.6 4.9,98.1 -2.8,102.0 -2.8,102.4" fill="#707070"/>
  <polygon points="-11.2,98.2 -11.2,97.8 -2.8,102.0 -2.8,102.4" fill="#686868"/>
  <polygon points="-5.6,90.1 -3.6,91.1 -5.0,91.8 -7.0,90.8" fill="#705838"/>
  <polygon points="-3.6,100.1 -3.6,91.1 -5.0,91.8 -5.0,100.8" fill="#705838"/>
  <polygon points="-7.0,99.9 -7.0,90.8 -5.0,91.8 -5.0,100.8" fill="#604830"/>
  <polygon points="2.1,99.8 -8.1,98.9 -16.7,94.9 -18.6,89.8 -12.7,86.5 -2.5,87.5 6.1,92.1 8.0,97.2" fill="#1e5820"/>
  <polygon points="1.7,97.3 -8.0,96.4 -16.1,92.7 -17.9,87.8 -12.4,84.7 -2.7,85.6 5.5,90.0 7.3,94.9" fill="#287028"/>
  <polygon points="0.4,94.0 -7.4,93.2 -14.1,90.2 -15.6,86.3 -11.1,83.7 -3.2,84.5 3.4,88.1 4.9,92.1" fill="#329838"/>
  <polygon points="-1.6,90.3 -6.8,89.8 -11.1,88.0 -12.0,85.4 -9.0,83.6 -3.8,84.0 0.4,86.5 1.4,89.1" fill="#46b048"/>
  <polygon points="29.4,92.8 31.9,94.1 29.4,95.4 26.9,94.1" fill="#333"/>
  <polygon points="31.9,95.1 31.9,94.1 29.4,95.4 29.4,96.3" fill="#2a2a2a"/>
  <polygon points="26.9,95.1 26.9,94.1 29.4,95.4 29.4,96.3" fill="#222"/>
  <polygon points="29.4,93.5 29.4,60.9 30.5,61.5 30.5,94.1" fill="#555"/>
  <polygon points="29.4,93.5 29.4,60.9 28.3,61.5 28.3,94.1" fill="#444"/>
  <polygon points="29.3,79.3 29.3,78.9 30.6,79.5 30.6,80.0" fill="#666"/>
  <polygon points="29.5,79.3 29.5,78.9 28.2,79.5 28.2,80.0" fill="#555"/>
  <polygon points="30.5,61.9 30.5,61.5 37.5,65.0 37.5,65.4" fill="#555"/>
  <polygon points="37.2,63.8 40.7,65.5 37.2,67.3 33.7,65.5" fill="#e8d848"/>
  <polygon points="40.7,67.0 40.7,65.5 37.2,67.3 37.2,68.7" fill="#c8b838"/>
  <polygon points="33.7,67.0 33.7,65.5 37.2,67.3 37.2,68.7" fill="#b0a030"/>
  <polygon points="10.7,118.3 12.6,118.3 12.6,120.2 10.7,122.1 8.8,122.1 8.8,120.2" fill="#111"/>
  <polygon points="10.7,118.3 12.6,118.3 13.8,118.8 11.8,118.8" fill="#1a1a1a"/>
  <polygon points="10.7,122.1 8.8,122.1 9.9,122.7 11.8,122.7" fill="#1a1a1a"/>
  <polygon points="8.8,122.1 8.8,120.2 9.9,120.8 9.9,122.7" fill="#1a1a1a"/>
  <polygon points="8.8,120.2 10.7,118.3 11.8,118.8 9.9,120.8" fill="#1a1a1a"/>
  <polygon points="11.8,118.8 13.8,118.8 13.8,120.7 11.8,122.7 9.9,122.7 9.9,120.8" fill="#222"/>
  <polygon points="11.9,119.5 13.2,119.5 13.2,120.8 11.9,122.1 10.6,122.1 10.6,120.8" fill="#bbb"/>
  <polygon points="11.9,119.9 12.8,119.9 12.8,120.8 11.9,121.7 11.0,121.7 11.0,120.8" fill="#777"/>
  <polygon points="11.9,120.4 12.2,120.4 12.2,120.8 11.9,121.1 11.6,121.1 11.6,120.8" fill="#222"/>
  <polygon points="-6.7,127.0 -4.7,126.9 -4.7,128.9 -6.7,130.8 -8.6,130.8 -8.6,128.9" fill="#111"/>
  <polygon points="-6.7,127.0 -4.7,126.9 -3.6,127.5 -5.5,127.5" fill="#1a1a1a"/>
  <polygon points="-6.7,130.8 -8.6,130.8 -7.5,131.4 -5.5,131.4" fill="#1a1a1a"/>
  <polygon points="-8.6,130.8 -8.6,128.9 -7.5,129.4 -7.5,131.4" fill="#1a1a1a"/>
  <polygon points="-8.6,128.9 -6.7,127.0 -5.5,127.5 -7.5,129.4" fill="#1a1a1a"/>
  <polygon points="-5.5,127.5 -3.6,127.5 -3.6,129.4 -5.5,131.4 -7.5,131.4 -7.5,129.4" fill="#222"/>
  <polygon points="-5.5,128.2 -4.1,128.2 -4.1,129.5 -5.5,130.8 -6.8,130.8 -6.8,129.5" fill="#bbb"/>
  <polygon points="-5.5,128.6 -4.6,128.6 -4.6,129.5 -5.5,130.3 -6.3,130.3 -6.3,129.5" fill="#777"/>
  <polygon points="-5.5,129.1 -5.1,129.1 -5.1,129.5 -5.5,129.8 -5.8,129.8 -5.8,129.5" fill="#222"/>
  <polygon points="-22.4,127.8 -11.5,133.3 -11.5,128.7 -22.4,123.3" fill="#952e22"/>
  <polygon points="16.5,119.3 14.1,120.5 14.0,117.5 9.5,119.7 9.4,122.9 -3.2,129.2 -3.4,126.2 -7.8,128.4 -8.0,131.6 -11.5,133.3 -11.5,128.7 -5.9,125.9 -3.4,122.3 6.0,117.6 8.8,119.8 16.5,116.7" fill="#b03628"/>
  <polygon points="5.6,111.2 16.5,116.7 8.8,119.8 -2.1,114.3" fill="#d04030"/>
  <polygon points="-2.1,114.3 8.8,119.8 6.0,117.6 -4.9,112.1" fill="#78a8c8"/>
  <polygon points="-4.9,112.1 6.0,117.6 -3.4,122.3 -14.3,116.8" fill="#d04030"/>
  <polygon points="-14.3,116.8 -3.4,122.3 -5.9,125.9 -16.8,120.5" fill="#78a8c8"/>
  <polygon points="-16.8,120.5 -5.9,125.9 -11.5,128.7 -22.4,123.3" fill="#d04030"/>
  <polygon points="8.8,119.1 -5.9,126.4 -3.4,122.3 6.0,117.6" fill="#78a8c8"/>
  <polygon points="8.8,119.1 7.8,119.6 5.0,118.1 6.0,117.6" fill="#b03628"/>
  <polygon points="2.2,122.4 1.2,122.9 1.2,120.0 2.2,119.5" fill="#b03628"/>
  <polygon points="-4.8,125.9 -5.9,126.4 -3.4,122.3 -2.3,121.8" fill="#b03628"/>
  <polygon points="-1.7,124.9 -3.4,125.8 -3.4,125.5 -1.7,124.7" fill="#bbb"/>
  <polygon points="4.7,121.7 3.0,122.6 3.0,122.3 4.7,121.5" fill="#bbb"/>
  <polygon points="8.3,118.7 9.0,119.1 8.3,119.4 7.6,119.1" fill="#444"/>
  <polygon points="9.0,119.6 9.0,119.1 8.3,119.4 8.3,119.9" fill="#333"/>
  <polygon points="7.6,119.6 7.6,119.1 8.3,119.4 8.3,119.9" fill="#222"/>
  <polygon points="17.1,119.0 16.5,119.3 16.5,118.3 17.1,118.1" fill="#3a3025"/>
  <polygon points="16.4,117.7 17.1,118.1 16.5,118.3 15.8,118.0" fill="#4a4035"/>
  <polygon points="-11.5,133.3 -12.0,133.6 -12.0,132.6 -11.5,132.3" fill="#3a3025"/>
  <polygon points="-23.0,128.1 -12.0,133.6 -12.0,132.6 -23.0,127.2" fill="#2a2018"/>
  <polygon points="-22.4,126.9 -11.5,132.3 -12.0,132.6 -23.0,127.2" fill="#4a4035"/>
  <polygon points="-21.7,124.4 -18.6,125.9 -18.9,126.0 -22.0,124.5" fill="#e03020"/>
  <polygon points="-18.6,126.6 -18.6,125.9 -18.9,126.0 -18.9,126.7" fill="#c02818"/>
  <polygon points="-22.0,125.2 -22.0,124.5 -18.9,126.0 -18.9,126.7" fill="#b02010"/>
  <polygon points="-15.3,127.6 -12.2,129.1 -12.5,129.2 -15.5,127.7" fill="#e03020"/>
  <polygon points="-12.2,129.8 -12.2,129.1 -12.5,129.2 -12.5,130.0" fill="#c02818"/>
  <polygon points="-15.5,128.4 -15.5,127.7 -12.5,129.2 -12.5,130.0" fill="#b02010"/>
  <polygon points="-18.2,125.7 -15.7,126.9 -15.7,126.7 -18.2,125.5" fill="#d02818"/>
  <polygon points="-18.9,129.7 -16.1,131.1 -16.1,130.5 -18.9,129.1" fill="#e8d8a0"/>
</svg>