<svg xmlns="http://www.w3.org/2000/svg" viewBox="-141 -59 374 238" width="374" height="238">
  <polygon points="21.0,-9.9 225.4,92.3 71.4,169.3 -133.0,67.1" fill="#58a040"/>
  <polygon points="225.4,93.5 225.4,92.3 71.4,169.3 71.4,170.5" fill="#489030"/>
  <polygon points="-133.0,68.3 -133.0,67.1 71.4,169.3 71.4,170.5" fill="#388020"/>
  <polygon points="145.6,69.0 194.6,93.5 67.2,157.2 18.2,132.7" fill="#d0c8b8"/>
  <polygon points="14.0,10.2 138.6,72.5 25.2,129.2 -99.4,66.9" fill="#c0b8a8"/>
  <polygon points="14.0,-0.4 91.0,38.1 -14.0,90.6 -91.0,52.1" fill="#988870"/>
  <polygon points="91.0,52.5 91.0,38.1 -14.0,90.6 -14.0,105.0" fill="#7a6850"/>
  <polygon points="-91.0,66.5 -91.0,52.1 -14.0,90.6 -14.0,105.0" fill="#6a5840"/>
  <polygon points="91.0,38.1 91.0,37.1 -14.0,89.6 -14.0,90.6" fill="#c8b898"/>
  <polygon points="-91.0,52.1 -91.0,51.1 -14.0,89.6 -14.0,90.6" fill="#b0a080"/>
  <polygon points="14.0,-1.4 14.0,-48.4 91.0,-9.9 91.0,37.1" fill="#dcc8a8"/>
  <polygon points="30.8,-0.4 30.8,-24.4 44.8,-17.4 44.8,6.6" fill="#2a3848"/>
  <polygon points="30.1,-0.0 30.1,-0.7 45.5,7.0 45.5,7.7" fill="#e8e0d8"/>
  <polygon points="58.8,13.6 58.8,-10.4 72.8,-3.4 72.8,20.6" fill="#2a3848"/>
  <polygon points="58.1,14.0 58.1,13.3 73.5,21.0 73.5,21.7" fill="#e8e0d8"/>
  <polygon points="-91.0,51.1 -91.0,4.1 -14.0,42.6 -14.0,89.6" fill="#c4b090"/>
  <polygon points="-63.0,57.7 -63.0,33.7 -42.0,44.2 -42.0,68.2" fill="#1e2838"/>
  <polygon points="91.0,37.1 91.0,-9.9 -14.0,42.6 -14.0,89.6" fill="#d0bc9c"/>
  <polygon points="14.0,-51.2 96.6,-9.9 -14.0,45.4 -96.6,4.1" fill="#708088"/>
  <polygon points="14.0,-49.0 14.0,-51.2 96.6,-9.9 96.6,-7.7" fill="#f0ece8"/>
  <polygon points="96.6,-7.7 96.6,-9.9 -14.0,45.4 -14.0,47.6" fill="#e0dcd8"/>
  <polygon points="-96.6,6.3 -96.6,4.1 -14.0,45.4 -14.0,47.6" fill="#d0ccc8"/>
  <polygon points="84.3,41.5 84.3,0.7 -8.1,46.9 -8.1,87.7" fill="#5a4838"/>
  <polygon points="48.3,59.5 48.3,25.9 28.7,35.6 28.7,69.2" fill="#1a1410"/>
  <polygon points="49.0,25.5 49.0,24.1 28.0,34.6 28.0,36.0" fill="#e8e0d8"/>
  <polygon points="49.0,59.1 49.0,24.1 48.3,24.4 48.3,59.5" fill="#dcd0bc"/>
  <polygon points="28.7,69.2 28.7,34.2 28.0,34.6 28.0,69.6" fill="#cfc4b0"/>
  <polygon points="38.8,64.2 38.8,30.6 38.2,30.9 38.2,64.5" fill="#000000"/>
  <polygon points="39.8,48.6 39.8,47.8 39.1,48.2 39.1,48.9" fill="#d8a838"/>
  <polygon points="37.9,49.5 37.9,48.8 37.2,49.2 37.2,49.9" fill="#d8a838"/>
  <polygon points="84.0,0.8 110.6,14.1 19.6,59.6 -7.0,46.3" fill="#7a6858"/>
  <polygon points="85.4,40.9 112.0,54.2 18.2,101.1 -8.4,87.8" fill="#b8b0a0"/>
  <polygon points="112.0,68.6 112.0,54.2 18.2,101.1 18.2,115.5" fill="#7a6850"/>
  <polygon points="-8.4,102.2 -8.4,87.8 18.2,101.1 18.2,115.5" fill="#6a5840"/>
  <polygon points="112.0,52.8 116.9,55.3 20.3,103.6 15.4,101.1" fill="#e8e0d8"/>
  <polygon points="116.9,58.1 116.9,55.3 20.3,103.6 20.3,106.4" fill="#d0c8c0"/>
  <polygon points="15.4,104.0 15.4,101.1 20.3,103.6 20.3,106.4" fill="#c0b8b0"/>
  <polygon points="116.9,58.1 121.8,60.6 25.2,108.9 20.3,106.4" fill="#e8e0d8"/>
  <polygon points="121.8,63.5 121.8,60.6 25.2,108.9 25.2,111.8" fill="#d0c8c0"/>
  <polygon points="20.3,109.3 20.3,106.4 25.2,108.9 25.2,111.8" fill="#c0b8b0"/>
  <polygon points="121.8,63.5 126.7,65.9 30.1,114.2 25.2,111.8" fill="#e8e0d8"/>
  <polygon points="126.7,68.8 126.7,65.9 30.1,114.2 30.1,117.1" fill="#d0c8c0"/>
  <polygon points="25.2,114.6 25.2,111.8 30.1,114.2 30.1,117.1" fill="#c0b8b0"/>
  <polygon points="126.7,68.8 131.6,71.2 35.0,119.5 30.1,117.1" fill="#e8e0d8"/>
  <polygon points="131.6,74.1 131.6,71.2 35.0,119.5 35.0,122.4" fill="#d0c8c0"/>
  <polygon points="30.1,120.0 30.1,117.1 35.0,119.5 35.0,122.4" fill="#c0b8b0"/>
  <polygon points="131.6,74.1 136.5,76.6 39.9,124.9 35.0,122.4" fill="#e8e0d8"/>
  <polygon points="136.5,79.5 136.5,76.6 39.9,124.9 39.9,127.8" fill="#d0c8c0"/>
  <polygon points="35.0,125.3 35.0,122.4 39.9,124.9 39.9,127.8" fill="#c0b8b0"/>
  <polygon points="108.8,53.7 108.8,12.9 113.0,15.0 113.0,55.8" fill="#f4f0ec"/>
  <polygon points="113.0,55.8 113.0,15.0 108.8,17.1 108.8,57.9" fill="#e8e4de"/>
  <polygon points="104.6,55.8 104.6,15.0 108.8,17.1 108.8,57.9" fill="#dcd8d0"/>
  <polygon points="108.8,11.9 114.9,15.0 108.8,18.1 102.6,15.0" fill="#f0ece4"/>
  <polygon points="114.9,16.2 114.9,15.0 108.8,18.1 108.8,19.3" fill="#d8d0c8"/>
  <polygon points="102.6,16.2 102.6,15.0 108.8,18.1 108.8,19.3" fill="#c8c0b8"/>
  <polygon points="114.9,55.8 114.9,54.4 108.8,57.5 108.8,58.9" fill="#d8d0c8"/>
  <polygon points="102.6,55.8 102.6,54.4 108.8,57.5 108.8,58.9" fill="#c8c0b8"/>
  <polygon points="79.4,68.4 79.4,27.6 83.6,29.7 83.6,70.5" fill="#f4f0ec"/>
  <polygon points="83.6,70.5 83.6,29.7 79.4,31.8 79.4,72.6" fill="#e8e4de"/>
  <polygon points="75.2,70.5 75.2,29.7 79.4,31.8 79.4,72.6" fill="#dcd8d0"/>
  <polygon points="79.4,26.6 85.5,29.7 79.4,32.8 73.2,29.7" fill="#f0ece4"/>
  <polygon points="85.5,30.9 85.5,29.7 79.4,32.8 79.4,34.0" fill="#d8d0c8"/>
  <polygon points="73.2,30.9 73.2,29.7 79.4,32.8 79.4,34.0" fill="#c8c0b8"/>
  <polygon points="85.5,70.5 85.5,69.1 79.4,72.2 79.4,73.6" fill="#d8d0c8"/>
  <polygon points="73.2,70.5 73.2,69.1 79.4,72.2 79.4,73.6" fill="#c8c0b8"/>
  <polygon points="50.0,83.1 50.0,42.3 54.2,44.4 54.2,85.2" fill="#f4f0ec"/>
  <polygon points="54.2,85.2 54.2,44.4 50.0,46.5 50.0,87.3" fill="#e8e4de"/>
  <polygon points="45.8,85.2 45.8,44.4 50.0,46.5 50.0,87.3" fill="#dcd8d0"/>
  <polygon points="50.0,41.3 56.1,44.4 50.0,47.5 43.8,44.4" fill="#f0ece4"/>
  <polygon points="56.1,45.6 56.1,44.4 50.0,47.5 50.0,48.7" fill="#d8d0c8"/>
  <polygon points="43.8,45.6 43.8,44.4 50.0,47.5 50.0,48.7" fill="#c8c0b8"/>
  <polygon points="56.1,85.2 56.1,83.8 50.0,86.9 50.0,88.3" fill="#d8d0c8"/>
  <polygon points="43.8,85.2 43.8,83.8 50.0,86.9 50.0,88.3" fill="#c8c0b8"/>
  <polygon points="20.6,97.8 20.6,57.0 24.8,59.1 24.8,99.9" fill="#f4f0ec"/>
  <polygon points="24.8,99.9 24.8,59.1 20.6,61.2 20.6,102.0" fill="#e8e4de"/>
  <polygon points="16.4,99.9 16.4,59.1 20.6,61.2 20.6,102.0" fill="#dcd8d0"/>
  <polygon points="20.6,56.0 26.7,59.1 20.6,62.2 14.4,59.1" fill="#f0ece4"/>
  <polygon points="26.7,60.3 26.7,59.1 20.6,62.2 20.6,63.4" fill="#d8d0c8"/>
  <polygon points="14.4,60.3 14.4,59.1 20.6,62.2 20.6,63.4" fill="#c8c0b8"/>
  <polygon points="26.7,99.9 26.7,98.5 20.6,101.6 20.6,103.0" fill="#d8d0c8"/>
  <polygon points="14.4,99.9 14.4,98.5 20.6,101.6 20.6,103.0" fill="#c8c0b8"/>
  <polygon points="84.0,-3.2 112.7,11.1 18.9,58.0 -9.8,43.7" fill="#eee8e0"/>
  <polygon points="112.7,13.8 112.7,11.1 18.9,58.0 18.9,60.7" fill="#d8d0c8"/>
  <polygon points="-9.8,46.3 -9.8,43.7 18.9,58.0 18.9,60.7" fill="#c8c0b8"/>
  <polygon points="112.7,11.1 65.8,20.2 18.9,58.0" fill="#dcd0c0"/>
  <polygon points="84.0,-3.2 37.1,5.8 65.8,20.2 112.7,11.1" fill="#c8c0b0"/>
  <polygon points="37.1,5.8 -9.8,43.7 18.9,58.0 65.8,20.2" fill="#b8b0a0"/>
  <polygon points="0.0,-20.6 21.0,-10.1 0.0,0.4 -21.0,-10.1" fill="#d8d0c8"/>
  <polygon points="21.0,-2.9 21.0,-10.1 0.0,0.4 0.0,7.6" fill="#c0b8b0"/>
  <polygon points="-21.0,-2.9 -21.0,-10.1 0.0,0.4 0.0,7.6" fill="#b0a8a0"/>
  <polygon points="-10.5,-15.3 10.5,-15.3 0.0,-20.9" fill="#3d8858"/>
  <polygon points="10.5,-15.3 10.5,-4.8 0.0,-20.9" fill="#2d6840"/>
  <polygon points="10.5,-4.8 -10.5,-4.8 0.0,-20.9" fill="#205030"/>
  <polygon points="-10.5,-4.8 -10.5,-15.3 0.0,-20.9" fill="#50a868"/>
  <polygon points="-5.8,-23.8 5.8,-23.8 0.0,-29.5" fill="#50a868"/>
  <polygon points="5.8,-23.8 5.8,-18.0 0.0,-29.5" fill="#3d8858"/>
  <polygon points="5.8,-18.0 -5.8,-18.0 0.0,-29.5" fill="#2d6840"/>
  <polygon points="-5.8,-18.0 -5.8,-23.8 0.0,-29.5" fill="#60b878"/>
  <polygon points="0.0,-35.4 3.4,-33.7 0.0,-32.1 -3.4,-33.7" fill="#e8e0d8"/>
  <polygon points="3.4,-29.5 3.4,-33.7 0.0,-32.1 0.0,-27.9" fill="#d0c8c0"/>
  <polygon points="-3.4,-29.5 -3.4,-33.7 0.0,-32.1 0.0,-27.9" fill="#c0b8b0"/>
  <polygon points="-0.3,-33.9 -0.3,-39.3 0.8,-38.7 0.8,-33.3" fill="#d8c050"/>
  <polygon points="0.8,-33.3 0.8,-38.7 0.0,-38.3 0.0,-32.9" fill="#c0a840"/>
  <polygon points="115.5,112.0 120.8,114.6 115.5,117.3 110.2,114.6" fill="#b0a898"/>
  <polygon points="120.8,116.4 120.8,114.6 115.5,117.3 115.5,119.1" fill="#989080"/>
  <polygon points="110.2,116.4 110.2,114.6 115.5,117.3 115.5,119.1" fill="#888070"/>
  <polygon points="115.5,114.1 115.5,49.9 116.6,50.4 116.6,114.6" fill="#c8c8c8"/>
  <polygon points="116.6,114.6 116.6,50.4 115.5,51.0 115.5,115.2" fill="#a8a8a8"/>
  <polygon points="115.5,48.2 117.5,49.2 115.5,50.2 113.5,49.2" fill="#d8c050"/>
  <polygon points="117.5,50.4 117.5,49.2 115.5,50.2 115.5,51.4" fill="#c0a840"/>
  <polygon points="113.5,50.4 113.5,49.2 115.5,50.2 115.5,51.4" fill="#b09838"/>
  <polygon points="116.6,69.0 116.6,51.0 98.4,61.3 98.4,79.3" fill="#2050a0"/>
  <polygon points="116.6,63.6 116.6,62.4 98.4,73.9 98.4,75.1" fill="#e0e0e8"/>
  <polygon points="148.4,72.2 156.8,76.4 148.4,80.6 140.0,76.4" fill="#708068"/>
  <polygon points="156.8,81.2 156.8,76.4 148.4,80.6 148.4,85.4" fill="#607058"/>
  <polygon points="140.0,81.2 140.0,76.4 148.4,80.6 148.4,85.4" fill="#506048"/>
  <polygon points="147.7,76.1 147.7,60.5 149.1,61.2 149.1,76.8" fill="#705838"/>
  <polygon points="149.1,76.8 149.1,61.2 148.0,61.7 148.0,77.3" fill="#604830"/>
  <polygon points="141.1,59.6 155.7,57.2 155.7,66.8 141.1,67.8" fill="#2a7030"/>
  <polygon points="142.9,56.9 153.9,55.1 153.9,62.3 142.9,63.1" fill="#349838"/>
  <polygon points="145.2,55.0 151.6,54.0 151.6,58.2 145.2,58.6" fill="#44b040"/>
  <polygon points="43.4,124.7 51.8,128.9 43.4,133.1 35.0,128.9" fill="#708068"/>
  <polygon points="51.8,133.7 51.8,128.9 43.4,133.1 43.4,137.9" fill="#607058"/>
  <polygon points="35.0,133.7 35.0,128.9 43.4,133.1 43.4,137.9" fill="#506048"/>
  <polygon points="42.7,128.5 42.7,112.9 44.1,113.7 44.1,129.2" fill="#705838"/>
  <polygon points="44.1,129.2 44.1,113.7 43.0,114.2 43.0,129.8" fill="#604830"/>
  <polygon points="36.1,112.1 50.7,109.7 50.7,119.3 36.1,120.3" fill="#2a7030"/>
  <polygon points="37.9,109.4 48.9,107.6 48.9,114.8 37.9,115.6" fill="#349838"/>
  <polygon points="40.2,107.5 46.6,106.5 46.6,110.7 40.2,111.1" fill="#44b040"/>
  <polygon points="190.4,84.0 198.8,88.2 190.4,92.4 182.0,88.2" fill="#708068"/>
  <polygon points="198.8,92.4 198.8,88.2 190.4,92.4 190.4,96.6" fill="#607058"/>
  <polygon points="182.0,92.4 182.0,88.2 190.4,92.4 190.4,96.6" fill="#506048"/>
  <polygon points="189.7,87.9 189.7,68.7 191.1,69.4 191.1,88.6" fill="#705838"/>
  <polygon points="191.1,88.6 191.1,69.4 190.0,69.9 190.0,89.1" fill="#604830"/>
  <polygon points="181.3,66.9 199.5,63.9 199.5,76.0 181.3,77.2" fill="#247028"/>
  <polygon points="183.6,63.8 197.2,61.5 197.2,70.6 183.6,71.5" fill="#2e8830"/>
  <polygon points="186.3,61.6 194.5,60.2 194.5,65.6 186.3,66.2" fill="#40a038"/>
  <polygon points="64.4,147.0 72.8,151.2 64.4,155.4 56.0,151.2" fill="#708068"/>
  <polygon points="72.8,155.4 72.8,151.2 64.4,155.4 64.4,159.6" fill="#607058"/>
  <polygon points="56.0,155.4 56.0,151.2 64.4,155.4 64.4,159.6" fill="#506048"/>
  <polygon points="63.7,150.9 63.7,131.7 65.1,132.4 65.1,151.6" fill="#705838"/>
  <polygon points="65.1,151.6 65.1,132.4 64.0,132.9 64.0,152.1" fill="#604830"/>
  <polygon points="55.3,129.9 73.5,126.9 73.5,139.0 55.3,140.2" fill="#247028"/>
  <polygon points="57.6,126.8 71.2,124.5 71.2,133.6 57.6,134.5" fill="#2e8830"/>
  <polygon points="60.3,124.6 68.5,123.2 68.5,128.6 60.3,129.2" fill="#40a038"/>
</svg>