<svg xmlns="http://www.w3.org/2000/svg" viewBox="-148 -58 303 204" width="303" height="204">
  <polygon points="14.0,-6.4 147.0,60.1 -7.0,137.1 -140.0,70.6" fill="#a09888"/>
  <polygon points="147.0,61.3 147.0,60.1 -7.0,137.1 -7.0,138.3" fill="#887868"/>
  <polygon points="-140.0,71.8 -140.0,70.6 -7.0,137.1 -7.0,138.3" fill="#786858"/>
  <polygon points="-106.4,70.4 -32.2,107.5 -42.0,112.4 -116.2,75.3" fill="#68a848"/>
  <polygon points="4.2,5.3 14.0,10.2 -116.2,75.3 -126.0,70.4" fill="#58a040"/>
  <polygon points="14.0,2.0 84.0,37.0 -28.0,93.0 -98.0,58.0" fill="#686058"/>
  <polygon points="84.0,49.0 84.0,37.0 -28.0,93.0 -28.0,105.0" fill="#4a4038"/>
  <polygon points="-98.0,70.0 -98.0,58.0 -28.0,93.0 -28.0,105.0" fill="#3a3028"/>
  <polygon points="14.0,2.0 14.0,1.3 84.0,36.3 84.0,37.0" fill="#c8c4c0"/>
  <polygon points="84.0,37.0 84.0,36.3 -28.0,92.3 -28.0,93.0" fill="#b8b4b0"/>
  <polygon points="-98.0,58.0 -98.0,57.3 -28.0,92.3 -28.0,93.0" fill="#a8a4a0"/>
  <polygon points="14.0,1.3 14.0,-46.0 84.0,-11.0 84.0,36.3" fill="#f0ece8"/>
  <polygon points="19.6,-1.2 19.6,-9.6 30.1,-4.4 30.1,4.1" fill="#1a2838"/>
  <polygon points="35.7,6.8 35.7,-1.6 46.2,3.7 46.2,12.1" fill="#1a2838"/>
  <polygon points="51.8,14.9 51.8,6.5 62.3,11.7 62.3,20.1" fill="#1a2838"/>
  <polygon points="67.9,22.9 67.9,14.5 78.4,19.8 78.4,28.2" fill="#1a2838"/>
  <polygon points="19.6,-14.4 19.6,-22.8 30.1,-17.5 30.1,-9.2" fill="#1a2838"/>
  <polygon points="35.7,-6.4 35.7,-14.7 46.2,-9.5 46.2,-1.1" fill="#1a2838"/>
  <polygon points="51.8,1.7 51.8,-6.7 62.3,-1.5 62.3,6.9" fill="#1a2838"/>
  <polygon points="67.9,9.7 67.9,1.4 78.4,6.6 78.4,15.0" fill="#1a2838"/>
  <polygon points="19.6,-27.6 19.6,-36.0 30.1,-30.8 30.1,-22.4" fill="#1a2838"/>
  <polygon points="35.7,-19.6 35.7,-28.0 46.2,-22.7 46.2,-14.3" fill="#1a2838"/>
  <polygon points="51.8,-11.5 51.8,-19.9 62.3,-14.7 62.3,-6.3" fill="#1a2838"/>
  <polygon points="67.9,-3.5 67.9,-11.9 78.4,-6.6 78.4,1.8" fill="#1a2838"/>
  <polygon points="-98.0,57.3 -98.0,10.0 -28.0,45.0 -28.0,92.3" fill="#d8d4d0"/>
  <polygon points="-92.4,54.8 -92.4,46.4 -81.9,51.6 -81.9,60.0" fill="#0e1828"/>
  <polygon points="-76.3,62.9 -76.3,54.5 -65.8,59.7 -65.8,68.1" fill="#0e1828"/>
  <polygon points="-60.2,70.9 -60.2,62.5 -49.7,67.7 -49.7,76.1" fill="#0e1828"/>
  <polygon points="-44.1,79.0 -44.1,70.5 -33.6,75.8 -33.6,84.2" fill="#0e1828"/>
  <polygon points="-92.4,41.6 -92.4,33.2 -81.9,38.5 -81.9,46.8" fill="#0e1828"/>
  <polygon points="-76.3,49.7 -76.3,41.3 -65.8,46.5 -65.8,54.9" fill="#0e1828"/>
  <polygon points="-60.2,57.7 -60.2,49.3 -49.7,54.5 -49.7,62.9" fill="#0e1828"/>
  <polygon points="-44.1,65.8 -44.1,57.4 -33.6,62.6 -33.6,71.0" fill="#0e1828"/>
  <polygon points="-92.4,28.4 -92.4,20.0 -81.9,25.2 -81.9,33.6" fill="#0e1828"/>
  <polygon points="-76.3,36.5 -76.3,28.1 -65.8,33.3 -65.8,41.7" fill="#0e1828"/>
  <polygon points="-60.2,44.5 -60.2,36.1 -49.7,41.3 -49.7,49.7" fill="#0e1828"/>
  <polygon points="-44.1,52.5 -44.1,44.1 -33.6,49.4 -33.6,57.8" fill="#0e1828"/>
  <polygon points="84.0,36.3 84.0,-11.0 -28.0,45.0 -28.0,92.3" fill="#e4e0dc"/>
  <polygon points="78.4,33.8 78.4,25.4 66.5,31.3 66.5,39.8" fill="#0e1828"/>
  <polygon points="61.6,42.2 61.6,33.8 49.7,39.7 49.7,48.1" fill="#0e1828"/>
  <polygon points="-10.5,78.2 -10.5,69.8 -22.4,75.8 -22.4,84.2" fill="#0e1828"/>
  <polygon points="6.3,69.9 6.3,61.5 -5.6,67.4 -5.6,75.8" fill="#0e1828"/>
  <polygon points="78.4,20.6 78.4,12.2 66.5,18.2 66.5,26.5" fill="#0e1828"/>
  <polygon points="61.6,29.0 61.6,20.6 49.7,26.5 49.7,34.9" fill="#0e1828"/>
  <polygon points="-10.5,65.0 -10.5,56.7 -22.4,62.6 -22.4,71.0" fill="#0e1828"/>
  <polygon points="6.3,56.7 6.3,48.3 -5.6,54.2 -5.6,62.6" fill="#0e1828"/>
  <polygon points="78.4,7.4 78.4,-1.0 66.5,4.9 66.5,13.3" fill="#0e1828"/>
  <polygon points="61.6,15.8 61.6,7.4 49.7,13.3 49.7,21.7" fill="#0e1828"/>
  <polygon points="-10.5,51.8 -10.5,43.4 -22.4,49.4 -22.4,57.8" fill="#0e1828"/>
  <polygon points="6.3,43.5 6.3,35.1 -5.6,41.0 -5.6,49.4" fill="#0e1828"/>
  <polygon points="37.8,60.1 37.8,28.9 18.2,38.7 18.2,69.9" fill="#1a1410"/>
  <polygon points="39.9,27.8 39.9,26.0 16.1,38.0 16.1,39.8" fill="#f8f4f0"/>
  <polygon points="39.9,59.0 39.9,26.0 37.8,27.1 37.8,60.1" fill="#f0ece8"/>
  <polygon points="18.2,69.9 18.2,36.9 16.1,38.0 16.1,71.0" fill="#f0ece8"/>
  <polygon points="14.0,-46.0 84.0,-11.0 -28.0,45.0 -98.0,10.0" fill="#808888"/>
  <polygon points="14.0,-48.1 14.0,-49.5 88.2,-12.4 88.2,-11.0" fill="#f8f4f0"/>
  <polygon points="88.2,-11.0 88.2,-12.4 -28.0,45.7 -28.0,47.1" fill="#e8e4e0"/>
  <polygon points="-102.2,10.0 -102.2,8.6 -28.0,45.7 -28.0,47.1" fill="#d8d4d0"/>
  <polygon points="14.0,-50.0 70.0,-22.0 -28.0,27.0 -84.0,-1.0" fill="#808888"/>
  <polygon points="70.0,-12.4 70.0,-22.0 -28.0,27.0 -28.0,36.6" fill="#c8c4c0"/>
  <polygon points="-84.0,8.6 -84.0,-1.0 -28.0,27.0 -28.0,36.6" fill="#b8b4b0"/>
  <polygon points="14.0,-49.1 14.0,-50.0 70.0,-22.0 70.0,-21.1" fill="#e0dcd8"/>
  <polygon points="70.0,-21.1 70.0,-22.0 -28.0,27.0 -28.0,27.9" fill="#d0ccc8"/>
  <polygon points="-84.0,-0.1 -84.0,-1.0 -28.0,27.0 -28.0,27.9" fill="#c0bcc0"/>
  <polygon points="14.0,-47.2 47.6,-30.4 -28.0,7.4 -61.6,-9.4" fill="#808888"/>
  <polygon points="47.6,-22.0 47.6,-30.4 -28.0,7.4 -28.0,15.8" fill="#bbb8b4"/>
  <polygon points="-61.6,-1.0 -61.6,-9.4 -28.0,7.4 -28.0,15.8" fill="#a8a4a0"/>
  <polygon points="14.0,-46.5 14.0,-47.2 47.6,-30.4 47.6,-29.7" fill="#d0ccc8"/>
  <polygon points="30.8,26.4 28.0,20.6 25.2,29.2 28.0,30.8" fill="#d4b030"/>
  <polygon points="28.0,27.2 47.6,7.2 42.0,16.0 30.1,28.0" fill="#d4b030"/>
  <polygon points="28.0,27.2 8.4,26.8 14.0,30.0 25.9,30.0" fill="#b89020"/>
  <polygon points="32.2,28.1 28.0,28.4 23.8,32.3 28.0,33.8" fill="#b89020"/>
  <polygon points="56.0,51.0 60.2,53.1 4.2,81.1 0.0,79.0" fill="#e8e0d8"/>
  <polygon points="60.2,56.1 60.2,53.1 4.2,81.1 4.2,84.1" fill="#d0c8c0"/>
  <polygon points="0.0,82.0 0.0,79.0 4.2,81.1 4.2,84.1" fill="#c0b8b0"/>
  <polygon points="60.2,56.1 64.4,58.2 8.4,86.2 4.2,84.1" fill="#e8e0d8"/>
  <polygon points="64.4,61.2 64.4,58.2 8.4,86.2 8.4,89.2" fill="#d0c8c0"/>
  <polygon points="4.2,87.1 4.2,84.1 8.4,86.2 8.4,89.2" fill="#c0b8b0"/>
  <polygon points="64.4,61.2 68.6,63.3 12.6,91.3 8.4,89.2" fill="#e8e0d8"/>
  <polygon points="68.6,66.3 68.6,63.3 12.6,91.3 12.6,94.3" fill="#d0c8c0"/>
  <polygon points="8.4,92.2 8.4,89.2 12.6,91.3 12.6,94.3" fill="#c0b8b0"/>
  <polygon points="68.6,66.3 72.8,68.4 16.8,96.4 12.6,94.3" fill="#e8e0d8"/>
  <polygon points="72.8,71.4 72.8,68.4 16.8,96.4 16.8,99.4" fill="#d0c8c0"/>
  <polygon points="12.6,97.3 12.6,94.3 16.8,96.4 16.8,99.4" fill="#c0b8b0"/>
  <polygon points="0.0,79.0 16.8,99.4 0.0,91.0" fill="#c0b8b0"/>
  <polygon points="7.0,112.4 11.2,114.5 7.0,116.6 2.8,114.5" fill="#a09888"/>
  <polygon points="11.2,115.9 11.2,114.5 7.0,116.6 7.0,118.0" fill="#888078"/>
  <polygon points="2.8,115.9 2.8,114.5 7.0,116.6 7.0,118.0" fill="#787068"/>
  <polygon points="7.0,114.1 7.0,55.5 7.8,55.9 7.8,114.5" fill="#c8c8c8"/>
  <polygon points="7.8,114.5 7.8,55.9 7.0,56.3 7.0,114.9" fill="#a8a8a8"/>
  <polygon points="7.0,54.1 8.7,55.0 7.0,55.8 5.3,55.0" fill="#d8c050"/>
  <polygon points="8.7,55.9 8.7,55.0 7.0,55.8 7.0,56.8" fill="#c0a840"/>
  <polygon points="5.3,55.9 5.3,55.0 7.0,55.8 7.0,56.8" fill="#b09838"/>
  <polygon points="7.8,72.1 7.8,56.5 -9.0,65.9 -9.0,81.5" fill="#2050a0"/>
  <polygon points="7.8,67.3 7.8,66.1 -9.0,76.7 -9.0,77.9" fill="#e0e0e8"/>
  <polygon points="86.1,62.7 93.8,66.5 86.1,70.3 78.4,66.5" fill="#708068"/>
  <polygon points="93.8,70.7 93.8,66.5 86.1,70.3 86.1,74.5" fill="#607058"/>
  <polygon points="78.4,70.7 78.4,66.5 86.1,70.3 86.1,74.5" fill="#506048"/>
  <polygon points="85.5,66.2 85.5,51.8 86.7,52.4 86.7,66.8" fill="#705838"/>
  <polygon points="86.7,66.8 86.7,52.4 85.8,52.8 85.8,67.2" fill="#604830"/>
  <polygon points="79.7,50.7 92.5,48.6 92.5,57.1 79.7,57.9" fill="#2a7030"/>
  <polygon points="81.5,48.6 90.6,47.1 90.6,53.2 81.5,53.8" fill="#349838"/>
  <polygon points="83.4,47.1 88.8,46.2 88.8,49.9 83.4,50.2" fill="#44b040"/>
  <polygon points="15.4,98.0 23.1,101.8 15.4,105.7 7.7,101.8" fill="#708068"/>
  <polygon points="23.1,106.0 23.1,101.8 15.4,105.7 15.4,109.9" fill="#607058"/>
  <polygon points="7.7,106.0 7.7,101.8 15.4,105.7 15.4,109.9" fill="#506048"/>
  <polygon points="14.8,101.6 14.8,87.2 16.0,87.7 16.0,102.1" fill="#705838"/>
  <polygon points="16.0,102.1 16.0,87.7 15.1,88.2 15.1,102.5" fill="#604830"/>
  <polygon points="9.0,86.1 21.8,84.0 21.8,92.4 9.0,93.3" fill="#2a7030"/>
  <polygon points="10.8,84.0 19.9,82.5 19.9,88.5 10.8,89.1" fill="#349838"/>
  <polygon points="12.7,82.5 18.1,81.6 18.1,85.2 12.7,85.6" fill="#44b040"/>
  <polygon points="116.9,64.7 124.6,68.5 116.9,72.4 109.2,68.5" fill="#708068"/>
  <polygon points="124.6,72.1 124.6,68.5 116.9,72.4 116.9,76.0" fill="#607058"/>
  <polygon points="109.2,72.1 109.2,68.5 116.9,72.4 116.9,76.0" fill="#506048"/>
  <polygon points="116.3,68.2 116.3,51.4 117.5,52.0 117.5,68.8" fill="#705838"/>
  <polygon points="117.5,68.8 117.5,52.0 116.6,52.4 116.6,69.2" fill="#604830"/>
  <polygon points="110.5,50.3 123.3,48.2 123.3,56.7 110.5,57.5" fill="#2a7030"/>
  <polygon points="112.4,48.2 121.5,46.7 121.5,52.8 112.4,53.4" fill="#349838"/>
  <polygon points="114.2,46.7 119.6,45.8 119.6,49.5 114.2,49.8" fill="#44b040"/>
  <polygon points="17.5,114.4 25.2,118.2 17.5,122.1 9.8,118.2" fill="#708068"/>
  <polygon points="25.2,121.8 25.2,118.2 17.5,122.1 17.5,125.7" fill="#607058"/>
  <polygon points="9.8,121.8 9.8,118.2 17.5,122.1 17.5,125.7" fill="#506048"/>
  <polygon points="16.9,117.9 16.9,101.1 18.1,101.7 18.1,118.5" fill="#705838"/>
  <polygon points="18.1,118.5 18.1,101.7 17.2,102.1 17.2,118.9" fill="#604830"/>
  <polygon points="11.1,100.0 23.9,97.9 23.9,106.4 11.1,107.2" fill="#2a7030"/>
  <polygon points="13.0,97.9 22.1,96.4 22.1,102.5 13.0,103.1" fill="#349838"/>
  <polygon points="14.8,96.4 20.2,95.5 20.2,99.2 14.8,99.5" fill="#44b040"/>
</svg>