<svg xmlns="http://www.w3.org/2000/svg" viewBox="-148 -76 335 233" width="335" height="233">
  <polygon points="-2.8,-11.6 179.2,79.4 42.0,148.0 -140.0,57.0" fill="#a8a498"/>
  <polygon points="179.2,80.8 179.2,79.4 42.0,148.0 42.0,149.4" fill="#908880"/>
  <polygon points="-140.0,58.4 -140.0,57.0 42.0,148.0 42.0,149.4" fill="#807870"/>
  <polygon points="21.0,108.6 32.2,114.2 30.1,115.3 18.9,109.7" fill="#d8c850"/>
  <polygon points="42.0,119.1 53.2,124.7 51.1,125.8 39.9,120.2" fill="#d8c850"/>
  <polygon points="63.0,129.6 74.2,135.2 72.1,136.3 60.9,130.7" fill="#d8c850"/>
  <polygon points="32.2,100.2 91.0,129.6 89.6,130.3 30.8,100.9" fill="#d0ccc8"/>
  <polygon points="4.2,114.2 63.0,143.6 61.6,144.3 2.8,114.9" fill="#d0ccc8"/>
  <polygon points="0.0,0.0 0.0,-30.0 112.0,26.0 112.0,56.0" fill="#b84830"/>
  <polygon points="16.8,0.0 16.8,-13.2 36.4,-3.4 36.4,9.8" fill="#8ac0e0"/>
  <polygon points="16.8,0.6 16.8,0.0 36.4,9.8 36.4,10.4" fill="#806050"/>
  <polygon points="47.6,15.4 47.6,2.2 67.2,12.0 67.2,25.2" fill="#8ac0e0"/>
  <polygon points="47.6,16.0 47.6,15.4 67.2,25.2 67.2,25.8" fill="#806050"/>
  <polygon points="78.4,30.8 78.4,17.6 98.0,27.4 98.0,40.6" fill="#8ac0e0"/>
  <polygon points="78.4,31.4 78.4,30.8 98.0,40.6 98.0,41.2" fill="#806050"/>
  <polygon points="0.0,-30.0 28.0,-28.0 -49.0,10.5 -77.0,8.5" fill="#687078"/>
  <polygon points="28.0,-28.0 -49.0,10.5 -49.0,22.5 28.0,-16.0" fill="#7ab0d0"/>
  <polygon points="0.0,-30.0 28.0,-28.0 28.0,-16.0" fill="#586068"/>
  <polygon points="-77.0,8.5 -49.0,10.5 -49.0,22.5" fill="#485058"/>
  <polygon points="28.0,-16.0 56.0,-14.0 -21.0,24.5 -49.0,22.5" fill="#687078"/>
  <polygon points="56.0,-14.0 -21.0,24.5 -21.0,36.5 56.0,-2.0" fill="#7ab0d0"/>
  <polygon points="28.0,-16.0 56.0,-14.0 56.0,-2.0" fill="#586068"/>
  <polygon points="-49.0,22.5 -21.0,24.5 -21.0,36.5" fill="#485058"/>
  <polygon points="56.0,-2.0 84.0,0.0 7.0,38.5 -21.0,36.5" fill="#687078"/>
  <polygon points="84.0,0.0 7.0,38.5 7.0,50.5 84.0,12.0" fill="#7ab0d0"/>
  <polygon points="56.0,-2.0 84.0,0.0 84.0,12.0" fill="#586068"/>
  <polygon points="-21.0,36.5 7.0,38.5 7.0,50.5" fill="#485058"/>
  <polygon points="84.0,12.0 112.0,14.0 35.0,52.5 7.0,50.5" fill="#687078"/>
  <polygon points="84.0,12.0 112.0,14.0 112.0,26.0" fill="#586068"/>
  <polygon points="7.0,50.5 35.0,52.5 35.0,64.5" fill="#485058"/>
  <polygon points="112.0,14.0 35.0,52.5 35.0,64.5 112.0,26.0" fill="#7ab0d0"/>
  <polygon points="112.0,56.0 112.0,26.0 35.0,64.5 35.0,94.5" fill="#a04028"/>
  <polygon points="105.0,52.3 105.0,36.7 79.8,49.3 79.8,64.9" fill="#5890b0"/>
  <polygon points="72.8,75.6 72.8,51.6 44.8,65.6 44.8,89.6" fill="#384050"/>
  <polygon points="73.9,51.0 73.9,49.8 43.7,65.0 43.7,66.2" fill="#806050"/>
  <polygon points="75.6,74.2 75.6,70.6 42.0,87.4 42.0,91.0" fill="#888480"/>
  <polygon points="75.6,70.6 82.6,74.1 49.0,90.9 42.0,87.4" fill="#a09c98"/>
  <polygon points="82.6,77.7 82.6,74.1 49.0,90.9 49.0,94.5" fill="#787470"/>
  <polygon points="95.2,66.4 126.0,81.8 112.0,88.8 81.2,73.4" fill="#3090d8"/>
  <polygon points="126.0,93.8 126.0,81.8 112.0,88.8 112.0,100.8" fill="#2878c0"/>
  <polygon points="81.2,85.4 81.2,73.4 112.0,88.8 112.0,100.8" fill="#2068a8"/>
  <polygon points="119.3,96.0 119.3,86.4 118.7,86.6 118.7,96.2" fill="#2060a0"/>
  <polygon points="95.2,55.8 126.0,71.2 112.0,78.2 81.2,62.8" fill="#e05040"/>
  <polygon points="126.0,83.2 126.0,71.2 112.0,78.2 112.0,90.2" fill="#d44030"/>
  <polygon points="81.2,74.8 81.2,62.8 112.0,78.2 112.0,90.2" fill="#b83028"/>
  <polygon points="77.0,82.5 107.8,97.9 93.8,104.9 63.0,89.5" fill="#30b858"/>
  <polygon points="107.8,109.9 107.8,97.9 93.8,104.9 93.8,116.9" fill="#28a048"/>
  <polygon points="63.0,101.5 63.0,89.5 93.8,104.9 93.8,116.9" fill="#208840"/>
  <polygon points="-77.0,38.5 -77.0,8.5 35.0,64.5 35.0,94.5" fill="#983828"/>
  <polygon points="0.0,77.0 0.0,56.6 9.8,61.5 9.8,81.9" fill="#483830"/>
  <polygon points="-56.0,37.0 -56.0,27.4 -43.4,33.7 -43.4,43.3" fill="#4a7890"/>
  <polygon points="-28.0,51.0 -28.0,41.4 -15.4,47.7 -15.4,57.3" fill="#4a7890"/>
  <polygon points="16.8,96.6 16.8,78.6 19.3,79.9 19.3,97.9" fill="#705838"/>
  <polygon points="19.3,97.9 19.3,79.9 16.8,81.1 16.8,99.1" fill="#604830"/>
  <polygon points="8.6,79.4 25.0,76.7 25.0,87.6 8.6,88.6" fill="#2a7030"/>
  <polygon points="10.9,76.9 22.7,75.0 22.7,82.8 10.9,83.6" fill="#349038"/>
  <polygon points="13.3,75.1 20.3,74.0 20.3,78.6 13.3,79.0" fill="#44a840"/>
  <polygon points="0.0,5.6 0.0,-66.4 9.8,-61.5 9.8,10.5" fill="#d44030"/>
  <polygon points="9.8,10.5 9.8,-61.5 0.0,-56.6 0.0,15.4" fill="#b83028"/>
  <polygon points="-9.8,10.5 -9.8,-61.5 0.0,-56.6 0.0,15.4" fill="#a02820"/>
  <polygon points="0.0,-65.4 0.0,-67.5 12.0,-61.5 12.0,-59.3" fill="#c83828"/>
  <polygon points="12.0,-59.3 12.0,-61.5 0.0,-55.5 0.0,-53.3" fill="#a82020"/>
  <polygon points="-12.0,-59.3 -12.0,-61.5 0.0,-55.5 0.0,-53.3" fill="#901818"/>
  <polygon points="0.0,-67.5 12.0,-61.5 0.0,-55.5 -12.0,-61.5" fill="#444"/>
  <polygon points="9.8,-14.7 9.8,-15.9 0.0,-11.0 0.0,-9.8" fill="#f0ece8"/>
  <polygon points="-9.8,-14.7 -9.8,-15.9 0.0,-11.0 0.0,-9.8" fill="#e0dcd8"/>
  <polygon points="9.8,-32.7 9.8,-33.9 0.0,-29.0 0.0,-27.8" fill="#f0ece8"/>
  <polygon points="-9.8,-32.7 -9.8,-33.9 0.0,-29.0 0.0,-27.8" fill="#e0dcd8"/>
</svg>