<svg xmlns="http://www.w3.org/2000/svg" width="154.04" height="42.65" viewBox="0 0 154.04 42.65"><defs><style>.cls-1{fill:#2A8A8A;}</style></defs><g id="Layer_2" data-name="Layer 2"><g id="issues"><path class="cls-1" d="M87.77,21.64a10.17,10.17,0,0,0-3.88-.81,40,40,0,0,0-7,.49c-1.17.18-1.16.19-1.21,1.38,0,.28.1.38.35.43.51.09,1,.2,1.53.3s.48.09.48.6V28.3c0,2.19,0,4.38,0,6.56a.58.58,0,0,1-.48.68c-.53.16-1,.38-1.56.55a.44.44,0,0,0-.35.42c0,.34-.11.69-.17,1.09l.57,0h8.18c.13,0,.36-.06.38-.14.11-.48.17-1,.25-1.46l-3.14-.77V22.9a4.84,4.84,0,0,1,2.24,0,2.63,2.63,0,0,1,1.69,1.24,4.1,4.1,0,0,1,.55,2.51,2.84,2.84,0,0,1-2.4,2.75c-.52.1-1,.13-1.64.21.08.42.17.84.22,1.26s.16.44.46.42a20.73,20.73,0,0,0,2.24-.12A5.64,5.64,0,0,0,90,25,3.84,3.84,0,0,0,87.77,21.64Zm33.69,4.77a.79.79,0,0,0-.87-.82c-1.22.07-2.44.17-3.66.24a.36.36,0,0,0-.38.36c-.06.36-.12.73-.21,1.08a.36.36,0,0,0,.21.48c.45.24.87.51,1.32.74a.63.63,0,0,1,.39.65c0,.84,0,1.68,0,2.52,0,1.57,0,3.15-.13,4.72a5.17,5.17,0,0,1-1.71,3.5,12.68,12.68,0,0,1-1.06.88.38.38,0,0,0-.12.58,9.78,9.78,0,0,1,.52,1c.13.3.3.35.57.21.75-.41,1.53-.77,2.24-1.23a6.11,6.11,0,0,0,2.88-5.24c0-1.55,0-3.09,0-4.64h0Zm32.28,8.34-.68.31c-1.77.72-3-.06-3-1.94,0-1.56,0-3.13,0-4.69,0-.12,0-.23,0-.4h3.18c.19,0,.39,0,.41-.25,0-.53.07-1.06.1-1.64h-3.69v-2c0-.95,0-.93-.94-1a.84.84,0,0,0-.8.41A12.69,12.69,0,0,1,146,26.1c-.71.57-.72.56-.69,1.47v.05c0,.29.11.37.38.36s.71,0,1.11,0v.61c0,2,0,3.92,0,5.88a6.33,6.33,0,0,0,.27,1.67,2.11,2.11,0,0,0,1.67,1.6,7.25,7.25,0,0,0,1.68.16,4.57,4.57,0,0,0,3.49-1.75.48.48,0,0,0,.12-.32C154,35.47,153.85,35.13,153.74,34.75ZM143.67,35a5.2,5.2,0,0,1-2.28.64,3.07,3.07,0,0,1-3-1.72,6.51,6.51,0,0,1-.69-4.75,4,4,0,0,1,.62-1.45,1.58,1.58,0,0,1,2.67.09,9.38,9.38,0,0,1,.6,1.13c.33.74.36.78,1.13.5A1.69,1.69,0,0,0,144,27.36a2.45,2.45,0,0,0-1.76-1.89,5.71,5.71,0,0,0-5.66,1.19,7.12,7.12,0,0,0-2,7.94,4.81,4.81,0,0,0,2.67,2.88,6.58,6.58,0,0,0,4.84.16,4.48,4.48,0,0,0,2.25-1.5c.08-.1.18-.26.15-.36a9,9,0,0,0-.38-1C143.91,34.92,143.78,35,143.67,35Zm-11-.14a6.45,6.45,0,0,1-3.36.53,2.93,2.93,0,0,1-2.63-3.22l.52,0,4.55-.09c.87,0,.87,0,1-.86a6.72,6.72,0,0,0-.31-3.66A3.47,3.47,0,0,0,129,25.3a5.27,5.27,0,0,0-4.11,2,7.21,7.21,0,0,0-1.13,7.47,4.68,4.68,0,0,0,3.26,3,6.34,6.34,0,0,0,3,.05,5.9,5.9,0,0,0,2.87-1.34c.1-.1.24-.25.22-.37,0-.43-.14-.86-.22-1.31A.88.88,0,0,0,132.63,34.9Zm-5.39-6.75a1.26,1.26,0,0,1,1.24-.62,1.21,1.21,0,0,1,1,.86,3.81,3.81,0,0,1,.18,1.86.38.38,0,0,1-.24.25c-.92.11-1.83.19-2.74.27a.54.54,0,0,1-.16-.06A4.59,4.59,0,0,1,127.24,28.15ZM121,20.56a3,3,0,0,0-2.7,0,1.69,1.69,0,0,0-1,1.57,1.72,1.72,0,0,0,1,1.65,7.28,7.28,0,0,0,1.26.38,11,11,0,0,0,1.23-.26A1.8,1.8,0,0,0,122,22.25,1.68,1.68,0,0,0,121,20.56ZM111.35,26a6.06,6.06,0,0,0-2.95-.73,6.23,6.23,0,0,0-6,4,7.74,7.74,0,0,0,0,4.83,5,5,0,0,0,2.76,3.26,6.46,6.46,0,0,0,2.67.56l.64,0a5.71,5.71,0,0,0,5.09-4,8.72,8.72,0,0,0,.22-4.3A5,5,0,0,0,111.35,26Zm-1.11,8.53A1.75,1.75,0,0,1,108.79,36a2.16,2.16,0,0,1-2.36-.94,6.2,6.2,0,0,1-.73-1.81,9.08,9.08,0,0,1-.13-3.78,5.75,5.75,0,0,1,.2-.71,1.88,1.88,0,0,1,1.73-1.36,2.1,2.1,0,0,1,2.13,1.14,9.91,9.91,0,0,1,.9,4.42C110.47,33.26,110.4,33.91,110.24,34.54ZM99.41,25.4a2.84,2.84,0,0,0-1.79.94,5.29,5.29,0,0,0-1.05,1.77,2.3,2.3,0,0,1-.23.4l-.12-.05a1.51,1.51,0,0,1,0-.3c.06-.6.13-1.21.19-1.82s-.2-.77-.67-.74-.85.08-1.28.12L91.69,26c-.1.54-.19,1.07-.29,1.61.6.25,1.16.5,1.72.72.22.09.32.19.32.43q0,3.14,0,6.25a.39.39,0,0,1-.32.42c-.48.15-1,.34-1.42.52-.11,0-.26.12-.27.2-.08.46-.13.93-.19,1.43h8.33c.05-.53.11-1.05.16-1.56,0-.22-.1-.29-.3-.33l-.94-.18-1.89-.4c0-1.11,0-2.16,0-3.22a3.63,3.63,0,0,1,.7-2.23,1.6,1.6,0,0,1,1.83-.7c.41.11.8.3,1.22.46a2.82,2.82,0,0,0,1.1-1.56A1.83,1.83,0,0,0,99.41,25.4ZM36.15,35.75c-.43-.1-.84-.28-1.28-.36s-.47-.26-.47-.63q0-4.93,0-9.87V21.12a.82.82,0,0,0-.95-.89l-3.8.26c-.22,0-.34.1-.37.32s-.1.7-.18,1a.35.35,0,0,0,.23.47c.53.24,1,.51,1.57.75a.42.42,0,0,1,.29.45q0,5.7,0,11.39a.39.39,0,0,1-.34.45q-.72.18-1.41.42c-.11,0-.27.14-.29.23-.07.5-.1,1-.16,1.54l.49,0H36c.25,0,.36-.08.37-.34s0-.67.1-1S36.43,35.82,36.15,35.75ZM25.25,26a6.08,6.08,0,0,0-3-.74,6.23,6.23,0,0,0-6,4.12,7.71,7.71,0,0,0-.2,4.07A5.33,5.33,0,0,0,18.32,37a6,6,0,0,0,3.4,1l.59,0a5.5,5.5,0,0,0,4.83-3.35,8,8,0,0,0,.42-5.29A4.91,4.91,0,0,0,25.25,26Zm-1.18,8.66a2.07,2.07,0,0,1-3.34.83,3.37,3.37,0,0,1-1-1.7,9.82,9.82,0,0,1-.27-4.31,4.11,4.11,0,0,1,.3-1,1.78,1.78,0,0,1,1.7-1.17,2.15,2.15,0,0,1,2,1,6.28,6.28,0,0,1,.77,2.38c.1.6.12,1.21.2,2.07A11.35,11.35,0,0,1,24.07,34.62Zm21,1.17a12.69,12.69,0,0,0-1.46-.41c-.34-.08-.43-.24-.43-.57,0-1.82,0-3.64,0-5.46,0-1,0-2,0-3a.79.79,0,0,0-.71-.8c-1.39.08-2.77.18-4.19.28-.08.47-.14.91-.24,1.34a.36.36,0,0,0,.21.48c.48.25.94.52,1.41.77a.53.53,0,0,1,.34.53q0,3,0,6a.42.42,0,0,1-.38.47c-.46.12-.92.25-1.36.4-.13,0-.31.16-.32.26-.07.5-.09,1-.14,1.52h7.37c.05-.5.11-1,.12-1.44C45.35,36,45.2,35.83,45.1,35.79ZM12.22,21.55a10.36,10.36,0,0,0-3.8-.78,43.93,43.93,0,0,0-7.68.58c-.31,0-.46.18-.46.5a4.9,4.9,0,0,1-.07.77c0,.31.09.41.36.46.55.09,1.08.22,1.63.31.27.05.37.17.37.46,0,3.7,0,7.41,0,11.11a.42.42,0,0,1-.33.47c-.58.19-1.16.4-1.73.62a.52.52,0,0,0-.3.28c-.1.38-.14.77-.22,1.24H8.62a.65.65,0,0,0,.28,0c.11-.05.26-.13.28-.22.08-.45.13-.9.2-1.38l-2.66-.65c-.49-.12-.49-.13-.49-.64V22.82a10.09,10.09,0,0,1,1-.09,3,3,0,0,1,3.24,2,4.2,4.2,0,0,1,.12,2.53,2.47,2.47,0,0,1-1.53,1.82,11.12,11.12,0,0,1-1.73.39,6,6,0,0,1-.66.06c.09.53.15,1,.27,1.45a.49.49,0,0,0,.37.24,8,8,0,0,0,3-.26,5.57,5.57,0,0,0,4.23-5.85A3.89,3.89,0,0,0,12.22,21.55Zm54.24,4c-.1,0-.24.18-.27.3-.09.29-.12.6-.19.89a.38.38,0,0,0,.26.5c.44.17.86.37,1.34.58-.81,2-1.61,4-2.41,5.94l-.11,0-2.24-6c.39-.17.75-.32,1.1-.5.14-.07.31-.19.34-.32.09-.43.12-.87.18-1.34H58c-.07.41-.12.82-.19,1.22s.06.39.29.47.68.28,1,.39a.66.66,0,0,1,.43.43q1.86,4.65,3.73,9.28a.66.66,0,0,1,0,.39,2.26,2.26,0,0,1-2.51,1.75,4,4,0,0,1-2.23-.9c-.16.19-.3.33-.42.49a2,2,0,0,0,.24,2.9,3.12,3.12,0,0,0,.81.42,4.14,4.14,0,0,0,4.5-1.39,12.69,12.69,0,0,0,1.45-2.43C66.58,35.45,68,32.24,69.3,29a2.55,2.55,0,0,1,1.57-1.76.45.45,0,0,0,.28-.26c.07-.46.1-.92.15-1.43C69.63,25.58,68,25.57,66.46,25.59ZM56.17,35a10,10,0,0,1-1.73.58,3.11,3.11,0,0,1-3.67-1.91,6.79,6.79,0,0,1-.55-4.6,3.55,3.55,0,0,1,.51-1.22,1.59,1.59,0,0,1,2.79,0,7.87,7.87,0,0,1,.62,1.23c.27.61.16.52.8.42l.13,0a1.77,1.77,0,0,0,1.25-2.67,2.73,2.73,0,0,0-2-1.54A6.29,6.29,0,0,0,48,27.74a7.2,7.2,0,0,0-1.17,5.89,5,5,0,0,0,3,3.82,6.54,6.54,0,0,0,4.71.16,4.47,4.47,0,0,0,2.33-1.55.55.55,0,0,0,.13-.4,7.72,7.72,0,0,0-.37-.89A3.25,3.25,0,0,1,56.17,35Zm-.12-19.81c-.46.11-.91.25-1.36.4a.48.48,0,0,0-.27.25c-.07.49-.11,1-.17,1.52l.52,0h6.38c.44,0,.44,0,.49-.46,0-.3,0-.61.1-.91s0-.37-.27-.43c-.43-.11-.85-.24-1.28-.37s-.54-.16-.54-.7V1a.84.84,0,0,0-1-.93L54.94.28c-.27,0-.38.12-.41.38a5.3,5.3,0,0,1-.17.9c-.09.33,0,.48.32.6.47.21.93.46,1.41.66a.53.53,0,0,1,.36.56c0,3.76,0,7.53,0,11.29A.44.44,0,0,1,56.05,15.17Zm-8.45,5.9c.06-.3-.05-.41-.33-.48-.65-.15-1.31-.32-2-.5-.13,0-.31-.17-.31-.26,0-.77,0-1.55,0-2.34h.28a15.34,15.34,0,0,0,2.14.06,5.62,5.62,0,0,0,5-3.55,8.16,8.16,0,0,0-.06-6.48,3.83,3.83,0,0,0-5-2.18,4.7,4.7,0,0,0-1.93,1.43c-.11.12-.23.23-.35.34L44.93,7c.06-.33.12-.66.17-1s-.16-.76-.62-.72l-4.16.38c-.21,0-.29.12-.32.32s-.08.66-.15,1a.35.35,0,0,0,.25.49c.46.18.9.4,1.36.56a.5.5,0,0,1,.38.57c0,1.44,0,2.88,0,4.32q0,3.28,0,6.57a.54.54,0,0,1-.44.62c-.44.13-.87.29-1.3.45-.13.06-.31.16-.32.27-.08.44-.11.9-.16,1.38h7.81C47.49,21.84,47.53,21.45,47.6,21.07ZM45,9.36a.58.58,0,0,1,.32-.6A9.15,9.15,0,0,1,46.82,8a1.76,1.76,0,0,1,2.27,1.11,7.06,7.06,0,0,1,.41,3.69,4.58,4.58,0,0,1-.42,1.44,2,2,0,0,1-2,1.25,13.13,13.13,0,0,1-1.76-.27c-.28,0-.38-.23-.37-.53,0-.9,0-1.8,0-2.71S45,10.25,45,9.36ZM84.41,16a2.07,2.07,0,0,1-2.5-.72A7.87,7.87,0,0,1,81.22,14c-.3-.69-.29-.7-1-.48l-.09,0A1.82,1.82,0,0,0,79,16a2.73,2.73,0,0,0,1.29,1.2,5.89,5.89,0,0,0,2.7.63,5.6,5.6,0,0,0,3.88-1.25A3.18,3.18,0,0,0,87.19,12a9.44,9.44,0,0,0-1.55-1.27c-.77-.49-1.61-.88-2.41-1.34a6,6,0,0,1-.94-.72A1.11,1.11,0,0,1,82,7.37a1.14,1.14,0,0,1,1-.76,1.91,1.91,0,0,1,1.87,1,5.86,5.86,0,0,1,.35.94c.27.87.42.94,1.24.54a2,2,0,0,0,.32-.18,1.85,1.85,0,0,0,0-3.18A5.15,5.15,0,0,0,83.88,5a4.49,4.49,0,0,0-3.72,1.54,3.33,3.33,0,0,0,0,4.65,8.16,8.16,0,0,0,1.42,1.14c.75.48,1.56.85,2.32,1.31a3.77,3.77,0,0,1,1,.78A.93.93,0,0,1,84.41,16Zm-15.23-.78A2.93,2.93,0,0,1,66.43,12l.48,0,2.52-.05c.86,0,1.71,0,2.57-.06.2,0,.39,0,.43-.29a8.33,8.33,0,0,0,0-3.55A3.64,3.64,0,0,0,68,5.09a5.6,5.6,0,0,0-3.82,2.57,7.33,7.33,0,0,0-.72,6.72,4.72,4.72,0,0,0,3.31,3.17,6.14,6.14,0,0,0,3,.06,5.8,5.8,0,0,0,2.83-1.33c.11-.09.25-.25.24-.36,0-.45-.15-.89-.24-1.39A6.46,6.46,0,0,1,69.18,15.17ZM67.07,7.84a1.24,1.24,0,0,1,1.22-.57,1.2,1.2,0,0,1,1,.82,4,4,0,0,1,.2,1.85c0,.11-.13.28-.22.29-1,.12-1.91.2-2.93.31A4.62,4.62,0,0,1,67.07,7.84Zm9.69-2.92c.19-1.36.37-2.72.55-4.08a5.6,5.6,0,0,0,0-.58L74.09,0c.29,1.85.58,3.62.86,5.43.57-.08,1.09-.13,1.59-.23C76.63,5.19,76.75,5,76.76,4.92ZM38.23,8.61a4.67,4.67,0,0,0-3-3.22,6.41,6.41,0,0,0-3.8-.21,6,6,0,0,0-4.4,4,7.48,7.48,0,0,0,.12,5.13,4.89,4.89,0,0,0,2.6,2.88,6.33,6.33,0,0,0,2.68.54.66.66,0,0,0,.14,0l.5,0a5.49,5.49,0,0,0,4.78-3.28A7.92,7.92,0,0,0,38.23,8.61Zm-3.18,5.15a4.43,4.43,0,0,1-.13.49,1.85,1.85,0,0,1-1.47,1.45,2.28,2.28,0,0,1-2.38-.93,5.11,5.11,0,0,1-.82-2.26c-.09-.6-.13-1.21-.19-1.82a6.23,6.23,0,0,1,.43-2.38A1.85,1.85,0,0,1,32.22,7.1a2.14,2.14,0,0,1,2,1.08A6,6,0,0,1,35,10.39,9.78,9.78,0,0,1,35.05,13.76ZM19.39,17.54a6,6,0,0,0,2.95.09,5.87,5.87,0,0,0,3-1.35c.1-.09.24-.22.23-.32,0-.45-.14-.91-.23-1.43a6.32,6.32,0,0,1-3.51.63A2.92,2.92,0,0,1,19.09,12l.47,0,1.52,0,3.57-.08c.21,0,.39,0,.43-.29a8.13,8.13,0,0,0,0-3.64,3.61,3.61,0,0,0-4.45-2.77,5.76,5.76,0,0,0-4.19,3.26A7.41,7.41,0,0,0,16,14.08,4.88,4.88,0,0,0,19.39,17.54Zm.29-9.65A1.28,1.28,0,0,1,21,7.27a1.25,1.25,0,0,1,1,.89A4,4,0,0,1,22.15,10a.37.37,0,0,1-.24.27c-.93.1-1.86.17-2.78.25,0,0-.06,0-.14-.06A4.83,4.83,0,0,1,19.68,7.89Zm-7.4-6.52A10.21,10.21,0,0,0,8.4.56a39.37,39.37,0,0,0-6.95.49C.25,1.23.26,1.24.2,2.44c0,.25.07.37.31.41L2,3.16c.51.09.51.09.51.6V14.83a.31.31,0,0,1-.26.36c-.59.2-1.18.41-1.76.64a.61.61,0,0,0-.33.32c-.09.37-.13.75-.2,1.21H7.19c.54,0,1.07,0,1.61,0,.12,0,.32-.06.34-.13.11-.49.17-1,.25-1.47-1-.24-1.87-.47-2.77-.67-.31-.07-.4-.2-.4-.52,0-3.84,0-7.68,0-11.52,0-.14,0-.27,0-.41a5,5,0,0,1,2.3.05,2.66,2.66,0,0,1,1.76,1.44,4.17,4.17,0,0,1,.26,3.08A2.38,2.38,0,0,1,9.05,8.92a11.58,11.58,0,0,1-1.65.37c-.21,0-.44,0-.72,0,.1.54.17,1,.29,1.49,0,.11.25.22.38.22a16.65,16.65,0,0,0,2.24-.1,5.67,5.67,0,0,0,5-6A3.88,3.88,0,0,0,12.28,1.37Z"/></g></g></svg>